<svg width="56" height="56" viewBox="0 0 56 56" fill="none" xmlns="http://www.w3.org/2000/svg">
<path fill-rule="evenodd" clip-rule="evenodd" d="M28 56C12.536 56 0 43.464 0 28C0 12.536 12.536 0 28 0C43.464 0 56 12.536 56 28C56 43.464 43.464 56 28 56ZM33.9776 16.7475C34.9148 16.7475 36.4049 16.9031 37.5083 17.1113L38.5 11.2289C36.3491 10.8124 34.6941 10.5 32.4329 10.5C25.9246 10.5 23.3323 13.4155 23.3323 18.6205V22.4205H19.25V28.5639H23.3323V47.25H31.2751V28.5639H37.0657L37.6186 22.4205H31.2751V19.4547C31.2751 17.7887 31.4399 16.7475 33.9776 16.7475Z" fill="white"/>
</svg>
