<svg width="346" height="64" viewBox="0 0 346 64" fill="none" xmlns="http://www.w3.org/2000/svg">
<g clip-path="url(#clip0_119_707)">
<path d="M61.5558 46.7416C59.2368 46.6591 57.6265 45.8779 55.9198 45.053C54.213 44.2281 52.3183 43.3061 49.6811 43.2236H49.6377C47.0053 43.3061 45.1732 44.1941 43.399 45.053C41.6248 45.9119 40.1061 46.6591 37.763 46.7416C37.5712 46.7481 37.3898 46.8309 37.2586 46.972C37.1275 47.113 37.0575 47.3007 37.0639 47.4938C37.0703 47.6868 37.1526 47.8694 37.2927 48.0013C37.4329 48.1333 37.6194 48.2038 37.8112 48.1973C40.4388 48.1052 42.2612 47.2269 44.0258 46.3631C45.7903 45.4994 47.3379 44.757 49.6618 44.6794C51.976 44.757 53.5863 45.5382 55.293 46.3631C56.9997 47.188 58.9089 48.1052 61.5076 48.1973C61.6026 48.2005 61.6972 48.1849 61.7862 48.1512C61.8751 48.1176 61.9566 48.0667 62.026 48.0013C62.0954 47.936 62.1513 47.8575 62.1906 47.7704C62.2299 47.6834 62.2517 47.5893 62.2549 47.4938C62.258 47.3982 62.2425 47.3029 62.2091 47.2134C62.1756 47.1238 62.125 47.0418 62.0601 46.972C61.9952 46.9021 61.9172 46.8458 61.8307 46.8063C61.7442 46.7668 61.6508 46.7448 61.5558 46.7416Z" fill="white"/>
<path d="M59.3043 49.0611C58.8993 48.9815 58.4986 48.8811 58.1038 48.7603L58.1858 48.8282C56.6816 50.0607 53.3645 52.3413 49.6377 52.3413C47.0101 52.3171 44.6092 51.1865 43.0567 50.216C42.3737 49.7892 41.7183 49.3192 41.0945 48.8088L41.1523 48.7651C40.7811 48.8816 40.3906 48.9835 39.9856 49.0708C39.4373 49.19 38.8816 49.2711 38.3223 49.3134L38.6356 49.6337C38.8381 49.8278 43.6063 54.5831 49.6377 54.5831C55.6691 54.5831 60.4421 49.8278 60.6398 49.6288L60.958 49.3086C60.4021 49.262 59.8497 49.1793 59.3043 49.0611Z" fill="white"/>
<path d="M36.8422 44.2231C36.0563 44.2231 35.2271 44.2522 34.3496 44.3202C33.6109 44.3132 32.8723 44.344 32.1367 44.4124C31.5388 44.4754 31.0712 44.5385 30.724 44.6016V40.9575C30.1113 42.2567 29.1298 43.3441 27.9036 44.0824C26.8415 44.6328 25.6655 44.9237 24.4709 44.9316C22.0378 44.9316 20.0177 43.7007 18.4106 41.2389C16.8035 38.7771 16 35.7152 16 32.0533C15.9182 28.8213 16.8753 25.649 18.7288 23.0084C20.5448 20.4205 22.6774 19.1265 25.1266 19.1265C26.1818 19.1396 27.2172 19.4164 28.1398 19.932C29.1716 20.5013 30.0185 21.5592 30.6806 23.1055V13.7743H27.3058V12.5903C28.217 12.5903 29.0221 12.5903 29.7164 12.566C30.4107 12.5418 31.0229 12.5272 31.5244 12.4981L33.3564 12.2603C34.0603 12.1633 34.8703 12.0371 35.7671 11.8818V43.0391H39.1998V44.2231H36.8422ZM30.724 30.3501C30.724 27.3513 30.1599 24.9041 29.0318 23.0084C27.9325 21.0674 26.5681 20.0889 24.9385 20.0727C23.8393 20.0727 23.0245 20.7666 22.4942 22.1544C21.8713 23.9323 21.5835 25.8116 21.6456 27.6958V36.3622C21.5856 38.2304 21.8734 40.0935 22.4942 41.8551C23.0856 43.2785 23.9325 43.9886 25.035 43.9854C26.5038 43.9854 27.8056 43.0537 28.9402 41.1904C30.1439 39.282 30.7642 37.0598 30.724 34.7998V30.3501Z" fill="white"/>
<path d="M73.1653 18.0832C71.6563 18.0832 70.9041 17.3602 70.9041 15.9045C70.8979 15.6392 70.9545 15.3763 71.0694 15.1375C71.1843 14.8987 71.354 14.6908 71.5647 14.5312C72.0468 14.1528 72.2686 13.8859 72.2686 13.7258C72.2686 13.5863 72.2286 13.4498 72.1533 13.3327C72.078 13.2156 71.9707 13.1229 71.8443 13.0658C71.5308 12.9715 71.2069 12.9161 70.88 12.9008C70.3915 12.8523 70.0395 12.8281 69.8242 12.8281C69.0399 12.8281 68.3023 13.3651 67.6112 14.4391C67.427 14.696 67.2983 14.989 67.2335 15.299C67.1688 15.6091 67.1693 15.9294 67.2352 16.2393C67.3642 16.9418 67.4272 17.6551 67.4232 18.3695V19.4079H71.8925V20.6162H67.4232V43.0391H71.4682V44.2231H58.6727V43.0391H62.3416V20.6162H58.5811V19.4079H62.3416C62.3416 18.8742 62.3416 18.4374 62.3175 18.1075C62.3 17.8154 62.3162 17.5223 62.3657 17.234C62.4215 16.9564 62.5089 16.6861 62.6261 16.4285C62.8088 16.044 63.0284 15.6783 63.2818 15.3367C63.7035 14.7562 64.2126 14.2454 64.7908 13.8228C65.3841 13.3779 66.0324 13.0125 66.7193 12.7359C67.4107 12.4534 68.1275 12.2389 68.8599 12.0953C69.5325 11.9554 70.2174 11.8839 70.9041 11.8818C72.4132 11.8818 73.5703 12.2603 74.3851 13.0173C74.7918 13.3467 75.118 13.7655 75.3386 14.2416C75.5593 14.7178 75.6685 15.2385 75.6579 15.7638C75.5615 17.3133 74.7306 18.0864 73.1653 18.0832Z" fill="white"/>
<path d="M91.1824 18.0832C89.6782 18.0832 88.9261 17.3602 88.9261 15.9045C88.9188 15.6396 88.9746 15.3768 89.0886 15.1379C89.2027 14.8991 89.3717 14.6911 89.5818 14.5312C90.0639 14.1528 90.2905 13.8859 90.2905 13.7258C90.2893 13.5866 90.2488 13.4506 90.1737 13.3337C90.0986 13.2168 89.9919 13.1239 89.8662 13.0658C89.5526 12.972 89.2288 12.9166 88.902 12.9008C88.4198 12.8523 88.0631 12.8281 87.8413 12.8281C87.0602 12.8281 86.3242 13.3651 85.6332 14.4391C85.4489 14.696 85.3202 14.989 85.2555 15.299C85.1907 15.6091 85.1912 15.9294 85.2571 16.2393C85.3861 16.9418 85.4491 17.6551 85.4451 18.3695V19.4079H89.9144V20.6162H85.4258V43.0391H89.4709V44.2231H76.6897V43.0391H80.3635V20.6162H76.5981V19.4079H80.3635C80.3635 18.8742 80.3635 18.4374 80.3394 18.1075C80.3195 17.8154 80.3357 17.5221 80.3876 17.234C80.4394 16.956 80.5253 16.6854 80.6432 16.4285C80.8279 16.044 81.049 15.6784 81.3037 15.3367C81.7236 14.7563 82.2312 14.2455 82.8079 13.8228C83.41 13.3781 84.0662 13.0128 84.7605 12.7359C85.4519 12.4534 86.1687 12.2389 86.9011 12.0953C87.5675 11.9573 88.2458 11.8858 88.9261 11.8818C90.4303 11.8818 91.5906 12.2603 92.407 13.0173C92.8131 13.3469 93.1386 13.7659 93.3584 14.2421C93.5782 14.7182 93.6866 15.2388 93.675 15.7638C93.5834 17.3117 92.7493 18.0832 91.1824 18.0832Z" fill="white"/>
<path d="M106.427 42.5637C105.705 43.31 104.843 43.9038 103.89 44.3104C102.937 44.717 101.913 44.9282 100.878 44.9317C98.5254 44.9317 96.4362 43.6846 94.6105 41.1905C92.7737 38.659 91.8149 35.59 91.8817 32.4561C91.8817 28.7909 92.8058 25.6498 94.6539 23.0327C96.502 20.4157 98.7295 19.1136 101.336 19.1266C103.628 19.1266 105.572 20.1359 107.17 22.1545C108.824 24.233 109.695 26.8336 109.629 29.4962C109.637 29.6578 109.637 29.8197 109.629 29.9814C109.616 30.1175 109.592 30.2522 109.556 30.3841C109.563 30.4292 109.559 30.475 109.544 30.5182C109.53 30.5614 109.506 30.6007 109.475 30.633C109.443 30.6654 109.404 30.69 109.362 30.7049C109.319 30.7198 109.273 30.7246 109.229 30.719H97.4791V35.2657C97.4791 38.0121 97.7925 40.1585 98.4193 41.7048C99.046 43.2511 100.113 44.0081 101.621 43.9757C103.549 43.9757 105.087 43.0053 106.278 41.0643C106.849 40.1357 107.344 39.1621 107.758 38.1528C108.139 37.2328 108.416 36.2724 108.582 35.2899H109.759C109.106 38.5604 107.996 40.985 106.427 42.5637ZM103.559 21.7323C103.309 21.1929 102.9 20.7446 102.386 20.4492C101.873 20.1538 101.282 20.0257 100.693 20.0827C100.105 20.1396 99.5484 20.3787 99.1006 20.7672C98.6528 21.1556 98.3356 21.6742 98.1927 22.2515C97.717 23.7493 97.4791 25.8957 97.4791 28.6907V29.5447H104.301L104.393 26.2742C104.487 24.7144 104.201 23.1552 103.559 21.7323Z" fill="white"/>
<path d="M128.586 24.8572H128.398C126.861 24.8572 126.047 24.1617 125.953 22.7707L126.142 21.2082C126.142 21.1193 126.107 21.0339 126.045 20.9704C125.999 20.9801 125.951 20.9801 125.905 20.9704C125.862 20.9504 125.813 20.942 125.765 20.9462C124.541 20.9462 123.416 22.2078 122.391 24.731C121.309 27.5389 120.782 30.5321 120.838 33.543V43.0392H125.071V44.2232H112.965V43.0392H115.742V20.6162H112.637V19.4079L120.732 19.1605V24.4302C121.735 22.5377 122.77 21.1952 123.837 20.4027C124.901 19.5744 126.209 19.1255 127.554 19.1265C128.53 19.0642 129.491 19.3862 130.235 20.0242C130.55 20.3122 130.801 20.6636 130.972 21.0557C131.143 21.4478 131.23 21.8717 131.228 22.3C131.164 24.0048 130.283 24.8572 128.586 24.8572Z" fill="white"/>
<path d="M148.628 42.5637C147.906 43.31 147.043 43.9038 146.09 44.3104C145.137 44.717 144.113 44.9282 143.078 44.9317C140.726 44.9317 138.636 43.6846 136.811 41.1905C134.974 38.659 134.015 35.59 134.082 32.4561C134.082 28.7909 135.008 25.6498 136.859 23.0327C138.71 20.4157 140.936 19.1055 143.536 19.1023C145.828 19.1023 147.773 20.1116 149.37 22.1302C151.023 24.2091 151.891 26.8102 151.819 29.4719C151.819 29.6339 151.811 29.7959 151.795 29.9571C151.783 30.0932 151.758 30.228 151.723 30.3599C151.729 30.4049 151.725 30.4508 151.711 30.4939C151.697 30.5371 151.673 30.5764 151.641 30.6088C151.609 30.6411 151.571 30.6657 151.528 30.6806C151.485 30.6955 151.44 30.7004 151.395 30.6947H139.679V35.2414C139.679 37.9879 139.993 40.1342 140.619 41.6805C141.246 43.2268 142.313 43.9838 143.821 43.9515C145.749 43.9515 147.302 42.981 148.478 41.04C149.051 40.1125 149.546 39.1387 149.958 38.1286C150.341 37.2093 150.618 36.2487 150.783 35.2657H151.959C151.316 38.5524 150.206 40.985 148.628 42.5637ZM145.759 21.7323C145.547 21.2329 145.192 20.8083 144.74 20.5127C144.287 20.2171 143.758 20.0639 143.218 20.0728C142.563 20.025 141.914 20.2203 141.392 20.6217C140.871 21.0232 140.514 21.603 140.388 22.2515C139.916 23.7363 139.679 25.8827 139.679 28.6906V29.5447H146.511L146.607 26.2742C146.697 24.7132 146.406 23.1539 145.759 21.7323Z" fill="white"/>
<path d="M167.826 44.2234V43.0394H170.791V28.453C170.791 27.2254 170.747 26.1336 170.67 25.1874C170.614 24.39 170.497 23.5983 170.318 22.8194C169.971 21.4963 169.266 20.8331 168.202 20.8299C166.852 20.8299 165.643 21.8004 164.576 23.7413C163.509 25.6823 162.961 28.4595 162.932 32.0729V43.0394H165.897V44.2234H154.746V43.0394H157.942V20.6164H154.746V19.4081L162.942 19.1752V23.6734C163.575 22.1999 164.664 20.9712 166.047 20.17C167.238 19.4918 168.583 19.1326 169.952 19.1267C172.019 19.1267 173.508 19.9354 174.421 21.5529C175.334 23.1704 175.773 25.5367 175.737 28.652V43.0394H178.751V44.2234H167.826Z" fill="white"/>
<path d="M193.465 43.607C192.588 44.4901 191.193 44.9317 189.28 44.9317C187.52 44.9317 186.301 44.6503 185.611 44.0825C184.922 43.5148 184.483 42.5201 184.483 41.0983V20.8298H181.47V19.408H184.483V15.4339L189.565 14.2014V19.408H193.991V20.8298H189.565V40.9964C189.522 41.5595 189.654 42.1221 189.941 42.6074C190.129 42.7835 190.352 42.9178 190.596 43.0014C190.839 43.085 191.097 43.1161 191.353 43.0926C191.692 43.1124 192.032 43.059 192.348 42.936C192.665 42.8129 192.952 42.6232 193.19 42.3793C193.681 41.8709 194.05 41.257 194.27 40.5839L195.21 41.0692C194.873 42.0613 194.269 42.9398 193.465 43.607Z" fill="white"/>
<path fill-rule="evenodd" clip-rule="evenodd" d="M51.6771 38.5702C52.598 38.6526 53.2006 38.4586 53.0946 37.6773C52.8487 37.0125 51.9664 36.9592 51.5036 36.4157V8H48.0564C48.0564 8 48.0226 34.203 48.0274 35.8819C48.0274 36.964 46.557 36.8524 46.2436 37.6725C46.1375 38.4537 46.7257 38.6429 47.6562 38.5653C45.2456 39.7105 45.964 42.2337 46.88 44.2232C48.7302 43.9716 50.6047 43.9586 52.4582 44.1844C53.3646 42.1998 54.0877 39.7056 51.6771 38.5702Z" fill="white"/>
<path d="M50.5584 9.40234H44.3872L43.1048 13.0659H44.7584L45.6986 10.3777H47.1691L46.2289 13.0659H47.9597L47.3667 14.7594H45.6359L44.5656 17.8164H43.0951L44.1654 14.7594H42.5117L41.0991 18.7966H49.5604L50.6886 15.5843L50.5584 9.40234Z" fill="white"/>
<path d="M45.6411 10.2903L46.1907 11.0181L47.3237 10.2903H45.6411Z" fill="white"/>
<path d="M44.5995 17.8309L44.0499 17.103L42.9121 17.8309H44.5995Z" fill="white"/>
<path d="M48.0179 13.0076L47.0488 13.847L47.3911 14.8515L48.0179 13.0076Z" fill="white"/>
<path fill-rule="evenodd" clip-rule="evenodd" d="M54.1792 46.9648C54.1589 47.5779 54.018 48.1809 53.7648 48.7389C53.5116 49.2969 53.151 49.7989 52.7039 50.2159L49.6376 47.5277L45.5106 49.0465C45.1659 48.4288 44.9664 47.74 44.9272 47.0327C46.3879 46.2654 47.9967 45.8266 49.6424 45.7468C51.2241 45.8201 52.7714 46.2355 54.1792 46.9648Z" fill="white"/>
<path fill-rule="evenodd" clip-rule="evenodd" d="M49.6378 47.5132L46.856 50.575C47.6383 51.1413 48.5777 51.446 49.5414 51.446C50.5051 51.446 51.4444 51.1413 52.2268 50.575L49.6378 47.5132Z" fill="white"/>
<path d="M246.668 43.0295H245.27C244.305 43.0295 244.19 42.9033 244.19 41.9474C244.19 37.5171 244.233 33.0869 244.161 28.6615C244.127 27.044 243.948 25.4328 243.625 23.8479C243.192 21.7177 242.078 19.966 239.961 19.1799C237.621 18.2483 235.017 18.2483 232.676 19.1799C231.846 19.4635 231.112 19.9758 230.557 20.6587C230.003 21.3415 229.649 22.1674 229.538 23.0424C229.431 23.568 229.507 24.1144 229.753 24.5904C229.999 25.0664 230.399 25.4432 230.888 25.6579C231.362 25.8336 231.882 25.8399 232.361 25.6755C232.839 25.5112 233.247 25.1863 233.515 24.7553C233.771 24.3159 233.858 23.7976 233.761 23.298C233.663 22.7984 233.387 22.352 232.985 22.0428C232.098 21.2664 232.175 20.6939 233.241 20.1698C234.142 19.7445 235.143 19.5766 236.133 19.6846C236.794 19.6909 237.434 19.925 237.944 20.3479C238.455 20.7708 238.806 21.357 238.939 22.0089C239.489 24.0129 239.368 26.0703 239.378 28.1326C239.142 28.186 238.954 28.2296 238.761 28.2636C236.638 28.5995 234.577 29.2537 232.647 30.2046C230.97 31.0926 229.591 32.3057 228.901 34.1253C228.448 35.277 228.226 36.5077 228.249 37.7462C228.271 38.9847 228.537 40.2065 229.032 41.3408C229.996 43.6215 231.794 44.8782 234.282 44.8491C236.77 44.82 238.563 43.539 239.585 41.2292C239.701 40.9672 239.788 40.6955 239.932 40.3024C240.135 40.8265 240.284 41.2438 240.463 41.6514C240.684 42.2669 241.068 42.8097 241.574 43.2211C242.079 43.6325 242.687 43.8969 243.331 43.9854C244.445 44.1358 245.578 44.1358 246.706 44.1844C247.082 44.1844 247.164 43.9175 247.188 43.5924C247.212 43.2672 247.049 43.0246 246.668 43.0295ZM238.259 41.2535C237.879 42.1752 237.175 42.9244 236.283 43.3594C235.926 43.5151 235.537 43.5817 235.15 43.5535C233.096 43.408 233.009 40.3364 233.009 40.3364C233.009 40.3364 232.527 35.3724 233.949 32.3299C235.092 29.86 238.288 29.3166 239.445 29.2001V31.7865V34.8532C239.396 36.5834 239.16 38.3031 238.742 39.9822C238.634 40.4244 238.472 40.8514 238.259 41.2535Z" fill="white"/>
<path d="M326.054 26.6623V41.8406C326.054 42.9421 326.141 43.0294 327.259 43.0197C327.669 43.0197 328.084 43.0197 328.494 43.0197C328.904 43.0197 328.976 43.2429 329 43.5972C329.024 43.9514 328.904 44.1892 328.484 44.1795C327.751 44.16 327.018 44.1503 326.286 44.1503H318.933C318.355 44.1503 318.234 44.0145 318.258 43.4613C318.258 43.1168 318.427 42.9761 318.74 42.9761C319.295 42.9761 319.849 43.0052 320.404 42.9761C320.958 42.9469 321.175 42.748 321.209 42.19C321.209 42.0638 321.209 41.9376 321.209 41.8115V14.2207C321.209 13.1289 321.093 13.0124 320.008 13.0222L318.774 13.0561C318.335 13.0561 318.292 12.765 318.292 12.4399C318.292 12.1148 318.388 11.8818 318.774 11.8818C321.024 11.8818 323.274 11.8818 325.524 11.8818C325.861 11.8818 326.006 12.0371 326.006 12.3671V26.6623H326.054Z" fill="white"/>
<path d="M284.36 20.3591C283.488 20.3591 282.702 20.3591 281.916 20.3591C281.496 20.3591 281.395 20.165 281.39 19.8011C281.385 19.4372 281.501 19.18 281.935 19.1848C282.716 19.1848 283.502 19.1848 284.346 19.1848C284.346 18.1755 284.375 17.1759 284.346 16.1764C284.311 15.9572 284.355 15.7326 284.469 15.5431C284.584 15.3536 284.763 15.2117 284.972 15.1428C286.154 14.6284 287.301 14.0461 288.477 13.5124C289.08 13.2406 289.21 13.3425 289.205 13.9976C289.205 15.531 289.205 17.0595 289.205 18.5928V19.2237C290.049 19.2237 290.83 19.2237 291.616 19.2237C292.402 19.2237 293.12 19.2237 293.872 19.18C294.316 19.18 294.403 19.4129 294.403 19.7962C294.403 20.1796 294.282 20.3591 293.877 20.3543C292.624 20.33 291.37 20.33 290.117 20.33C289.413 20.33 289.21 20.5193 289.21 21.218C289.21 27.2835 289.21 33.349 289.244 39.4194C289.298 40.4578 289.476 41.4859 289.774 42.4812C290.155 43.6846 291.173 44.0146 292.185 43.3013C292.755 42.9008 293.232 42.381 293.583 41.7776C294.013 40.9577 294.375 40.1041 294.668 39.2253C294.817 38.8322 295.005 38.74 295.391 38.8565C295.777 38.973 295.873 39.1865 295.714 39.5455C295.359 40.5224 294.939 41.4741 294.456 42.3939C294.024 43.1059 293.425 43.7006 292.712 44.126C291.999 44.5515 291.193 44.7947 290.365 44.8344C289.537 44.8741 288.712 44.7092 287.962 44.354C287.212 43.9988 286.559 43.4641 286.062 42.7967C285.123 41.4897 284.572 39.9419 284.471 38.3324C284.389 37.5085 284.35 36.6809 284.355 35.8529C284.355 30.9163 284.355 25.9814 284.355 21.0482L284.36 20.3591Z" fill="white"/>
<path d="M277.716 30.9276V41.8892C277.716 42.8597 277.88 43.0246 278.83 43.0198C279.278 43.0198 279.727 43.0198 280.17 43.0198C280.614 43.0198 280.681 43.2333 280.681 43.5924C280.681 43.9514 280.58 44.1892 280.17 44.1795C279.76 44.1698 279.312 44.1552 278.883 44.1552C276.13 44.1552 273.372 44.1552 270.619 44.1844C270.2 44.1844 269.944 44.1067 269.944 43.5924C269.944 43.078 270.113 42.9907 270.547 43.0198C271.068 43.0537 271.588 43.0537 272.104 43.0198C272.62 42.9858 272.861 42.8063 272.89 42.2288C272.89 42.1027 272.89 41.9765 272.89 41.8504V21.4945C272.89 20.427 272.799 20.3299 271.719 20.3396C271.309 20.3396 270.894 20.3396 270.484 20.3396C270.075 20.3396 269.949 20.1795 269.949 19.7913C269.949 19.4031 270.036 19.1605 270.48 19.1702C271.694 19.1945 272.89 19.2139 274.129 19.2187C275.093 19.2187 276.024 19.2187 276.969 19.1799C277.663 19.1799 277.716 19.209 277.716 19.8932V30.9276Z" fill="white"/>
<path d="M278.194 14.7933C278.194 15.3691 278.024 15.932 277.706 16.4108C277.388 16.8896 276.937 17.2627 276.408 17.4831C275.879 17.7035 275.298 17.7611 274.737 17.6488C274.175 17.5364 273.66 17.2592 273.255 16.852C272.851 16.4448 272.575 15.926 272.464 15.3613C272.352 14.7965 272.409 14.2111 272.628 13.6791C272.847 13.1471 273.218 12.6924 273.694 12.3725C274.17 12.0526 274.729 11.8818 275.301 11.8818C276.068 11.8818 276.804 12.1886 277.346 12.7346C277.889 13.2806 278.194 14.0211 278.194 14.7933Z" fill="white"/>
<path d="M225.498 39.8462C225.016 39.5987 224.905 39.8899 224.741 40.2102C223.405 42.8305 221.67 43.8689 219.056 43.6651C218.388 43.6392 217.752 43.3682 217.268 42.9032C217.268 42.9032 215.05 41.86 215.084 31.8883C215.06 23.3772 216.496 21.0189 217.056 20.4269C217.353 20.08 217.754 19.8384 218.198 19.7379C219.494 19.4196 220.859 19.5708 222.055 20.1649C222.281 20.2588 222.474 20.4166 222.612 20.619C222.749 20.8215 222.826 21.0599 222.831 21.3052C222.831 21.7904 222.489 22.0525 222.089 22.2757C221.761 22.4482 221.49 22.7119 221.307 23.0354C221.124 23.3589 221.037 23.7285 221.057 24.1002C221.052 24.4724 221.151 24.8386 221.342 25.1575C221.533 25.4765 221.808 25.7354 222.137 25.9053C222.472 26.1004 222.851 26.2043 223.238 26.2066C223.625 26.2089 224.006 26.1095 224.343 25.9184C224.68 25.7273 224.961 25.451 225.159 25.1168C225.358 24.7826 225.466 24.402 225.474 24.0128C225.565 23.1355 225.407 22.25 225.018 21.4596C224.629 20.6692 224.024 20.0065 223.275 19.5486C220.889 17.9522 217.113 18.1511 214.674 19.9805C213.034 21.2637 211.858 23.0539 211.328 25.0755C210.234 28.8316 210.092 32.8034 210.913 36.6291C211.283 38.7146 212.191 40.6657 213.546 42.287C216.313 45.5187 223.222 46.329 225.777 40.6905C225.975 40.2538 225.907 40.0597 225.498 39.8462Z" fill="white"/>
<path d="M316.262 43.0295H314.864C313.9 43.0295 313.784 42.9033 313.784 41.9474C313.784 37.5171 313.828 33.0869 313.755 28.6615C313.722 27.044 313.543 25.4328 313.22 23.8479C312.786 21.7177 311.673 19.966 309.556 19.1799C307.216 18.2483 304.611 18.2483 302.271 19.1799C301.441 19.4635 300.707 19.9758 300.152 20.6587C299.597 21.3415 299.244 22.1674 299.133 23.0424C299.026 23.568 299.102 24.1144 299.348 24.5904C299.594 25.0664 299.994 25.4432 300.482 25.6579C300.957 25.8336 301.477 25.8399 301.955 25.6755C302.434 25.5112 302.841 25.1863 303.11 24.7553C303.366 24.3159 303.453 23.7976 303.355 23.298C303.258 22.7984 302.982 22.352 302.58 22.0428C301.693 21.2664 301.77 20.6939 302.835 20.1698C303.737 19.7445 304.738 19.5766 305.728 19.6846C306.389 19.6909 307.028 19.925 307.539 20.3479C308.049 20.7708 308.401 21.357 308.534 22.0089C309.084 24.0129 308.963 26.0703 308.973 28.1326C308.736 28.186 308.548 28.2296 308.356 28.2636C306.233 28.5995 304.172 29.2537 302.242 30.2046C300.564 31.0926 299.186 32.3057 298.496 34.1253C298.043 35.277 297.821 36.5077 297.843 37.7462C297.866 38.9847 298.132 40.2065 298.626 41.3408C299.591 43.6215 301.389 44.8782 303.877 44.8491C306.364 44.82 308.158 43.539 309.18 41.2292C309.296 40.9672 309.383 40.6955 309.527 40.3024C309.73 40.8265 309.879 41.2438 310.057 41.6514C310.28 42.2702 310.668 42.8152 311.178 43.2269C311.689 43.6386 312.302 43.901 312.95 43.9854C314.064 44.1358 315.197 44.1358 316.325 44.1844C316.701 44.1844 316.783 43.9175 316.807 43.5924C316.831 43.2672 316.643 43.0246 316.262 43.0295ZM307.854 41.2535C307.473 42.1752 306.77 42.9244 305.877 43.3594C305.521 43.5151 305.132 43.5817 304.744 43.5535C302.691 43.408 302.604 40.3364 302.604 40.3364C302.604 40.3364 302.122 35.3724 303.544 32.3299C304.687 29.86 307.883 29.3166 309.04 29.2001V31.7865V34.8532C308.994 36.5796 308.763 38.296 308.351 39.9725C308.239 40.4187 308.072 40.8491 307.854 41.2535Z" fill="white"/>
<path d="M267.413 28.7682C267.208 26.6101 266.62 24.5064 265.677 22.5571C265.063 21.2294 264.08 20.1089 262.847 19.3302C260.037 17.6513 257.178 18.5247 255.775 21.4798C255.722 21.5914 255.664 21.6982 255.611 21.805L255.495 21.7807C255.495 21.0965 255.495 20.4172 255.495 19.7378C255.495 19.3351 255.331 19.1798 254.95 19.1944C254.304 19.1944 253.658 19.2429 253.022 19.2429C251.484 19.2429 249.946 19.2186 248.408 19.1895C247.926 19.1895 247.718 19.306 247.723 19.8252C247.728 20.3444 247.993 20.3735 248.379 20.3589C248.895 20.3589 249.415 20.3589 249.931 20.3589C250.03 20.3459 250.131 20.3557 250.225 20.3873C250.32 20.419 250.406 20.4719 250.478 20.5419C250.549 20.6119 250.604 20.6973 250.638 20.7917C250.672 20.8861 250.684 20.987 250.674 21.0868C250.674 21.2469 250.674 21.4119 250.674 21.572V53.6416C250.674 53.7872 250.674 53.9327 250.674 54.0735C250.645 54.6412 250.447 54.8595 249.878 54.8741C249.309 54.8887 248.842 54.8741 248.326 54.8256C247.81 54.7771 247.723 55.0003 247.718 55.4321C247.714 55.864 247.887 55.9999 248.297 55.9999C251.511 55.9999 254.712 55.9999 257.901 55.9999C258.335 55.9999 258.47 55.8106 258.46 55.4127C258.45 55.0148 258.306 54.8013 257.882 54.8304C257.457 54.8596 256.951 54.8741 256.483 54.879C255.693 54.879 255.495 54.68 255.49 53.9085C255.49 49.9489 255.49 45.9877 255.49 42.0249C255.49 41.8939 255.514 41.7678 255.543 41.5106C255.736 41.8891 255.857 42.1414 255.992 42.3937C256.811 43.8931 258.021 44.8199 259.762 44.8199C261.083 44.865 262.378 44.4426 263.421 43.6262C264.851 42.4381 265.894 40.8459 266.415 39.0553C267.521 35.7472 267.862 32.229 267.413 28.7682ZM260.181 43.5826H260.148C259.901 43.6777 259.64 43.727 259.376 43.7281C256.368 43.7281 255.394 38.3274 255.394 31.665C255.394 25.0027 256.498 19.6456 259.366 19.6456H259.627C261.608 19.6456 262.785 25.0464 262.785 31.7039C262.785 37.6723 261.835 42.6363 260.205 43.5826H260.181Z" fill="white"/>
</g>
<defs>
<clipPath id="clip0_119_707">
<rect width="313" height="48" fill="white" transform="translate(16 8)"/>
</clipPath>
</defs>
</svg>
