<svg width="32" height="32" viewBox="0 0 32 32" fill="none" xmlns="http://www.w3.org/2000/svg">
<path fill-rule="evenodd" clip-rule="evenodd" d="M16 32C7.16344 32 0 24.8366 0 16C0 7.16344 7.16344 0 16 0C24.8366 0 32 7.16344 32 16C32 24.8366 24.8366 32 16 32ZM20.0409 7.8601C18.9864 7.81199 18.6701 7.80179 16 7.80179C13.3299 7.80179 13.0136 7.81199 11.9591 7.8601C10.9842 7.90456 10.4547 8.06747 10.1023 8.20442C9.63551 8.38582 9.30239 8.60252 8.95248 8.95247C8.60253 9.30238 8.38583 9.6355 8.20443 10.1023C8.06748 10.4546 7.90457 10.9841 7.86011 11.9591C7.812 13.0136 7.8018 13.3299 7.8018 15.9999C7.8018 18.6701 7.812 18.9864 7.86011 20.0408C7.90457 21.0158 8.06748 21.5453 8.20443 21.8977C8.38583 22.3644 8.60257 22.6976 8.95248 23.0475C9.30239 23.3974 9.63551 23.6141 10.1023 23.7955C10.4547 23.9325 10.9842 24.0954 11.9591 24.1398C13.0135 24.1879 13.3297 24.1981 16 24.1981C18.6703 24.1981 18.9866 24.1879 20.0409 24.1398C21.0159 24.0954 21.5453 23.9325 21.8977 23.7955C22.3645 23.6141 22.6976 23.3974 23.0476 23.0475C23.3975 22.6976 23.6142 22.3644 23.7956 21.8977C23.9325 21.5453 24.0954 21.0158 24.1399 20.0408C24.188 18.9864 24.1982 18.6701 24.1982 15.9999C24.1982 13.3299 24.188 13.0136 24.1399 11.9591C24.0954 10.9841 23.9325 10.4546 23.7956 10.1023C23.6142 9.6355 23.3975 9.30238 23.0475 8.95243C22.6976 8.60252 22.3645 8.38582 21.8977 8.20442C21.5453 8.06747 21.0159 7.90456 20.0409 7.8601ZM11.877 6.06018C12.9436 6.01151 13.2842 6 16 6C18.7158 6 19.0564 6.01151 20.123 6.06018C21.1874 6.10872 21.9143 6.27779 22.5504 6.52497C23.208 6.78052 23.7656 7.12245 24.3216 7.67838C24.8775 8.23435 25.2195 8.79202 25.475 9.44961C25.7222 10.0857 25.8913 10.8126 25.9398 11.877C25.9885 12.9436 26 13.2841 26 15.9999C26 18.7158 25.9885 19.0563 25.9398 20.1229C25.8913 21.1873 25.7222 21.9143 25.475 22.5503C25.2195 23.2079 24.8775 23.7656 24.3216 24.3216C23.7656 24.8775 23.208 25.2194 22.5504 25.4749C21.9143 25.7221 21.1874 25.8912 20.123 25.9398C19.0564 25.9884 18.7158 25.9999 16 25.9999C13.2842 25.9999 12.9436 25.9884 11.877 25.9398C10.8126 25.8912 10.0857 25.7221 9.44962 25.4749C8.79203 25.2194 8.23436 24.8775 7.67839 24.3216C7.12246 23.7656 6.78052 23.2079 6.52501 22.5503C6.27779 21.9143 6.10872 21.1873 6.06018 20.1229C6.01151 19.0563 6 18.7158 6 15.9999C6 13.2841 6.01151 12.9436 6.06018 11.877C6.10872 10.8126 6.27779 10.0857 6.52501 9.44961C6.78052 8.79202 7.12246 8.23435 7.67839 7.67838C8.23436 7.12245 8.79203 6.78052 9.44962 6.52497C10.0857 6.27779 10.8126 6.10872 11.877 6.06018ZM10.8696 16.0046C10.8696 13.1685 13.1686 10.8695 16.0047 10.8695C18.8408 10.8695 21.1399 13.1685 21.1399 16.0046C21.1399 18.8407 18.8408 21.1397 16.0047 21.1397C13.1686 21.1397 10.8696 18.8407 10.8696 16.0046ZM12.6714 16.0046C12.6714 17.8455 14.1638 19.3379 16.0047 19.3379C17.8457 19.3379 19.3381 17.8455 19.3381 16.0046C19.3381 14.1636 17.8457 12.6713 16.0047 12.6713C14.1638 12.6713 12.6714 14.1636 12.6714 16.0046ZM22.5423 10.6635C22.5423 11.3262 22.005 11.8634 21.3422 11.8634C20.6795 11.8634 20.1423 11.3262 20.1423 10.6635C20.1423 10.0007 20.6795 9.46343 21.3422 9.46343C22.005 9.46343 22.5423 10.0007 22.5423 10.6635Z" fill="white"/>
</svg>
