<svg width="56" height="56" viewBox="0 0 56 56" fill="none" xmlns="http://www.w3.org/2000/svg">
<path fill-rule="evenodd" clip-rule="evenodd" d="M28 56C12.536 56 0 43.464 0 28C0 12.536 12.536 0 28 0C43.464 0 56 12.536 56 28C56 43.464 43.464 56 28 56ZM14.35 23.275V42H20.3V23.275H14.35ZM14 17.325C14 19.25 15.4 20.65 17.325 20.65C19.25 20.65 20.65 19.25 20.65 17.325C20.65 15.4 19.25 14 17.325 14C15.575 14 14 15.4 14 17.325ZM36.05 42H41.65V30.45C41.65 24.675 38.15 22.75 34.825 22.75C31.85 22.75 29.75 24.675 29.225 25.9V23.275H23.625V42H29.575V32.025C29.575 29.4 31.325 28 33.075 28C34.825 28 36.05 28.875 36.05 31.85V42Z" fill="white"/>
</svg>
