<svg width="226" height="42" viewBox="0 0 226 42" fill="none" xmlns="http://www.w3.org/2000/svg">
<g clip-path="url(#clip0_107_8341)">
<path d="M40.2078 30.6742C38.6931 30.62 37.6413 30.1073 36.5265 29.566C35.4117 29.0246 34.1741 28.4196 32.4515 28.3655H32.4232C30.7037 28.4196 29.5071 29.0024 28.3482 29.566C27.1893 30.1296 26.1973 30.62 24.6668 30.6742C24.5416 30.6784 24.4231 30.7328 24.3374 30.8253C24.2518 30.9179 24.206 31.0411 24.2102 31.1677C24.2144 31.2944 24.2682 31.4142 24.3597 31.5008C24.4513 31.5874 24.5731 31.6337 24.6983 31.6295C26.4146 31.569 27.605 30.9926 28.7576 30.4258C29.9102 29.859 30.921 29.3717 32.4389 29.3208C33.9505 29.3717 35.0023 29.8844 36.1171 30.4258C37.2319 30.9671 38.479 31.569 40.1763 31.6295C40.2384 31.6316 40.3002 31.6213 40.3583 31.5992C40.4164 31.5771 40.4696 31.5437 40.515 31.5008C40.5603 31.458 40.5968 31.4065 40.6225 31.3493C40.6481 31.2922 40.6624 31.2305 40.6645 31.1677C40.6665 31.105 40.6564 31.0425 40.6345 30.9837C40.6127 30.925 40.5796 30.8712 40.5372 30.8253C40.4948 30.7795 40.4439 30.7426 40.3874 30.7166C40.3309 30.6907 40.2699 30.6763 40.2078 30.6742Z" fill="white"/>
<path d="M38.7373 32.1962C38.4727 32.144 38.211 32.0781 37.9531 31.9988L38.0067 32.0434C37.0241 32.8522 34.8575 34.3489 32.4233 34.3489C30.707 34.3329 29.1387 33.591 28.1247 32.9541C27.6785 32.674 27.2504 32.3656 26.843 32.0306L26.8808 32.002C26.6383 32.0784 26.3832 32.1453 26.1187 32.2026C25.7606 32.2808 25.3976 32.334 25.0322 32.3618L25.2369 32.572C25.3692 32.6993 28.4837 35.8201 32.4233 35.8201C36.3628 35.8201 39.4805 32.6993 39.6096 32.5688L39.8174 32.3586C39.4543 32.328 39.0935 32.2738 38.7373 32.1962Z" fill="white"/>
<path d="M24.0651 29.0216C23.5518 29.0216 23.0102 29.0407 22.437 29.0853C21.9545 29.0807 21.4721 29.1009 20.9916 29.1458C20.6011 29.1872 20.2956 29.2286 20.0689 29.27V26.8785C19.6686 27.7311 19.0276 28.4447 18.2266 28.9292C17.5329 29.2904 16.7647 29.4813 15.9844 29.4865C14.3952 29.4865 13.0757 28.6787 12.026 27.0632C10.9763 25.4476 10.4514 23.4383 10.4514 21.0351C10.398 18.9141 11.0231 16.8323 12.2338 15.0994C13.42 13.4011 14.813 12.5519 16.4127 12.5519C17.102 12.5605 17.7783 12.7421 18.3809 13.0805C19.0548 13.4541 19.608 14.1483 20.0405 15.1631V9.03952H17.8361V8.26253C18.4313 8.26253 18.9572 8.26253 19.4107 8.24661C19.8642 8.23068 20.2641 8.22113 20.5916 8.20203L21.7883 8.04599C22.2481 7.9823 22.7771 7.89951 23.3629 7.79761V28.2446H25.605V29.0216H24.0651ZM20.0689 19.9174C20.0689 17.9494 19.7004 16.3435 18.9635 15.0994C18.2455 13.8257 17.3543 13.1835 16.2899 13.1729C15.5719 13.1729 15.0397 13.6282 14.6933 14.539C14.2864 15.7057 14.0985 16.939 14.139 18.1755V23.8629C14.0998 25.0889 14.2878 26.3115 14.6933 27.4676C15.0796 28.4017 15.6328 28.8677 16.3529 28.8655C17.3123 28.8655 18.1626 28.2541 18.9037 27.0313C19.6899 25.779 20.0951 24.3207 20.0689 22.8375V19.9174Z" fill="white"/>
<path d="M47.7908 11.8673C46.8051 11.8673 46.3138 11.3928 46.3138 10.4375C46.3097 10.2634 46.3467 10.0908 46.4218 9.93412C46.4968 9.77739 46.6077 9.64101 46.7453 9.53629C47.0602 9.2879 47.205 9.11276 47.205 9.00768C47.2051 8.91615 47.1789 8.82657 47.1298 8.74973C47.0806 8.67289 47.0105 8.61207 46.9279 8.5746C46.7231 8.5127 46.5116 8.47634 46.2981 8.46633C45.979 8.43449 45.7491 8.41856 45.6084 8.41856C45.0962 8.41856 44.6144 8.77097 44.163 9.47578C44.0426 9.64439 43.9586 9.83665 43.9163 10.0401C43.874 10.2436 43.8743 10.4538 43.9173 10.6572C44.0016 11.1182 44.0428 11.5863 44.0402 12.0551V12.7366H46.9594V13.5295H44.0402V28.2446H46.6823V29.0216H38.3245V28.2446H40.721V13.5295H38.2646V12.7366H40.721C40.721 12.3863 40.721 12.0997 40.7052 11.8832C40.6938 11.6915 40.7044 11.4992 40.7367 11.31C40.7732 11.1278 40.8302 10.9504 40.9068 10.7814C41.0261 10.529 41.1695 10.289 41.3351 10.0649C41.6105 9.6839 41.9431 9.34869 42.3207 9.07136C42.7083 8.77941 43.1317 8.53964 43.5804 8.35806C44.032 8.17269 44.5002 8.03192 44.9786 7.93772C45.4179 7.8459 45.8652 7.79896 46.3138 7.79761C47.2995 7.79761 48.0553 8.04599 48.5875 8.54276C48.8532 8.7589 49.0662 9.03377 49.2104 9.34623C49.3545 9.65869 49.4258 10.0004 49.4189 10.3451C49.3559 11.362 48.8132 11.8694 47.7908 11.8673Z" fill="white"/>
<path d="M59.5593 11.8673C58.5768 11.8673 58.0855 11.3928 58.0855 10.4375C58.0808 10.2636 58.1172 10.0912 58.1917 9.93441C58.2662 9.77767 58.3766 9.64117 58.5138 9.53629C58.8287 9.2879 58.9768 9.11276 58.9768 9.00768C58.976 8.91633 58.9496 8.82708 58.9005 8.75038C58.8514 8.67368 58.7817 8.61271 58.6996 8.5746C58.4948 8.51303 58.2833 8.47668 58.0698 8.46633C57.7549 8.43449 57.5218 8.41856 57.377 8.41856C56.8668 8.41856 56.3861 8.77097 55.9347 9.47578C55.8143 9.64439 55.7303 9.83665 55.688 10.0401C55.6457 10.2436 55.646 10.4538 55.6891 10.6572C55.7733 11.1182 55.8145 11.5863 55.8119 12.0551V12.7366H58.7311V13.5295H55.7993V28.2446H58.4414V29.0216H50.093V28.2446H52.4927V13.5295H50.0332V12.7366H52.4927C52.4927 12.3863 52.4927 12.0997 52.4769 11.8832C52.4639 11.6915 52.4745 11.499 52.5084 11.31C52.5423 11.1275 52.5983 10.9499 52.6753 10.7814C52.796 10.529 52.9404 10.2891 53.1068 10.0649C53.3811 9.68397 53.7126 9.34875 54.0893 9.07136C54.4826 8.77951 54.9112 8.53979 55.3647 8.35806C55.8163 8.17269 56.2845 8.03192 56.7629 7.93772C57.1982 7.84712 57.6412 7.80019 58.0855 7.79761C59.0681 7.79761 59.826 8.04599 60.3592 8.54276C60.6245 8.75906 60.8371 9.03404 60.9807 9.34652C61.1243 9.659 61.195 10.0006 61.1874 10.3451C61.1276 11.3609 60.5828 11.8673 59.5593 11.8673Z" fill="white"/>
<path d="M69.5167 27.9324C69.0451 28.4222 68.4816 28.8119 67.8593 29.0787C67.2369 29.3455 66.5681 29.4841 65.8921 29.4864C64.3553 29.4864 62.9907 28.668 61.7982 27.0312C60.5985 25.37 59.9722 23.3559 60.0158 21.2993C60.0158 18.8941 60.6194 16.8327 61.8266 15.1153C63.0337 13.3978 64.4886 12.5433 66.1913 12.5518C67.6881 12.5518 68.9583 13.2142 70.0017 14.5389C71.0825 15.903 71.6514 17.6096 71.6078 19.3569C71.6131 19.4629 71.6131 19.5692 71.6078 19.6753C71.5995 19.7646 71.5837 19.853 71.5605 19.9396C71.5646 19.9692 71.5619 19.9993 71.5527 20.0276C71.5434 20.0559 71.5278 20.0817 71.5071 20.1029C71.4864 20.1242 71.4611 20.1403 71.4333 20.1501C71.4054 20.1599 71.3757 20.163 71.3464 20.1593H63.672V23.1431C63.672 24.9455 63.8766 26.354 64.286 27.3688C64.6954 28.3836 65.3924 28.8803 66.3771 28.8591C67.6367 28.8591 68.6413 28.2222 69.4191 26.9485C69.792 26.3391 70.1153 25.7001 70.3859 25.0378C70.6348 24.4341 70.8154 23.8038 70.9244 23.159H71.6928C71.2666 25.3053 70.5413 26.8964 69.5167 27.9324ZM67.643 14.2618C67.48 13.9079 67.2125 13.6137 66.8773 13.4198C66.5421 13.2259 66.1558 13.1419 65.7714 13.1793C65.387 13.2166 65.0236 13.3736 64.731 13.6285C64.4385 13.8834 64.2313 14.2237 64.138 14.6026C63.8273 15.5855 63.672 16.994 63.672 18.8283V19.3887H68.128L68.1878 17.2424C68.2492 16.2188 68.0622 15.1956 67.643 14.2618Z" fill="white"/>
<path d="M83.9901 16.3126H83.8673C82.8638 16.3126 82.3315 15.8562 82.2707 14.9433L82.3935 13.918C82.3935 13.8596 82.3709 13.8036 82.3305 13.7619C82.3004 13.7683 82.2693 13.7683 82.2392 13.7619C82.2106 13.7488 82.1791 13.7433 82.1478 13.746C81.348 13.746 80.6132 14.574 79.9435 16.2298C79.2371 18.0725 78.8927 20.0368 78.9294 22.0127V28.2446H81.6944V29.0215H73.7869V28.2446H75.6008V13.5295H73.5728V12.7366L78.8601 12.5742V16.0324C79.5152 14.7905 80.1912 13.9095 80.8882 13.3894C81.5834 12.8458 82.4374 12.5512 83.3162 12.5519C83.9533 12.511 84.5812 12.7223 85.0671 13.141C85.2728 13.33 85.4368 13.5606 85.5486 13.8179C85.6604 14.0752 85.7173 14.3534 85.7158 14.6345C85.6738 15.7532 85.0986 16.3126 83.9901 16.3126Z" fill="white"/>
<path d="M97.0812 27.9324C96.6096 28.4222 96.0461 28.8119 95.4237 29.0787C94.8013 29.3455 94.1325 29.4841 93.4565 29.4864C91.9198 29.4864 90.5551 28.668 89.3627 27.0312C88.1629 25.37 87.5366 23.3559 87.5803 21.2993C87.5803 18.8941 88.1849 16.8327 89.3942 15.1152C90.6034 13.3978 92.0573 12.538 93.7557 12.5359C95.2526 12.5359 96.5227 13.1982 97.5662 14.5229C98.6459 15.8872 99.2126 17.5942 99.1659 19.3409C99.166 19.4473 99.1607 19.5536 99.1502 19.6594C99.1419 19.7487 99.1261 19.8371 99.1029 19.9237C99.107 19.9532 99.1043 19.9833 99.0951 20.0116C99.0858 20.04 99.0702 20.0658 99.0495 20.087C99.0288 20.1083 99.0035 20.1244 98.9757 20.1342C98.9478 20.144 98.9181 20.1471 98.8888 20.1434H91.2364V23.1272C91.2364 24.9295 91.4411 26.3381 91.8505 27.3529C92.2599 28.3676 92.9569 28.8644 93.9415 28.8432C95.2012 28.8432 96.2152 28.2063 96.9836 26.9325C97.3577 26.3239 97.681 25.6848 97.9503 25.0219C98.2006 24.4186 98.3813 23.7882 98.4888 23.1431H99.2572C98.8373 25.3 98.112 26.8964 97.0812 27.9324ZM95.2075 14.2618C95.0692 13.9341 94.8374 13.6554 94.5419 13.4615C94.2463 13.2675 93.9002 13.167 93.5479 13.1728C93.1202 13.1414 92.6959 13.2696 92.3553 13.533C92.0147 13.7965 91.7813 14.1769 91.6993 14.6026C91.3907 15.577 91.2364 16.9855 91.2364 18.8282V19.3887H95.6987L95.7617 17.2424C95.8203 16.218 95.63 15.1947 95.2075 14.2618Z" fill="white"/>
<path d="M109.621 29.0214V28.2444H111.557V18.6722C111.557 17.8665 111.529 17.15 111.479 16.5291C111.442 16.0058 111.365 15.4862 111.249 14.9751C111.022 14.1068 110.561 13.6716 109.866 13.6695C108.985 13.6695 108.195 14.3064 107.498 15.5801C106.801 16.8539 106.443 18.6764 106.424 21.0477V28.2444H108.361V29.0214H101.077V28.2444H103.165V13.5294H101.077V12.7365L106.431 12.5836V15.5355C106.845 14.5685 107.556 13.7622 108.459 13.2364C109.237 12.7913 110.115 12.5556 111.01 12.5518C112.359 12.5518 113.333 13.0825 113.929 14.144C114.525 15.2054 114.812 16.7583 114.788 18.8027V28.2444H116.757V29.0214H109.621Z" fill="white"/>
<path d="M126.368 28.617C125.795 29.1966 124.883 29.4863 123.634 29.4863C122.485 29.4863 121.688 29.3016 121.238 28.9291C120.787 28.5565 120.501 27.9037 120.501 26.9707V13.6695H118.533V12.7364H120.501V10.1284L123.82 9.31958V12.7364H126.711V13.6695H123.82V26.9038C123.793 27.2734 123.878 27.6425 124.066 27.961C124.189 28.0766 124.335 28.1647 124.494 28.2196C124.653 28.2744 124.821 28.2948 124.988 28.2794C125.21 28.2924 125.432 28.2574 125.638 28.1766C125.845 28.0959 126.033 27.9713 126.188 27.8113C126.509 27.4777 126.75 27.0748 126.894 26.6331L127.508 26.9516C127.287 27.6027 126.893 28.1792 126.368 28.617Z" fill="white"/>
<path fill-rule="evenodd" clip-rule="evenodd" d="M33.7553 25.3117C34.3568 25.3658 34.7505 25.2384 34.6812 24.7257C34.5206 24.2895 33.9443 24.2544 33.642 23.8978V5.25H31.3903C31.3903 5.25 31.3683 22.4457 31.3714 23.5475C31.3714 24.2576 30.4109 24.1844 30.2063 24.7226C30.137 25.2352 30.5212 25.3594 31.129 25.3085C29.5544 26.06 30.0236 27.7159 30.6219 29.0215C31.8304 28.8564 33.0548 28.8478 34.2655 28.996C34.8575 27.6936 35.3299 26.0568 33.7553 25.3117Z" fill="white"/>
<path d="M33.0243 6.17041H28.9934L28.1557 8.57463H29.2359L29.85 6.81047H30.8105L30.1964 8.57463H31.3269L30.9396 9.68598H29.809L29.1099 11.6921H28.1494L28.8486 9.68598H27.7684L26.8457 12.3354H32.3724L33.1093 10.2273L33.0243 6.17041Z" fill="white"/>
<path d="M29.8125 6.75293L30.1715 7.23059L30.9115 6.75293H29.8125Z" fill="white"/>
<path d="M29.1325 11.7015L28.7735 11.2239L28.0303 11.7015H29.1325Z" fill="white"/>
<path d="M31.3644 8.53638L30.7314 9.08728L30.955 9.74645L31.3644 8.53638Z" fill="white"/>
<path fill-rule="evenodd" clip-rule="evenodd" d="M35.3899 30.8208C35.3766 31.2231 35.2846 31.6188 35.1192 31.985C34.9538 32.3512 34.7183 32.6807 34.4262 32.9543L32.4234 31.1902L29.7277 32.1869C29.5026 31.7816 29.3722 31.3295 29.3467 30.8653C30.3007 30.3618 31.3516 30.0739 32.4265 30.0215C33.4596 30.0696 34.4703 30.3422 35.3899 30.8208Z" fill="white"/>
<path fill-rule="evenodd" clip-rule="evenodd" d="M32.4225 31.1804L30.6055 33.1898C31.1165 33.5614 31.7301 33.7613 32.3595 33.7613C32.989 33.7613 33.6026 33.5614 34.1136 33.1898L32.4225 31.1804Z" fill="white"/>
<path d="M161.119 28.2382H160.206C159.576 28.2382 159.5 28.1554 159.5 27.5281C159.5 24.6208 159.529 21.7134 159.481 18.8092C159.46 17.7477 159.343 16.6904 159.132 15.6503C158.848 14.2524 158.121 13.1028 156.738 12.5869C155.21 11.9756 153.509 11.9756 151.98 12.5869C151.438 12.773 150.958 13.1093 150.596 13.5574C150.234 14.0055 150.003 14.5475 149.93 15.1217C149.861 15.4666 149.91 15.8252 150.071 16.1376C150.231 16.45 150.493 16.6972 150.812 16.8381C151.122 16.9534 151.461 16.9575 151.774 16.8497C152.086 16.7419 152.353 16.5286 152.528 16.2458C152.695 15.9575 152.752 15.6173 152.688 15.2894C152.624 14.9616 152.444 14.6686 152.182 14.4657C151.602 13.9562 151.653 13.5805 152.349 13.2366C152.938 12.9575 153.591 12.8473 154.238 12.9181C154.67 12.9223 155.087 13.0759 155.421 13.3534C155.754 13.631 155.984 14.0157 156.071 14.4434C156.43 15.7586 156.351 17.1088 156.357 18.4621C156.203 18.4972 156.08 18.5258 155.954 18.5481C154.568 18.7685 153.222 19.1979 151.961 19.8219C150.865 20.4046 149.965 21.2007 149.514 22.3949C149.218 23.1506 149.073 23.9583 149.088 24.7711C149.103 25.5839 149.276 26.3856 149.599 27.1301C150.229 28.6267 151.404 29.4515 153.029 29.4324C154.654 29.4133 155.825 28.5726 156.493 27.0568C156.568 26.8849 156.625 26.7065 156.72 26.4486C156.852 26.7925 156.949 27.0664 157.066 27.3339C157.21 27.7378 157.461 28.094 157.792 28.364C158.122 28.634 158.519 28.8074 158.94 28.8656C159.667 28.9643 160.407 28.9643 161.144 28.9961C161.39 28.9961 161.443 28.821 161.459 28.6076C161.475 28.3943 161.368 28.235 161.119 28.2382ZM155.627 27.0727C155.378 27.6776 154.919 28.1693 154.336 28.4548C154.103 28.5569 153.849 28.6006 153.596 28.5821C152.254 28.4866 152.197 26.4709 152.197 26.4709C152.197 26.4709 151.882 23.2133 152.811 21.2166C153.558 19.5958 155.646 19.2391 156.401 19.1627V20.86V22.8725C156.369 24.008 156.215 25.1366 155.942 26.2384C155.871 26.5286 155.765 26.8089 155.627 27.0727Z" fill="white"/>
<path d="M212.972 17.4973V27.458C212.972 28.1809 213.029 28.2382 213.76 28.2318C214.027 28.2318 214.298 28.2318 214.566 28.2318C214.834 28.2318 214.881 28.3783 214.897 28.6108C214.912 28.8433 214.834 28.9993 214.56 28.9929C214.081 28.9802 213.602 28.9738 213.124 28.9738H208.321C207.943 28.9738 207.865 28.8847 207.88 28.5216C207.88 28.2955 207.991 28.2032 208.195 28.2032C208.557 28.2032 208.92 28.2223 209.282 28.2032C209.644 28.1841 209.786 28.0535 209.808 27.6873C209.808 27.6045 209.808 27.5217 209.808 27.4389V9.33248C209.808 8.616 209.732 8.53957 209.023 8.54594L208.217 8.56823C207.931 8.56823 207.902 8.37717 207.902 8.16381C207.902 7.95046 207.965 7.79761 208.217 7.79761C209.687 7.79761 211.156 7.79761 212.626 7.79761C212.846 7.79761 212.941 7.89951 212.941 8.11605V17.4973H212.972Z" fill="white"/>
<path d="M185.739 13.3606C185.169 13.3606 184.655 13.3606 184.142 13.3606C183.868 13.3606 183.802 13.2332 183.799 12.9944C183.796 12.7555 183.871 12.5868 184.155 12.5899C184.665 12.5899 185.178 12.5899 185.729 12.5899C185.729 11.9276 185.748 11.2716 185.729 10.6156C185.706 10.4718 185.735 10.3244 185.81 10.2001C185.885 10.0757 186.002 9.98254 186.139 9.93734C186.91 9.59979 187.66 9.21767 188.428 8.86738C188.822 8.68906 188.907 8.75593 188.904 9.18582C188.904 10.1921 188.904 11.1952 188.904 12.2014V12.6154C189.455 12.6154 189.965 12.6154 190.478 12.6154C190.992 12.6154 191.461 12.6154 191.952 12.5868C192.242 12.5868 192.298 12.7396 192.298 12.9912C192.298 13.2427 192.22 13.3606 191.955 13.3574C191.136 13.3415 190.318 13.3415 189.499 13.3415C189.039 13.3415 188.907 13.4656 188.907 13.9242C188.907 17.9047 188.907 21.8852 188.929 25.8689C188.964 26.5503 189.08 27.225 189.275 27.8782C189.524 28.6679 190.188 28.8845 190.85 28.4164C191.222 28.1535 191.533 27.8124 191.763 27.4165C192.044 26.8784 192.281 26.3182 192.472 25.7415C192.569 25.4835 192.692 25.423 192.944 25.4995C193.196 25.5759 193.259 25.716 193.155 25.9516C192.923 26.5927 192.648 27.2172 192.333 27.8209C192.051 28.2881 191.66 28.6784 191.194 28.9576C190.728 29.2368 190.202 29.3964 189.661 29.4225C189.12 29.4485 188.581 29.3403 188.091 29.1072C187.601 28.8741 187.175 28.5232 186.85 28.0852C186.237 27.2275 185.877 26.2118 185.811 25.1555C185.758 24.6149 185.732 24.0717 185.736 23.5283C185.736 20.2887 185.736 17.0502 185.736 13.8127L185.739 13.3606Z" fill="white"/>
<path d="M181.399 20.2963V27.4898C181.399 28.1267 181.506 28.235 182.127 28.2318C182.419 28.2318 182.712 28.2318 183.002 28.2318C183.292 28.2318 183.336 28.3719 183.336 28.6076C183.336 28.8432 183.27 28.9992 183.002 28.9929C182.734 28.9865 182.442 28.9769 182.161 28.9769C180.363 28.9769 178.562 28.9769 176.764 28.996C176.49 28.996 176.323 28.9451 176.323 28.6076C176.323 28.27 176.433 28.2127 176.716 28.2318C177.057 28.2541 177.397 28.2541 177.734 28.2318C178.071 28.2095 178.228 28.0917 178.247 27.7127C178.247 27.6299 178.247 27.5472 178.247 27.4644V14.1058C178.247 13.4053 178.187 13.3416 177.482 13.3479C177.214 13.3479 176.943 13.3479 176.675 13.3479C176.408 13.3479 176.326 13.2429 176.326 12.9881C176.326 12.7334 176.383 12.5741 176.672 12.5805C177.466 12.5964 178.247 12.6092 179.056 12.6124C179.686 12.6124 180.294 12.6124 180.911 12.5869C181.365 12.5869 181.399 12.606 181.399 13.055V20.2963Z" fill="white"/>
<path d="M181.711 9.70824C181.711 10.0861 181.6 10.4555 181.393 10.7697C181.185 11.0839 180.89 11.3288 180.545 11.4734C180.199 11.618 179.82 11.6559 179.453 11.5822C179.086 11.5084 178.75 11.3265 178.486 11.0593C178.221 10.7921 178.041 10.4516 177.968 10.081C177.896 9.71036 177.933 9.3262 178.076 8.97707C178.219 8.62795 178.461 8.32955 178.772 8.11961C179.083 7.90966 179.448 7.79761 179.822 7.79761C180.323 7.79761 180.803 7.99891 181.158 8.35722C181.512 8.71553 181.711 9.20151 181.711 9.70824Z" fill="white"/>
<path d="M147.291 26.1492C146.976 25.9868 146.903 26.1778 146.796 26.388C145.924 28.1076 144.79 28.789 143.083 28.6553C142.647 28.6383 142.231 28.4605 141.915 28.1553C141.915 28.1553 140.467 27.4707 140.489 20.9268C140.473 15.3413 141.411 13.7937 141.777 13.4052C141.971 13.1776 142.233 13.0191 142.523 12.9531C143.369 12.7442 144.261 12.8434 145.042 13.2333C145.189 13.2949 145.316 13.3985 145.406 13.5313C145.496 13.6642 145.546 13.8206 145.549 13.9816C145.549 14.3 145.326 14.472 145.064 14.6185C144.85 14.7317 144.673 14.9048 144.553 15.1171C144.434 15.3294 144.377 15.5719 144.39 15.8158C144.387 16.0601 144.452 16.3004 144.576 16.5097C144.701 16.719 144.881 16.889 145.096 17.0004C145.314 17.1285 145.562 17.1966 145.815 17.1981C146.068 17.1997 146.316 17.1345 146.536 17.009C146.756 16.8836 146.94 16.7023 147.07 16.483C147.199 16.2636 147.27 16.0139 147.275 15.7585C147.335 15.1828 147.232 14.6017 146.977 14.083C146.723 13.5643 146.328 13.1293 145.839 12.8289C144.28 11.7812 141.814 11.9118 140.221 13.1123C139.15 13.9544 138.382 15.1292 138.035 16.4559C137.321 18.9208 137.228 21.5273 137.765 24.0379C138.006 25.4065 138.599 26.6869 139.484 27.7509C141.292 29.8717 145.804 30.4035 147.473 26.7033C147.602 26.4167 147.558 26.2893 147.291 26.1492Z" fill="white"/>
<path d="M206.576 28.2382H205.663C205.033 28.2382 204.958 28.1554 204.958 27.5281C204.958 24.6208 204.986 21.7134 204.939 18.8092C204.917 17.7477 204.8 16.6904 204.589 15.6503C204.306 14.2524 203.578 13.1028 202.196 12.5869C200.667 11.9756 198.966 11.9756 197.438 12.5869C196.896 12.773 196.416 13.1093 196.054 13.5574C195.691 14.0055 195.46 14.5475 195.388 15.1217C195.318 15.4666 195.368 15.8252 195.528 16.1376C195.689 16.45 195.95 16.6972 196.269 16.8381C196.579 16.9534 196.919 16.9575 197.231 16.8497C197.544 16.7419 197.81 16.5286 197.986 16.2458C198.153 15.9575 198.21 15.6173 198.146 15.2894C198.082 14.9616 197.902 14.6686 197.639 14.4657C197.06 13.9562 197.11 13.5805 197.806 13.2366C198.395 12.9575 199.049 12.8473 199.696 12.9181C200.127 12.9223 200.545 13.0759 200.878 13.3534C201.212 13.631 201.441 14.0157 201.528 14.4434C201.887 15.7586 201.809 17.1088 201.815 18.4621C201.661 18.4972 201.538 18.5258 201.412 18.5481C200.025 18.7685 198.679 19.1979 197.419 19.8219C196.323 20.4046 195.422 21.2007 194.972 22.3949C194.676 23.1506 194.531 23.9583 194.545 24.7711C194.56 25.5839 194.734 26.3856 195.057 27.1301C195.687 28.6267 196.861 29.4515 198.486 29.4324C200.111 29.4133 201.283 28.5726 201.95 27.0568C202.026 26.8849 202.083 26.7065 202.177 26.4486C202.309 26.7925 202.407 27.0664 202.523 27.3339C202.669 27.7399 202.922 28.0976 203.256 28.3678C203.589 28.638 203.989 28.8102 204.413 28.8656C205.14 28.9643 205.88 28.9643 206.617 28.9961C206.863 28.9961 206.917 28.821 206.932 28.6076C206.948 28.3943 206.825 28.235 206.576 28.2382ZM201.084 27.0727C200.836 27.6776 200.376 28.1693 199.793 28.4548C199.56 28.5569 199.306 28.6006 199.053 28.5821C197.712 28.4866 197.655 26.4709 197.655 26.4709C197.655 26.4709 197.34 23.2133 198.269 21.2166C199.015 19.5958 201.103 19.2391 201.859 19.1627V20.86V22.8725C201.829 24.0055 201.678 25.1319 201.409 26.2321C201.336 26.5249 201.227 26.8073 201.084 27.0727Z" fill="white"/>
<path d="M174.669 18.8791C174.535 17.4629 174.151 16.0824 173.536 14.8031C173.134 13.9318 172.492 13.1964 171.687 12.6855C169.851 11.5837 167.984 12.1569 167.067 14.0961C167.033 14.1694 166.995 14.2394 166.96 14.3095L166.885 14.2936C166.885 13.8446 166.885 13.3988 166.885 12.953C166.885 12.6886 166.778 12.5867 166.529 12.5963C166.107 12.5963 165.685 12.6281 165.269 12.6281C164.265 12.6281 163.26 12.6122 162.256 12.5931C161.941 12.5931 161.805 12.6695 161.808 13.0103C161.812 13.351 161.985 13.3701 162.237 13.3606C162.574 13.3606 162.914 13.3606 163.251 13.3606C163.315 13.352 163.381 13.3584 163.443 13.3792C163.505 13.4 163.561 13.4347 163.608 13.4806C163.654 13.5266 163.69 13.5826 163.712 13.6446C163.734 13.7065 163.742 13.7727 163.736 13.8382C163.736 13.9433 163.736 14.0516 163.736 14.1567V35.2023C163.736 35.2978 163.736 35.3934 163.736 35.4857C163.717 35.8583 163.588 36.0016 163.216 36.0111C162.844 36.0207 162.539 36.0111 162.202 35.9793C161.865 35.9474 161.808 36.0939 161.805 36.3773C161.802 36.6607 161.915 36.7499 162.183 36.7499C164.283 36.7499 166.374 36.7499 168.456 36.7499C168.74 36.7499 168.828 36.6257 168.822 36.3646C168.815 36.1035 168.721 35.9634 168.444 35.9825C168.166 36.0016 167.836 36.0111 167.53 36.0143C167.014 36.0143 166.885 35.8838 166.882 35.3774C166.882 32.779 166.882 30.1794 166.882 27.5789C166.882 27.4929 166.897 27.4101 166.916 27.2413C167.042 27.4897 167.121 27.6553 167.209 27.8209C167.745 28.8049 168.535 29.4131 169.672 29.4131C170.535 29.4427 171.38 29.1655 172.062 28.6297C172.996 27.85 173.677 26.8051 174.018 25.63C174.74 23.4591 174.963 21.1503 174.669 18.8791ZM169.946 28.6011H169.924C169.763 28.6635 169.592 28.6958 169.42 28.6966C167.455 28.6966 166.819 25.1524 166.819 20.7802C166.819 16.408 167.54 12.8924 169.414 12.8924H169.584C170.878 12.8924 171.646 16.4367 171.646 20.8057C171.646 24.7225 171.026 27.9801 169.961 28.6011H169.946Z" fill="white"/>
</g>
<defs>
<clipPath id="clip0_107_8341">
<rect width="204.445" height="31.5" fill="white" transform="translate(10.4512 5.25)"/>
</clipPath>
</defs>
</svg>
