<svg width="286" height="286" viewBox="0 0 286 286" fill="none" xmlns="http://www.w3.org/2000/svg">
<g filter="url(#filter0_ddii_107_8252)">
<path fill-rule="evenodd" clip-rule="evenodd" d="M149.457 255.628C188.143 253.058 220.419 229.518 241.33 200.023C259.625 174.217 258.455 142.847 250.534 113.055C242.755 83.7961 228.501 55.0062 199.034 40.944C168.34 26.2958 130.568 26.3128 100.034 41.2323C71.0065 55.4155 60.6127 85.1242 50.5421 113.5C38.6278 147.071 18.1331 183.62 38.9071 213.469C61.2972 245.641 107.484 258.416 149.457 255.628Z" fill="#001C27"/>
</g>
<path d="M211.55 111.606C210.922 110.979 210.176 110.47 209.35 110.118C208.524 109.766 207.618 109.571 206.67 109.571H189.64H172.609H155.779H138.949L140.153 108.366L141.358 107.162L142.651 105.868L143.945 104.574C144.302 104.217 144.62 103.835 144.896 103.432C145.172 103.028 145.406 102.603 145.596 102.16C145.785 101.716 145.93 101.255 146.028 100.779C146.126 100.303 146.176 99.812 146.176 99.3101C146.176 98.8193 146.126 98.3342 146.028 97.8609C145.93 97.3876 145.785 96.9262 145.596 96.4829C145.406 96.0395 145.172 95.6143 144.896 95.2134C144.62 94.8126 144.302 94.4362 143.945 94.0906C143.599 93.7336 143.223 93.4185 142.822 93.1466C142.421 92.8747 141.996 92.6461 141.553 92.462C141.11 92.2779 140.648 92.1385 140.175 92.0451C139.701 91.9517 139.216 91.9043 138.726 91.9043C138.224 91.9043 137.73 91.9517 137.251 92.0451C136.771 92.1385 136.305 92.2779 135.859 92.462C135.413 92.6461 134.986 92.8747 134.585 93.1466C134.183 93.4185 133.807 93.7336 133.461 94.0906L132.112 95.4289L130.762 96.7672L129.413 98.1055L128.063 99.4438L128.019 99.4103L127.974 99.3769L127.929 99.3435L127.885 99.3101C126.803 98.7078 125.682 98.1725 124.532 97.7083C123.382 97.2441 122.202 96.8509 121.003 96.533C119.804 96.2151 118.586 95.9725 117.358 95.8094C116.13 95.6462 114.892 95.5626 113.654 95.5626C112.393 95.5626 111.141 95.6462 109.905 95.8094C108.67 95.9725 107.45 96.2151 106.254 96.533C105.057 96.8509 103.885 97.2441 102.744 97.7083C101.603 98.1725 100.493 98.7078 99.4223 99.3101L99.3776 99.3435L99.3329 99.3769L99.2884 99.4103L99.2439 99.4438L97.8943 98.1055L96.5447 96.7672L95.1952 95.4289L93.8457 94.0906C93.4999 93.7336 93.1235 93.4185 92.7219 93.1466C92.3204 92.8747 91.8938 92.6461 91.4476 92.462C91.0016 92.2779 90.536 92.1385 90.0564 92.0451C89.5769 91.9517 89.0833 91.9043 88.5815 91.9043C88.0795 91.9043 87.586 91.9517 87.1064 92.0451C86.6269 92.1385 86.1612 92.2779 85.7151 92.462C85.2689 92.6461 84.8423 92.8747 84.4408 93.1466C84.0393 93.4185 83.663 93.7336 83.3173 94.0906C82.5923 94.8154 82.0485 95.6518 81.6867 96.544C81.3249 97.4362 81.1451 98.3842 81.1479 99.3322C81.1507 100.28 81.3361 101.228 81.7049 102.121C82.0737 103.013 82.6258 103.849 83.3619 104.574L84.5887 105.823L85.8156 107.073L87.0424 108.322L88.2692 109.571H86.3509H84.4326H82.2912H80.1497C79.2017 109.571 78.2955 109.766 77.4695 110.118C76.6435 110.47 75.8976 110.979 75.2702 111.606C74.6429 112.234 74.134 112.98 73.782 113.806C73.43 114.632 73.2349 115.538 73.2349 116.486V134.275V152.064V169.853V187.642C73.2349 188.59 73.43 189.497 73.782 190.323C74.134 191.149 74.6429 191.895 75.2702 192.522C75.8976 193.149 76.6435 193.658 77.4695 194.01C78.2955 194.362 79.2017 194.557 80.1497 194.557H111.78H143.41H175.04H206.67C207.618 194.557 208.524 194.362 209.35 194.01C210.176 193.658 210.922 193.149 211.55 192.522C212.177 191.895 212.686 191.149 213.038 190.323C213.39 189.497 213.585 188.59 213.585 187.642V169.853V152.064V134.275V116.486C213.585 115.538 213.39 114.632 213.038 113.806C212.686 112.98 212.177 112.234 211.55 111.606ZM212.247 152.064V169.853V187.642C212.247 188.412 212.091 189.145 211.808 189.812C211.526 190.479 211.118 191.08 210.613 191.585C210.108 192.09 209.507 192.498 208.84 192.78C208.173 193.063 207.44 193.219 206.67 193.219H175.04H143.41H111.78H80.1497C79.3801 193.219 78.6467 193.063 77.9796 192.78C77.3125 192.498 76.7116 192.09 76.2069 191.585C75.7022 191.08 75.2938 190.479 75.0115 189.812C74.7293 189.145 74.5732 188.412 74.5732 187.642V169.853V152.064V134.275V116.486C74.5732 115.716 74.7293 114.983 75.0115 114.316C75.2938 113.649 75.7022 113.048 76.2069 112.543C76.7116 112.038 77.3125 111.63 77.9796 111.348C78.6467 111.065 79.3801 110.909 80.1497 110.909H82.2912H84.4326H86.3062H88.1799C87.6557 111.891 87.1929 112.897 86.7907 113.925C86.3885 114.952 86.0469 116.001 85.7652 117.066C85.4836 118.131 85.262 119.213 85.0996 120.307C84.9372 121.402 84.8341 122.509 84.7896 123.624V124.003V124.382V124.761V125.141C84.8341 126.323 84.9456 127.497 85.1247 128.657C85.3039 129.818 85.5506 130.965 85.8657 132.095C86.1807 133.224 86.5641 134.335 87.0165 135.423C87.4689 136.511 87.9904 137.576 88.5815 138.614L88.6038 138.669L88.6262 138.725L88.6485 138.781L88.6708 138.837L88.6373 138.892L88.6038 138.948L88.5703 139.004L88.5368 139.06L87.2431 140.342L85.9493 141.625L84.6556 142.907L83.3619 144.19C82.6258 144.915 82.0737 145.754 81.7049 146.65C81.3361 147.546 81.1507 148.498 81.1479 149.449C81.1451 150.4 81.3249 151.349 81.6867 152.239C82.0485 153.129 82.5923 153.96 83.3173 154.674C83.663 155.031 84.0393 155.349 84.4408 155.625C84.8423 155.901 85.2689 156.135 85.7151 156.325C86.1612 156.514 86.6269 156.659 87.1064 156.757C87.586 156.854 88.0795 156.904 88.5815 156.904C89.0833 156.904 89.5769 156.854 90.0564 156.757C90.536 156.659 91.0016 156.514 91.4476 156.325C91.8938 156.135 92.3204 155.901 92.7219 155.625C93.1235 155.349 93.4999 155.031 93.8457 154.674L95.184 153.347L96.5223 152.019L97.8608 150.692L99.1992 149.365L99.2549 149.387L99.3106 149.41L99.3664 149.432L99.4223 149.454C100.504 150.068 101.619 150.609 102.763 151.075C103.906 151.541 105.077 151.933 106.27 152.248C107.464 152.563 108.679 152.802 109.912 152.961C111.144 153.121 112.393 153.202 113.654 153.202C114.892 153.202 116.13 153.121 117.358 152.961C118.586 152.802 119.804 152.563 121.003 152.248C122.202 151.933 123.382 151.541 124.532 151.075C125.682 150.609 126.803 150.068 127.885 149.454L127.929 149.432L127.974 149.41L128.019 149.387L128.063 149.365L128.119 149.398L128.175 149.432L128.231 149.465L128.287 149.499L129.58 150.793L130.874 152.086L132.168 153.38L133.461 154.674C133.807 155.031 134.183 155.349 134.585 155.625C134.986 155.901 135.413 156.135 135.859 156.325C136.305 156.514 136.771 156.659 137.251 156.757C137.73 156.854 138.224 156.904 138.726 156.904C139.216 156.904 139.701 156.854 140.175 156.757C140.648 156.661 141.11 156.517 141.553 156.33C141.996 156.143 142.421 155.913 142.822 155.643C143.223 155.374 143.599 155.064 143.945 154.719C144.302 154.373 144.62 153.996 144.896 153.595C145.172 153.193 145.406 152.767 145.596 152.321C145.785 151.875 145.93 151.409 146.028 150.929C146.126 150.45 146.176 149.956 146.176 149.454C146.176 148.964 146.126 148.476 146.028 147.998C145.93 147.521 145.785 147.054 145.596 146.605C145.406 146.156 145.172 145.725 144.896 145.32C144.62 144.915 144.302 144.536 143.945 144.19L142.607 142.852L141.269 141.513L139.93 140.175L138.592 138.837L138.625 138.781L138.659 138.725L138.692 138.669L138.726 138.614C139.317 137.576 139.835 136.514 140.283 135.429C140.73 134.345 141.107 133.238 141.413 132.111C141.72 130.985 141.957 129.839 142.126 128.676C142.295 127.513 142.395 126.334 142.429 125.141V124.761V124.382V124.003V123.624C142.395 122.509 142.303 121.402 142.151 120.307C141.999 119.213 141.787 118.131 141.514 117.066C141.241 116.001 140.906 114.952 140.509 113.925C140.111 112.897 139.651 111.891 139.127 110.909H155.868H172.609H189.64H206.67C207.44 110.909 208.173 111.065 208.84 111.348C209.507 111.63 210.108 112.038 210.613 112.543C211.118 113.048 211.526 113.649 211.808 114.316C212.091 114.983 212.247 115.716 212.247 116.486V134.275V152.064ZM138.725 155.337C138.334 155.337 137.947 155.302 137.572 155.223C137.189 155.148 136.818 155.033 136.463 154.887C136.107 154.741 135.76 154.556 135.436 154.343C135.109 154.126 134.801 153.881 134.513 153.604L128.288 147.328L127.731 147.723C126.476 148.485 125.394 149.029 124.281 149.507C123.172 149.977 122.027 150.376 120.859 150.699C119.694 151.019 118.502 151.264 117.298 151.429C116.094 151.595 114.879 151.678 113.655 151.678C112.419 151.678 111.196 151.595 109.988 151.429C108.784 151.264 107.592 151.019 106.427 150.699C105.255 150.376 104.11 149.977 102.997 149.503C101.88 149.029 100.794 148.485 99.7444 147.865L99.2036 147.549L98.4931 147.814L92.7378 153.616C92.4654 153.889 92.1654 154.129 91.8457 154.347C91.5299 154.556 91.1944 154.741 90.8391 154.887C90.4839 155.033 90.1168 155.148 89.7339 155.223C89.3589 155.302 88.972 155.337 88.5812 155.337C88.1786 155.337 87.7839 155.302 87.4089 155.223C87.0299 155.148 86.6589 155.033 86.3115 154.887C85.9602 154.741 85.6286 154.556 85.3128 154.347C85.001 154.133 84.701 153.889 84.4247 153.612C83.8563 153.048 83.4181 152.389 83.122 151.658C82.8339 150.956 82.6878 150.214 82.6878 149.456C82.6878 148.698 82.8339 147.956 83.122 147.253C83.4181 146.519 83.8563 145.864 84.4207 145.299L90.6852 139.082L90.3299 138.533C89.5878 137.306 89.0668 136.283 88.6128 135.23C88.1549 134.176 87.7681 133.09 87.4523 131.981C87.1326 130.872 86.8799 129.739 86.6944 128.594C86.5128 127.445 86.3984 126.281 86.3589 125.112V123.652C86.3984 122.483 86.5128 121.319 86.6944 120.178C86.8799 119.037 87.1326 117.909 87.4523 116.807C87.7681 115.702 88.1549 114.628 88.6128 113.578C89.0668 112.524 89.5878 111.506 90.1681 110.515L90.4878 109.974L90.2194 109.268L84.4207 103.512C83.8602 102.936 83.4181 102.269 83.122 101.531C82.8339 100.816 82.6878 100.066 82.6878 99.3046C82.6878 98.5428 82.8339 97.8046 83.1181 97.1059C83.4141 96.3915 83.8523 95.752 84.4128 95.2072C84.697 94.927 84.9931 94.6783 85.3128 94.4691C85.6365 94.248 85.976 94.0704 86.3312 93.9204C86.6786 93.7744 87.0457 93.6638 87.4286 93.5888C87.8036 93.5099 88.1905 93.4704 88.5812 93.4704C88.976 93.4704 89.3668 93.5099 89.7418 93.5849C90.1168 93.6599 90.4839 93.7704 90.8391 93.9165C91.1944 94.0625 91.5339 94.2441 91.8536 94.4533C92.1733 94.6625 92.4733 94.8954 92.7496 95.1638L98.8325 101.247L99.3891 101.081L99.7444 100.947C100.794 100.327 101.88 99.7783 102.997 99.3086C104.114 98.8309 105.255 98.4322 106.423 98.1086C107.592 97.7888 108.784 97.5441 109.988 97.3783C111.196 97.2125 112.419 97.1296 113.655 97.1296C114.879 97.1296 116.094 97.2125 117.298 97.3783C118.502 97.5441 119.694 97.7888 120.859 98.1086C122.027 98.4322 123.172 98.8309 124.281 99.3046C125.398 99.7783 126.476 100.327 127.514 100.943L127.901 101.089L128.363 101.227L128.769 100.907L134.525 95.152C134.789 94.9072 135.101 94.6665 135.428 94.4573C135.76 94.2441 136.103 94.0665 136.463 93.9165C136.818 93.7704 137.189 93.6599 137.572 93.5849C137.943 93.5138 138.33 93.4704 138.725 93.4704C139.119 93.4704 139.506 93.5138 139.881 93.5849C140.248 93.6599 140.615 93.7704 140.963 93.9165C141.318 94.0625 141.657 94.2401 141.977 94.4533C142.309 94.6665 142.617 94.9033 142.905 95.1717C143.15 95.4283 143.398 95.7362 143.611 96.0599C143.828 96.3875 144.014 96.727 144.164 97.0783C144.306 97.4217 144.417 97.7888 144.492 98.1638C144.571 98.5428 144.61 98.9296 144.61 99.3086C144.61 99.6993 144.571 100.082 144.492 100.457C144.417 100.832 144.302 101.195 144.156 101.547C144.002 101.902 143.821 102.245 143.6 102.573C143.375 102.905 143.118 103.224 142.83 103.524L136.66 109.69L136.94 110.219C137.678 111.506 138.196 112.528 138.65 113.578C139.107 114.632 139.494 115.718 139.81 116.823C140.13 117.928 140.382 119.057 140.568 120.198C140.75 121.339 140.864 122.495 140.903 123.652V125.112C140.864 126.281 140.75 127.445 140.568 128.594C140.382 129.739 140.13 130.872 139.81 131.981C139.494 133.09 139.107 134.176 138.65 135.23C138.196 136.283 137.678 137.306 137.094 138.289L136.771 138.833L137.086 139.544L142.885 145.299C143.157 145.572 143.402 145.868 143.615 146.183C143.832 146.503 144.014 146.843 144.164 147.19C144.306 147.533 144.417 147.901 144.492 148.279C144.571 148.658 144.61 149.053 144.61 149.456C144.61 149.835 144.571 150.218 144.492 150.589C144.417 150.968 144.302 151.335 144.152 151.686C144.002 152.045 143.821 152.389 143.6 152.708C143.39 153.02 143.134 153.324 142.846 153.604C142.561 153.889 142.261 154.133 141.946 154.351C141.638 154.56 141.306 154.741 140.959 154.887C140.611 155.033 140.248 155.148 139.873 155.223C139.498 155.302 139.115 155.337 138.725 155.337Z" fill="white"/>
<path d="M203.84 122.677C203.493 121.856 202.992 121.122 202.36 120.49C201.717 119.855 200.982 119.357 200.169 119.018C199.317 118.659 198.421 118.477 197.501 118.477H181.621C180.701 118.477 179.805 118.659 178.952 119.018C178.139 119.361 177.401 119.859 176.761 120.49C176.13 121.122 175.628 121.856 175.281 122.677C174.918 123.537 174.732 124.441 174.732 125.365V141.202C174.732 142.13 174.918 143.03 175.281 143.886C175.628 144.703 176.126 145.441 176.761 146.077C177.397 146.705 178.131 147.198 178.952 147.545C179.793 147.905 180.693 148.086 181.621 148.086H197.501C198.428 148.086 199.328 147.905 200.169 147.545C200.986 147.202 201.721 146.708 202.36 146.077C202.996 145.441 203.493 144.703 203.84 143.886C204.203 143.041 204.389 142.137 204.389 141.202V125.365C204.389 124.43 204.203 123.526 203.84 122.677ZM202.794 125.365V141.202C202.794 141.928 202.656 142.627 202.388 143.278C202.119 143.918 201.74 144.482 201.259 144.96C200.781 145.441 200.217 145.816 199.581 146.085C198.926 146.357 198.227 146.495 197.501 146.495H181.621C180.894 146.495 180.196 146.357 179.54 146.085C178.905 145.816 178.34 145.441 177.863 144.96C177.377 144.474 176.998 143.91 176.738 143.278C176.465 142.627 176.327 141.928 176.327 141.202V125.365C176.327 124.639 176.465 123.94 176.738 123.281C176.998 122.657 177.377 122.093 177.863 121.603C178.34 121.126 178.905 120.747 179.536 120.478C180.196 120.21 180.898 120.072 181.621 120.072H197.501C198.223 120.072 198.926 120.21 199.581 120.478C200.217 120.747 200.781 121.126 201.263 121.607C201.74 122.085 202.119 122.649 202.388 123.281C202.656 123.94 202.794 124.643 202.794 125.365Z" fill="white"/>
<path d="M104.508 180.326H100.181H95.8532H91.5259H87.1985C87.0758 180.326 86.9586 180.351 86.8519 180.397C86.7452 180.442 86.649 180.507 86.5681 180.588C86.4872 180.669 86.4217 180.765 86.3765 180.872C86.3312 180.979 86.3062 181.096 86.3062 181.218C86.3062 181.341 86.3312 181.455 86.3765 181.558C86.4217 181.66 86.4872 181.751 86.5681 181.826C86.649 181.901 86.7452 181.961 86.8519 182.003C86.9586 182.044 87.0758 182.066 87.1985 182.066H91.5259H95.8532H100.181H104.508C104.631 182.066 104.748 182.044 104.854 182.003C104.961 181.961 105.057 181.901 105.138 181.826C105.219 181.751 105.285 181.66 105.33 181.558C105.375 181.455 105.4 181.341 105.4 181.218C105.4 181.096 105.375 180.979 105.33 180.872C105.285 180.765 105.219 180.669 105.138 180.588C105.057 180.507 104.961 180.442 104.854 180.397C104.748 180.351 104.631 180.326 104.508 180.326Z" fill="white"/>
<path d="M136.227 180.326H131.889H127.55H123.212H118.873C118.75 180.326 118.633 180.351 118.527 180.397C118.42 180.442 118.324 180.507 118.243 180.588C118.162 180.669 118.097 180.765 118.051 180.872C118.006 180.979 117.981 181.096 117.981 181.218C117.981 181.341 118.006 181.455 118.051 181.558C118.097 181.66 118.162 181.751 118.243 181.826C118.324 181.901 118.42 181.961 118.527 182.003C118.633 182.044 118.75 182.066 118.873 182.066H123.212H127.55H131.889H136.227C136.339 182.066 136.447 182.044 136.548 182.003C136.648 181.961 136.74 181.901 136.818 181.826C136.896 181.751 136.961 181.66 137.005 181.558C137.05 181.455 137.075 181.341 137.075 181.218C137.075 181.096 137.05 180.979 137.005 180.872C136.961 180.765 136.896 180.669 136.818 180.588C136.74 180.507 136.648 180.442 136.548 180.397C136.447 180.351 136.339 180.326 136.227 180.326Z" fill="white"/>
<path d="M167.902 180.326H163.564H159.225H154.887H150.548C150.425 180.326 150.308 180.351 150.202 180.397C150.095 180.442 149.999 180.507 149.918 180.588C149.837 180.669 149.771 180.765 149.726 180.872C149.681 180.979 149.656 181.096 149.656 181.218C149.656 181.341 149.681 181.455 149.726 181.558C149.771 181.66 149.837 181.751 149.918 181.826C149.999 181.901 150.095 181.961 150.202 182.003C150.308 182.044 150.425 182.066 150.548 182.066H154.887H159.225H163.564H167.902C168.025 182.066 168.139 182.044 168.242 182.003C168.344 181.961 168.435 181.901 168.51 181.826C168.585 181.751 168.645 181.66 168.686 181.558C168.727 181.455 168.75 181.341 168.75 181.218C168.75 181.096 168.727 180.979 168.686 180.872C168.645 180.765 168.585 180.669 168.51 180.588C168.435 180.507 168.344 180.442 168.242 180.397C168.139 180.351 168.025 180.326 167.902 180.326Z" fill="white"/>
<path d="M199.666 180.326H195.305H190.944H186.583H182.222C182.1 180.326 181.983 180.351 181.876 180.397C181.769 180.442 181.673 180.507 181.592 180.588C181.511 180.669 181.446 180.765 181.4 180.872C181.355 180.979 181.33 181.096 181.33 181.218C181.33 181.341 181.355 181.455 181.4 181.558C181.446 181.66 181.511 181.751 181.592 181.826C181.673 181.901 181.769 181.961 181.876 182.003C181.983 182.044 182.1 182.066 182.222 182.066H186.583H190.944H195.305H199.666C199.777 182.066 199.886 182.044 199.986 182.003C200.087 181.961 200.179 181.901 200.257 181.826C200.335 181.751 200.399 181.66 200.444 181.558C200.488 181.455 200.514 181.341 200.514 181.218C200.514 181.096 200.488 180.979 200.444 180.872C200.399 180.765 200.335 180.669 200.257 180.588C200.179 180.507 200.087 180.442 199.986 180.397C199.886 180.351 199.777 180.326 199.666 180.326Z" fill="white"/>
<path d="M111.691 167.497C111.244 167.497 110.823 167.584 110.443 167.741C110.062 167.899 109.722 168.128 109.438 168.412C109.153 168.696 108.925 169.037 108.767 169.417C108.609 169.798 108.523 170.219 108.523 170.665C108.523 171.089 108.612 171.493 108.773 171.861C108.934 172.229 109.167 172.561 109.454 172.84C109.741 173.119 110.083 173.344 110.461 173.501C110.84 173.657 111.256 173.743 111.691 173.743C112.125 173.743 112.541 173.657 112.919 173.501C113.298 173.344 113.639 173.119 113.927 172.84C114.214 172.561 114.447 172.229 114.608 171.861C114.769 171.493 114.858 171.089 114.858 170.665C114.858 170.219 114.772 169.798 114.614 169.417C114.457 169.037 114.228 168.696 113.943 168.412C113.659 168.128 113.319 167.899 112.938 167.741C112.558 167.584 112.137 167.497 111.691 167.497Z" fill="white"/>
<path d="M95.8531 173.743C96.2769 173.743 96.6868 173.657 97.0632 173.501C97.4396 173.344 97.7826 173.119 98.0726 172.84C98.3626 172.561 98.5996 172.229 98.7641 171.861C98.9286 171.493 99.0207 171.089 99.0207 170.665C99.0207 170.23 98.9314 169.815 98.7704 169.436C98.6093 169.057 98.3764 168.716 98.0892 168.429C97.802 168.141 97.4605 167.909 97.082 167.748C96.7035 167.587 96.2881 167.497 95.8531 167.497C95.407 167.497 94.9859 167.584 94.6052 167.741C94.2245 167.899 93.8843 168.128 93.5999 168.412C93.3155 168.696 93.0869 169.037 92.9294 169.417C92.7719 169.798 92.6855 170.219 92.6855 170.665C92.6855 171.089 92.7747 171.493 92.9357 171.861C93.0967 172.229 93.3295 172.561 93.6168 172.84C93.9039 173.119 94.2455 173.344 94.6241 173.501C95.0026 173.657 95.4181 173.743 95.8531 173.743Z" fill="white"/>
<path d="M127.528 173.743C127.963 173.743 128.378 173.657 128.757 173.501C129.135 173.344 129.477 173.119 129.764 172.84C130.051 172.561 130.284 172.229 130.445 171.861C130.606 171.493 130.695 171.089 130.695 170.665C130.695 170.219 130.609 169.798 130.451 169.417C130.294 169.037 130.065 168.696 129.781 168.412C129.496 168.128 129.156 167.899 128.775 167.741C128.395 167.584 127.974 167.497 127.528 167.497C127.081 167.497 126.66 167.584 126.28 167.741C125.899 167.899 125.559 168.128 125.275 168.412C124.99 168.696 124.762 169.037 124.604 169.417C124.447 169.798 124.36 170.219 124.36 170.665C124.36 171.089 124.45 171.493 124.611 171.861C124.772 172.229 125.004 172.561 125.292 172.84C125.579 173.119 125.92 173.344 126.299 173.501C126.677 173.657 127.093 173.743 127.528 173.743Z" fill="white"/>
<path d="M128.828 124.003C128.828 123.92 128.824 123.841 128.816 123.786C128.813 123.734 128.805 123.679 128.793 123.608C128.769 122.894 128.69 122.191 128.568 121.52C128.445 120.849 128.272 120.166 128.043 119.503C127.826 118.848 127.553 118.2 127.238 117.573C126.93 116.961 126.566 116.349 126.156 115.753C125.891 115.37 125.619 115.007 125.327 114.656C125.035 114.3 124.731 113.965 124.415 113.649C124.092 113.317 123.756 113.009 123.401 112.713C123.042 112.421 122.67 112.137 122.288 111.881C121.66 111.434 120.993 111.04 120.294 110.7C119.619 110.373 118.901 110.088 118.155 109.86C117.42 109.638 116.67 109.473 115.928 109.362C114.432 109.145 112.818 109.149 111.338 109.362C110.584 109.473 109.83 109.638 109.092 109.863C108.353 110.088 107.639 110.373 106.964 110.7C106.265 111.04 105.598 111.438 104.978 111.877C104.596 112.141 104.232 112.425 103.889 112.717C103.534 113.013 103.202 113.321 102.89 113.645C102.571 113.969 102.271 114.304 101.978 114.656C101.69 115.011 101.414 115.37 101.149 115.753C100.743 116.341 100.38 116.953 100.064 117.573C99.7403 118.204 99.4639 118.852 99.2389 119.499C99.006 120.166 98.8284 120.845 98.7021 121.516C98.5718 122.195 98.4929 122.902 98.4653 123.624L98.4495 123.754C98.4416 123.829 98.4337 123.896 98.4297 123.971L98.4258 124.173L98.4297 124.788C98.4376 124.856 98.4416 124.931 98.4455 124.97C98.4495 125.025 98.4574 125.084 98.4653 125.14H98.9745L98.4692 125.156C98.4929 125.874 98.5718 126.584 98.7021 127.271C98.8284 127.95 99.006 128.633 99.2389 129.304C99.4639 129.952 99.7403 130.599 100.064 131.234C100.376 131.85 100.743 132.466 101.142 133.05C101.398 133.433 101.671 133.8 101.959 134.152C102.251 134.507 102.559 134.842 102.878 135.162C103.206 135.486 103.546 135.79 103.909 136.082C104.264 136.366 104.643 136.642 105.018 136.887C105.665 137.341 106.332 137.74 106.999 138.071C107.69 138.411 108.401 138.699 109.111 138.92C109.834 139.149 110.584 139.323 111.342 139.437C112.111 139.552 112.889 139.611 113.655 139.611C114.401 139.611 115.163 139.552 115.928 139.437C116.682 139.323 117.432 139.149 118.159 138.92C118.877 138.699 119.599 138.415 120.294 138.071C120.985 137.732 121.656 137.333 122.276 136.895C122.655 136.638 123.026 136.366 123.377 136.078C123.732 135.786 124.068 135.482 124.392 135.162C124.711 134.838 125.019 134.503 125.303 134.152C125.591 133.8 125.864 133.433 126.109 133.062C126.519 132.482 126.894 131.87 127.218 131.238C127.538 130.615 127.814 129.963 128.039 129.3C128.264 128.641 128.441 127.958 128.568 127.271C128.69 126.592 128.769 125.882 128.797 125.14C128.805 125.084 128.813 125.025 128.813 125.002C128.824 124.919 128.828 124.828 128.828 124.777C128.832 124.702 128.836 124.631 128.836 124.556V124.188C128.836 124.113 128.832 124.038 128.828 124.003ZM127.572 124.556L127.06 124.745C127.06 124.788 127.056 124.832 127.052 124.879L127.024 125.12C127.001 125.744 126.938 126.359 126.831 126.956C126.72 127.571 126.566 128.163 126.381 128.72C126.184 129.3 125.947 129.869 125.674 130.413C125.394 130.962 125.067 131.511 124.707 132.032C124.47 132.363 124.218 132.687 123.953 133.003C123.689 133.315 123.417 133.611 123.124 133.903C122.84 134.191 122.54 134.467 122.228 134.728C121.913 134.992 121.593 135.241 121.261 135.478C120.717 135.853 120.128 136.2 119.517 136.5C118.917 136.792 118.289 137.041 117.649 137.238C117.038 137.432 116.374 137.586 115.692 137.688C114.357 137.886 112.944 137.886 111.618 137.688C110.931 137.586 110.272 137.432 109.648 137.238C109.013 137.041 108.377 136.792 107.769 136.5C107.149 136.196 106.553 135.853 106.02 135.49C105.693 135.241 105.365 134.98 105.046 134.708C104.734 134.444 104.426 134.167 104.13 133.879C103.838 133.595 103.553 133.299 103.289 132.991C103.028 132.687 102.784 132.367 102.559 132.036C102.196 131.519 101.88 130.986 101.607 130.449C101.339 129.916 101.098 129.344 100.901 128.759C100.699 128.159 100.546 127.556 100.439 126.967C100.324 126.348 100.261 125.728 100.234 125.053L100.21 124.875C100.206 124.832 100.202 124.788 100.202 124.745L100.194 124.556L100.198 124.113L99.6968 124.003L99.6951 124.004C99.6951 124.003 99.6951 124.003 99.6951 124.003H99.6968L100.202 124.038L100.242 123.64C100.261 123.024 100.324 122.4 100.439 121.784C100.546 121.2 100.699 120.604 100.897 120.02C101.098 119.44 101.335 118.875 101.607 118.346C101.88 117.809 102.199 117.284 102.567 116.763C102.792 116.42 103.036 116.092 103.293 115.784C103.557 115.469 103.838 115.165 104.134 114.877C104.426 114.588 104.734 114.316 105.046 114.059C105.357 113.799 105.677 113.558 106.001 113.329C106.569 112.934 107.165 112.587 107.769 112.291C108.377 111.995 109.009 111.746 109.648 111.553C110.268 111.363 110.931 111.213 111.61 111.115C112.964 110.917 114.338 110.917 115.692 111.115C116.378 111.213 117.038 111.363 117.657 111.553C118.289 111.746 118.917 111.995 119.517 112.291C120.117 112.587 120.701 112.934 121.265 113.333C121.601 113.558 121.917 113.799 122.228 114.059C122.54 114.316 122.84 114.584 123.128 114.877C123.417 115.161 123.689 115.465 123.953 115.781C124.214 116.096 124.467 116.424 124.707 116.783C125.067 117.277 125.394 117.802 125.674 118.342C125.951 118.883 126.188 119.448 126.381 120.016C126.57 120.577 126.716 121.157 126.831 121.781C126.938 122.384 127.001 123.008 127.028 123.683L127.068 124.556H127.572C127.572 124.556 127.572 124.556 127.572 124.556ZM127.565 124.745L127.567 124.744C127.567 124.745 127.567 124.745 127.567 124.745H127.565ZM98.932 124.188C98.932 124.188 98.932 124.188 98.932 124.188H98.931L98.932 124.188ZM98.937 124.744C98.937 124.744 98.937 124.744 98.937 124.745L98.935 124.745L98.937 124.744ZM98.9673 125.072L98.9666 125.073L98.9673 125.072Z" fill="white"/>
<path d="M139.632 149.136C139.616 149.077 139.601 149.026 139.534 148.872L130.21 139.556L131.453 137.981C132.156 137.053 132.791 136.07 133.344 135.056C133.889 134.045 134.362 132.987 134.741 131.914C135.124 130.852 135.428 129.735 135.645 128.598C135.859 127.477 135.985 126.32 136.02 125.14V123.609C135.985 122.436 135.859 121.272 135.645 120.147C135.428 119.01 135.124 117.893 134.745 116.835C134.362 115.765 133.889 114.711 133.344 113.705C132.799 112.702 132.164 111.719 131.445 110.772L130.21 109.209L139.439 100.027L139.628 99.6283C139.64 99.5849 139.652 99.5375 139.652 99.5375C139.648 99.5375 139.648 99.5415 139.648 99.5415L139.676 99.3086C139.676 99.2573 139.676 99.1744 139.664 99.1546L139.628 98.9928C139.616 98.9454 139.601 98.8981 139.557 98.7757L139.506 98.6415L139.395 98.5546C139.289 98.4717 139.17 98.4086 139.08 98.381C138.839 98.2941 138.559 98.302 138.353 98.377C138.227 98.4244 138.109 98.4994 138.01 98.5981L128.82 107.835L127.214 106.631C126.263 105.889 125.232 105.222 124.159 104.638C123.085 104.061 121.972 103.576 120.843 103.193C119.694 102.802 118.51 102.506 117.326 102.316C114.914 101.914 112.411 101.918 109.984 102.313C108.776 102.51 107.592 102.806 106.467 103.189C105.322 103.572 104.205 104.053 103.155 104.618C102.101 105.174 101.074 105.838 100.095 106.584L98.481 107.827L89.2955 98.6375C89.2047 98.5507 89.1021 98.4796 88.96 98.4086C88.8455 98.3573 88.7192 98.3257 88.5653 98.3178C88.4271 98.3178 88.3047 98.3415 88.2218 98.377C88.0916 98.4204 87.9731 98.4915 87.9258 98.5467C87.7995 98.6375 87.7008 98.7639 87.6416 98.902C87.5824 99.0283 87.5508 99.1704 87.5508 99.3086C87.5508 99.4428 87.5784 99.577 87.6416 99.7191C87.7087 99.8691 87.8074 99.9875 87.8705 100.027L97.0955 109.209L95.8521 110.784C95.1297 111.739 94.4863 112.734 93.9494 113.736C93.3968 114.751 92.9231 115.809 92.5442 116.886C92.1573 117.976 91.8613 119.089 91.656 120.19C91.4429 121.327 91.3205 122.476 91.2889 123.624V125.156C91.3205 126.301 91.4429 127.457 91.656 128.594C91.8573 129.707 92.1573 130.824 92.5442 131.914C92.9231 132.987 93.3968 134.045 93.9455 135.056C94.4902 136.058 95.1337 137.045 95.856 137.985L97.056 139.552L87.8824 148.726C87.7797 148.82 87.7008 148.931 87.6376 149.069C87.5784 149.199 87.5508 149.326 87.5508 149.456C87.5508 149.586 87.5824 149.724 87.6416 149.851C87.7008 149.977 87.7797 150.087 87.9495 150.233C88.0639 150.308 88.1903 150.36 88.3324 150.391C88.4587 150.423 88.585 150.427 88.6797 150.415C88.7981 150.407 88.9008 150.38 89.0074 150.344C89.1021 150.308 89.2284 150.249 89.2955 150.166L98.4771 140.945L100.009 142.185C100.999 142.935 102.045 143.602 103.115 144.166C104.189 144.731 105.31 145.212 106.459 145.599C107.623 145.982 108.807 146.27 109.984 146.456C112.372 146.843 114.926 146.843 117.322 146.456C118.498 146.27 119.682 145.982 120.843 145.595C121.984 145.212 123.097 144.731 124.155 144.166C125.22 143.594 126.251 142.927 127.206 142.185L128.82 140.977L138.057 150.21C138.16 150.293 138.282 150.352 138.412 150.391C138.539 150.427 138.653 150.435 138.76 150.435C138.768 150.435 138.776 150.435 138.784 150.435C138.906 150.427 139.02 150.403 139.107 150.364C139.265 150.305 139.368 150.214 139.431 150.131C139.47 150.087 139.498 150.048 139.506 150.028L139.612 149.827C139.636 149.76 139.656 149.689 139.652 149.677L139.676 149.456C139.676 149.408 139.676 149.333 139.664 149.29L139.632 149.136ZM93.235 125.14V123.648C93.2745 122.697 93.385 121.73 93.5626 120.766C93.7363 119.823 93.9771 118.884 94.2771 117.98C94.581 117.076 94.956 116.176 95.3902 115.311C95.8244 114.451 96.3297 113.61 96.9021 112.793C97.2258 112.303 97.5889 111.806 97.9876 111.32C98.3744 110.847 98.7889 110.393 99.2152 109.97L99.2192 109.966C99.6336 109.548 100.092 109.134 100.573 108.731C101.043 108.34 101.532 107.969 102.03 107.622C103.715 106.449 105.59 105.545 107.592 104.938C109.538 104.349 111.563 104.049 113.607 104.049C113.619 104.049 113.635 104.049 113.647 104.049C115.707 104.049 117.74 104.353 119.694 104.945C121.684 105.553 123.547 106.453 125.236 107.626C125.738 107.965 126.231 108.336 126.709 108.735C127.186 109.138 127.644 109.556 128.066 109.982C128.501 110.42 128.911 110.874 129.302 111.344C129.693 111.814 130.064 112.303 130.415 112.805C130.976 113.618 131.473 114.462 131.899 115.311C132.33 116.176 132.705 117.076 133.013 117.98C133.316 118.884 133.561 119.823 133.739 120.77C133.916 121.722 134.031 122.689 134.07 123.624V125.116C134.031 126.084 133.916 127.059 133.739 128.014C133.561 128.965 133.316 129.905 133.013 130.805C132.713 131.693 132.338 132.593 131.895 133.481C131.473 134.334 130.972 135.186 130.415 136.007C130.048 136.528 129.685 137.006 129.298 137.464C128.899 137.937 128.481 138.395 128.055 138.818C127.62 139.248 127.163 139.662 126.697 140.049C126.195 140.46 125.718 140.815 125.228 141.147C124.403 141.731 123.511 142.26 122.58 142.718C121.656 143.168 120.701 143.551 119.738 143.847C118.77 144.147 117.764 144.376 116.749 144.526C114.705 144.833 112.601 144.833 110.556 144.526C109.538 144.376 108.531 144.147 107.564 143.847C106.597 143.551 105.638 143.168 104.71 142.718C103.77 142.26 102.87 141.731 102.022 141.139C101.544 140.815 101.055 140.452 100.573 140.049C100.095 139.658 99.6415 139.244 99.2152 138.818C98.7889 138.395 98.3744 137.941 97.9876 137.464C97.585 136.982 97.2218 136.493 96.8942 136.007C96.3337 135.198 95.8284 134.345 95.3902 133.481C94.9481 132.597 94.5731 131.697 94.2771 130.805C93.9771 129.905 93.7363 128.965 93.5626 128.018C93.385 127.051 93.2745 126.076 93.235 125.14Z" fill="white"/>
<defs>
<filter id="filter0_ddii_107_8252" x="0" y="-7.62939e-06" width="286" height="286" filterUnits="userSpaceOnUse" color-interpolation-filters="sRGB">
<feFlood flood-opacity="0" result="BackgroundImageFix"/>
<feColorMatrix in="SourceAlpha" type="matrix" values="0 0 0 0 0 0 0 0 0 0 0 0 0 0 0 0 0 0 127 0" result="hardAlpha"/>
<feOffset dx="10" dy="10"/>
<feGaussianBlur stdDeviation="10"/>
<feComposite in2="hardAlpha" operator="out"/>
<feColorMatrix type="matrix" values="0 0 0 0 0 0 0 0 0 0 0 0 0 0 0 0 0 0 0.4 0"/>
<feBlend mode="normal" in2="BackgroundImageFix" result="effect1_dropShadow_107_8252"/>
<feColorMatrix in="SourceAlpha" type="matrix" values="0 0 0 0 0 0 0 0 0 0 0 0 0 0 0 0 0 0 127 0" result="hardAlpha"/>
<feOffset dx="-10" dy="-10"/>
<feGaussianBlur stdDeviation="10"/>
<feComposite in2="hardAlpha" operator="out"/>
<feColorMatrix type="matrix" values="0 0 0 0 0.0900174 0 0 0 0 0.204922 0 0 0 0 0.254167 0 0 0 0.6 0"/>
<feBlend mode="normal" in2="effect1_dropShadow_107_8252" result="effect2_dropShadow_107_8252"/>
<feBlend mode="normal" in="SourceGraphic" in2="effect2_dropShadow_107_8252" result="shape"/>
<feColorMatrix in="SourceAlpha" type="matrix" values="0 0 0 0 0 0 0 0 0 0 0 0 0 0 0 0 0 0 127 0" result="hardAlpha"/>
<feOffset dx="10" dy="10"/>
<feGaussianBlur stdDeviation="10"/>
<feComposite in2="hardAlpha" operator="arithmetic" k2="-1" k3="1"/>
<feColorMatrix type="matrix" values="0 0 0 0 0 0 0 0 0 0.0233333 0 0 0 0 0.0333333 0 0 0 0.6 0"/>
<feBlend mode="normal" in2="shape" result="effect3_innerShadow_107_8252"/>
<feColorMatrix in="SourceAlpha" type="matrix" values="0 0 0 0 0 0 0 0 0 0 0 0 0 0 0 0 0 0 127 0" result="hardAlpha"/>
<feOffset dx="-10" dy="-10"/>
<feGaussianBlur stdDeviation="10"/>
<feComposite in2="hardAlpha" operator="arithmetic" k2="-1" k3="1"/>
<feColorMatrix type="matrix" values="0 0 0 0 0.209028 0 0 0 0 0.313542 0 0 0 0 0.358333 0 0 0 0.4 0"/>
<feBlend mode="normal" in2="effect3_innerShadow_107_8252" result="effect4_innerShadow_107_8252"/>
</filter>
</defs>
</svg>
