<?xml version="1.0" encoding="utf-8"?>
<!-- Generator: Adobe Illustrator 26.0.1, SVG Export Plug-In . SVG Version: 6.00 Build 0)  -->
<svg version="1.1" id="Layer_1" xmlns="http://www.w3.org/2000/svg" xmlns:xlink="http://www.w3.org/1999/xlink" x="0px" y="0px"
	 viewBox="0 0 468 432" style="enable-background:new 0 0 468 432;" xml:space="preserve">
<style type="text/css">
	.st0{clip-path:url(#SVGID_00000096038955957398145960000015227816456467353995_);}
	.st1{fill:#42E8E0;}
	.st2{fill:url(#SVGID_00000041982548629125068270000013933940635061823641_);}
	.st3{fill:url(#SVGID_00000085949803778078785510000006792240001347497120_);}
	.st4{fill:#FFFFFF;}
	.st5{opacity:0.8;fill:url(#SVGID_00000011019096505672505240000016985685542793108369_);enable-background:new    ;}
	.st6{opacity:0.3;}
	.st7{opacity:0.5;fill:url(#SVGID_00000179612731955333606440000015434472794836307096_);enable-background:new    ;}
	.st8{clip-path:url(#SVGID_00000154397844947068095230000009130723413114550937_);}
	.st9{fill:#9FFFF8;}
	.st10{opacity:0.4;fill:#24126A;enable-background:new    ;}
	.st11{fill:url(#SVGID_00000145033343337636266230000010038513598753128075_);}
	.st12{fill:url(#SVGID_00000158025518813518424890000017556179821922173627_);}
	.st13{fill:url(#SVGID_00000083053100524090826210000005073666947883685795_);}
	.st14{opacity:0.4;fill:#42E8E0;enable-background:new    ;}
	.st15{fill:url(#SVGID_00000090278163596234097100000001514178238921755042_);}
	.st16{opacity:0.3;fill:#0F054C;enable-background:new    ;}
	.st17{fill:url(#SVGID_00000003087135342157767860000001359806541609788850_);}
	.st18{fill:#0F054C;}
	.st19{fill:#00F0FF;}
	.st20{opacity:0.4;fill:#333399;enable-background:new    ;}
	.st21{fill:url(#SVGID_00000005242899312426329460000002384918041637002880_);}
	.st22{fill:url(#SVGID_00000106132860778547711990000009186658259857593994_);}
	.st23{fill:url(#SVGID_00000173852069980606177590000014277174683254099381_);}
	.st24{fill:url(#SVGID_00000154405746321454938090000002022570967403651754_);}
	.st25{fill:url(#SVGID_00000122680774438362796430000014308922573558905492_);}
	.st26{fill:url(#SVGID_00000124877311609440659920000001560456844355483271_);}
	.st27{fill:url(#SVGID_00000118382440437729439320000008794731526770111422_);}
	.st28{fill:url(#SVGID_00000026875346280810206830000005086943328738430139_);}
	.st29{fill:url(#SVGID_00000053507354074941590950000001824825560922768793_);}
	.st30{fill:url(#SVGID_00000183226675149488096140000013879208557935284909_);}
	.st31{clip-path:url(#SVGID_00000028323343073772088200000006713652011236974783_);}
	.st32{opacity:0.2;fill:#333399;enable-background:new    ;}
	.st33{fill:#333399;}
	.st34{fill:url(#SVGID_00000067919494326390849140000002729906111798345151_);}
	.st35{fill:url(#SVGID_00000129897365431764474020000014891743968291903658_);}
	.st36{fill:url(#SVGID_00000075846244052798442470000015273732383025115293_);}
	.st37{fill:#FF00CC;fill-opacity:0.4;}
	.st38{fill:url(#SVGID_00000075855903674283652110000013188051203577942704_);}
	.st39{fill:url(#SVGID_00000111163738597039740520000015786488522698808747_);}
	.st40{fill:url(#SVGID_00000100378208530397987630000000658743079137154742_);}
	.st41{fill:url(#SVGID_00000142889524621311738520000004923731165166284956_);}
	.st42{fill:url(#SVGID_00000020401198674906655000000015408252546942065290_);}
	.st43{fill:url(#SVGID_00000049942150045719637420000007496015993616896930_);}
	.st44{fill:url(#SVGID_00000013184376092753480840000012754290316368811653_);}
	.st45{fill:url(#SVGID_00000173868563533114112790000016180357853846435215_);}
	.st46{fill:url(#SVGID_00000176025117363055236760000001683318540285668761_);}
	.st47{fill:url(#SVGID_00000056398485584845795150000004387851884471553963_);}
	.st48{opacity:0.5;fill:url(#SVGID_00000145761411521390312460000015170759861836903087_);enable-background:new    ;}
	.st49{opacity:0.2;}
	.st50{clip-path:url(#SVGID_00000090285502726549923000000003253021925587036296_);}
	.st51{opacity:0.3;fill:#24126A;enable-background:new    ;}
	.st52{fill:url(#SVGID_00000140713607955160325520000015287179053375460787_);}
	.st53{fill:url(#SVGID_00000173852834245765879530000003080851157952261040_);}
	.st54{fill:url(#SVGID_00000046303020556573030800000017811658697546175880_);}
	.st55{fill:url(#SVGID_00000072262628023032503180000001740180727178491531_);}
	.st56{clip-path:url(#SVGID_00000080908950147549760770000011082218245370093698_);}
	.st57{fill:url(#SVGID_00000125597510698032278260000013075993137842373019_);}
	.st58{fill:url(#SVGID_00000044874415876150876620000009449289812417722017_);}
	.st59{fill:url(#SVGID_00000047019209491480934070000005884527400000976011_);}
	.st60{fill:url(#SVGID_00000046336843705295564360000018437910183363331259_);}
	.st61{fill:url(#SVGID_00000016791594606738513370000008880244819537937036_);}
	.st62{fill:url(#SVGID_00000070080276672913454210000014768471570419644818_);}
	.st63{fill:url(#SVGID_00000057848052681082086220000017581123222261364117_);}
	.st64{fill:url(#SVGID_00000165941182202180708220000005445164284388958610_);}
	.st65{fill:url(#SVGID_00000073705899233128542080000002224865773349474446_);}
	.st66{fill:url(#SVGID_00000018956623112833838680000003742210617679174074_);}
	.st67{fill:url(#SVGID_00000093886334224189351200000009732604192389882555_);}
	.st68{fill:url(#SVGID_00000093139690680718935200000014585733647509106319_);}
	.st69{fill:url(#SVGID_00000101792334633633504590000010921610534631560863_);}
	.st70{fill:url(#SVGID_00000095317638409054732560000012638801101342700431_);}
	.st71{fill:url(#SVGID_00000070803388510833797120000007627051769380347538_);}
	.st72{fill:url(#SVGID_00000168815555523966059670000012449088053782291387_);}
	.st73{fill:url(#SVGID_00000076566405250941144540000009113160014545442208_);}
	.st74{fill:url(#SVGID_00000176020564528946796650000001647165134834768319_);}
	.st75{fill:url(#SVGID_00000098917944936815317980000001225991105805191048_);}
	.st76{fill:url(#SVGID_00000048486002930841022070000017913757587986951607_);}
	.st77{fill:url(#SVGID_00000158027744934012376830000010566634288557100219_);}
	.st78{fill:url(#SVGID_00000106840427788519554480000001631798264110887844_);}
	.st79{fill:url(#SVGID_00000090293125510844151490000000881465693609772442_);}
	.st80{fill:url(#SVGID_00000152967798555744048300000006596938528300292265_);}
	.st81{fill:url(#SVGID_00000138550344894740663810000013358811499924675739_);}
	.st82{fill:url(#SVGID_00000065788807404527804540000016781034264470320788_);}
	.st83{fill:url(#SVGID_00000149342696775460782080000003657595082556560058_);}
	.st84{fill:url(#SVGID_00000033367378551393201290000001154767907011874991_);}
	.st85{fill:url(#SVGID_00000183953447249291657410000007924925072037975435_);}
	.st86{fill:url(#SVGID_00000077295840735565708710000000596400872666264453_);}
	.st87{fill:url(#SVGID_00000089553947613387603400000013368502820797478826_);}
	.st88{fill:url(#SVGID_00000116914618954745570050000004336636073209114246_);}
	.st89{fill:url(#SVGID_00000129205150087638357110000014050624075791224737_);}
	.st90{fill:url(#SVGID_00000062900878111804112700000014998157547869186180_);}
	.st91{fill:url(#SVGID_00000134219714129541072590000017584662667037881504_);}
	.st92{fill:url(#SVGID_00000116196585691324968480000008606869778658641297_);}
	.st93{fill:url(#SVGID_00000129197485913914028680000014899897961343304885_);}
	.st94{fill:url(#SVGID_00000179622405821577853340000000493457540005877941_);}
	.st95{fill:url(#SVGID_00000026865241819156251820000007511116734670249385_);}
	.st96{fill:url(#SVGID_00000086655409001453010360000016329832052139842453_);}
	.st97{fill:url(#SVGID_00000051381530072763327150000018403961934083850904_);}
	.st98{fill:url(#SVGID_00000176030512786395833380000011662915670270473098_);}
	.st99{fill:url(#SVGID_00000047765783795757534430000014080552119907595952_);}
	.st100{fill:url(#SVGID_00000163767835494455656530000018164559442262014600_);}
	.st101{fill:url(#SVGID_00000034064428718442397380000005039721222816386233_);}
	.st102{fill:url(#SVGID_00000167371562686969167030000003359674839722128792_);}
	.st103{fill:url(#SVGID_00000013873110958925954970000016170778228894551453_);}
	.st104{fill:url(#SVGID_00000170280821973232929250000004285934778701048755_);}
	.st105{fill:url(#SVGID_00000116921850746279581070000006064049644518183091_);}
	.st106{fill:url(#SVGID_00000051358224438280535630000013850120669412073616_);}
	.st107{fill:url(#SVGID_00000003085755661396820100000006233427082681524866_);}
	.st108{fill:url(#SVGID_00000090293604077401646830000018362720938147095736_);}
	.st109{fill:url(#SVGID_00000181052935080696971190000015768045343492356529_);}
	.st110{fill:url(#SVGID_00000031194709918199215870000002959447938293260207_);}
	.st111{fill:url(#SVGID_00000070835156038903563480000003610074158307913389_);}
	.st112{fill:url(#SVGID_00000127005315109454550820000005892790886443652769_);}
	.st113{fill:url(#SVGID_00000168083301617969385230000010058827935288977315_);}
	.st114{fill:url(#SVGID_00000016041587413729267400000007552409475587283637_);}
	.st115{fill:url(#SVGID_00000080205883054062189130000003201321038067412611_);}
	.st116{fill:url(#SVGID_00000098904598761716918750000002052818073714787760_);}
	.st117{fill:url(#SVGID_00000019656481582988063200000017894497922693959611_);}
	.st118{fill:url(#SVGID_00000109025290034998796700000004829788609061308331_);}
	.st119{fill:url(#SVGID_00000000911034823206850980000015372732293688656038_);}
	.st120{fill:url(#SVGID_00000160898614854866950940000004212646959869046437_);}
	.st121{fill:url(#SVGID_00000121259410074848215450000014158434588872433597_);}
	.st122{fill:url(#SVGID_00000008864394463157026980000009494007879456842904_);}
	.st123{fill:url(#SVGID_00000158716526856655173070000010514647608892234398_);}
	.st124{fill:url(#SVGID_00000013181880099855588410000008513773571432011162_);}
	.st125{fill:url(#SVGID_00000042700832532412038320000013440458097184515767_);}
	.st126{fill:url(#SVGID_00000085938784605048743870000009581982855568367267_);}
	.st127{fill:url(#SVGID_00000061451741331838218170000002971697844596912777_);}
	.st128{fill:url(#SVGID_00000167370948942391581070000013065846405124815758_);}
	.st129{fill:url(#SVGID_00000067948560674847575750000007365156972323674505_);}
	.st130{fill:url(#SVGID_00000051374965130638513590000002921315505897184414_);}
	.st131{fill:url(#SVGID_00000139974391875181130440000004929539806899507330_);}
	.st132{fill:url(#SVGID_00000138533649329193899140000017646995405511012512_);}
	.st133{fill:url(#SVGID_00000183248620202598073570000011540007532021200523_);}
	.st134{fill:url(#SVGID_00000183246082715107704770000010780496535230117027_);}
	.st135{fill:url(#SVGID_00000087378826435891415700000015813135573927055493_);}
	.st136{fill:url(#SVGID_00000094577650983353494360000008954135518793883790_);}
	.st137{fill:url(#SVGID_00000072267780241317860940000003952530945031615107_);}
	.st138{fill:url(#SVGID_00000087382893512603402920000013819908331653205646_);}
	.st139{fill:url(#SVGID_00000043438395885559342170000018042001053522461572_);}
	.st140{fill:url(#SVGID_00000152258850210446805810000007460350855768416695_);}
	.st141{fill:url(#SVGID_00000105407647083395643790000006128838964289741983_);}
	.st142{fill:url(#SVGID_00000149346935652844713190000007090033357733878452_);}
	.st143{fill:url(#SVGID_00000097502300756778026250000018061923223023037602_);}
	.st144{fill:url(#SVGID_00000029003427843881004410000002242759738000834438_);}
	.st145{fill:url(#SVGID_00000011019937460762581060000013926286970553076372_);}
	.st146{fill:url(#SVGID_00000177479809438006231790000010209109617414628001_);}
	.st147{fill:url(#SVGID_00000072260032694818790460000018149620636414608311_);}
	.st148{fill:url(#SVGID_00000169557098890840994680000005791867656401584790_);}
	.st149{fill:url(#SVGID_00000101810381992582364740000004107943825512052906_);}
	.st150{fill:url(#SVGID_00000008828596161098540950000003676260553672600509_);}
	.st151{fill:url(#SVGID_00000103983089108993861380000001750301023678379417_);}
	.st152{fill:url(#SVGID_00000155841282521098166940000004985107653616887179_);}
	.st153{fill:url(#SVGID_00000063604252010228806330000009943888775641982620_);}
	.st154{opacity:0.2;fill:#03002D;enable-background:new    ;}
	.st155{fill:url(#SVGID_00000073687213562732150550000003194784747585844894_);}
	.st156{fill:url(#SVGID_00000134932612013457201300000005758402021796169375_);}
	.st157{fill:url(#SVGID_00000139272806292423910930000006691545971347870856_);}
	.st158{fill:url(#SVGID_00000052100200268934965600000002309346725610077354_);}
	.st159{fill:url(#SVGID_00000049197620292958144990000006492702124134757805_);}
	.st160{fill:url(#SVGID_00000078030242829823963410000001439661937584404914_);}
	.st161{fill:#160A5B;}
	.st162{fill:url(#SVGID_00000094597541816929351640000012164075687544432304_);}
	.st163{fill:url(#SVGID_00000064341459371523235960000004597491794368998573_);}
	.st164{fill:url(#SVGID_00000111149770409572296250000001232405226743464322_);}
	.st165{fill:#24126A;}
	.st166{fill:url(#SVGID_00000046324546210363279590000010215198293704785796_);}
	.st167{fill:url(#SVGID_00000111184001884241337520000013701496307904682903_);}
	.st168{fill:#453C9E;}
	.st169{opacity:0.3;fill:#160A5B;enable-background:new    ;}
	.st170{fill:#F0F6FF;}
	.st171{fill:url(#SVGID_00000163074081505492899800000009688614379500666553_);}
	.st172{fill:url(#SVGID_00000050665154143839835990000007421288069768809386_);}
	.st173{fill:url(#SVGID_00000048460193534372045380000006731087901832395157_);}
	.st174{fill:url(#SVGID_00000082349712423713723190000016838784519159878050_);}
	.st175{fill:#4846A5;}
	.st176{fill:url(#SVGID_00000148647414246720512380000010625831807570969490_);}
	.st177{fill:url(#SVGID_00000178207044967419587920000014681466707904703382_);}
	.st178{fill:url(#SVGID_00000018940665781594899680000010747463080830920613_);}
	.st179{fill:url(#SVGID_00000023972386936890502900000004071600668735310997_);}
	.st180{fill:url(#SVGID_00000015356045189209063840000015019152897998874282_);}
	.st181{fill:url(#SVGID_00000027600016369203473060000012679798607644154268_);}
	.st182{fill:url(#SVGID_00000004504921989290692070000011349331669096076937_);}
	.st183{fill:url(#SVGID_00000118388617614413097670000001949487445202850205_);}
	.st184{fill:url(#SVGID_00000107577276476368900510000014707405912072854674_);}
	.st185{fill:url(#SVGID_00000136405524128067918420000015070424192260593794_);}
	.st186{fill:url(#SVGID_00000167369057692869088560000016884149751249149828_);}
	.st187{fill:url(#SVGID_00000063618744811003524270000001745330788210269827_);}
	.st188{fill:url(#SVGID_00000005263161438413322400000014976515282975172524_);}
	.st189{fill:#001C27;}
</style>
<g>
	<defs>
		<rect id="SVGID_1_" width="468" height="432"/>
	</defs>
	<clipPath id="SVGID_00000119105422613966739010000001303794669228428220_">
		<use xlink:href="#SVGID_1_"  style="overflow:visible;"/>
	</clipPath>
	<g style="clip-path:url(#SVGID_00000119105422613966739010000001303794669228428220_);">
		<g id="Layer_2_00000066473842721959689050000011116967800663990712_">
			<g id="_ÎÓÈ_1_00000005957731153008851230000005847227068383560120_">
				<path class="st1" d="M183.3,326.4c-3,0.1-6-0.6-8.6-2L61.4,259c-2.3-1.3-3.5-3.1-3.5-5.1c0-2.4,1.8-4.8,4.9-6.6l216.1-124.8
					c5.9-3.4,14.8-3.8,19.9-0.8L412,187c2.3,1.3,3.5,3.1,3.5,5.1c0,2.5-1.8,4.8-4.9,6.6L194.5,323.6
					C191.1,325.5,187.2,326.4,183.3,326.4z M174.9,323.9c4.9,2.9,13.7,2.5,19.4-0.8l216.1-124.7c3-1.7,4.7-4,4.7-6.2
					c0-1.8-1.2-3.5-3.3-4.7L298.5,122c-4.9-2.9-13.7-2.5-19.4,0.8L63,247.6c-3,1.7-4.7,4-4.7,6.2c0,1.8,1.2,3.5,3.3,4.7L174.9,323.9
					z"/>
				
					<linearGradient id="SVGID_00000170255783204248712420000001277515015108783232_" gradientUnits="userSpaceOnUse" x1="58.0783" y1="660.6098" x2="415.3115" y2="660.6098" gradientTransform="matrix(1 0 0 -1 0 866)">
					<stop  offset="0" style="stop-color:#BCBEFF"/>
					<stop  offset="0.15" style="stop-color:#A3A7F5"/>
					<stop  offset="0.39" style="stop-color:#8289E8"/>
					<stop  offset="0.61" style="stop-color:#6A73DF"/>
					<stop  offset="0.82" style="stop-color:#5C66D9"/>
					<stop  offset="1" style="stop-color:#5761D7"/>
				</linearGradient>
				<path style="fill:url(#SVGID_00000170255783204248712420000001277515015108783232_);" d="M415.3,162l-16.3,2.8l-100.4-58
					c-5-2.9-13.8-2.5-19.7,0.8L86.8,218.5l-28.8,4.9v10.2l0,0c0,1.9,1.1,3.7,3.4,4.9L174.8,304c5,2.9,13.8,2.5,19.7-0.8l216.1-124.7
					c3.1-1.8,4.8-4.1,4.8-6.3l0,0L415.3,162z"/>
				
					<linearGradient id="SVGID_00000036252548403215331550000011954437071048810938_" gradientUnits="userSpaceOnUse" x1="58.0761" y1="673.3774" x2="415.3506" y2="673.3774" gradientTransform="matrix(1 0 0 -1 0 866)">
					<stop  offset="0" style="stop-color:#E4DDF6"/>
					<stop  offset="0.13" style="stop-color:#C7B0D6"/>
					<stop  offset="0.27" style="stop-color:#AB85B7"/>
					<stop  offset="0.41" style="stop-color:#94619E"/>
					<stop  offset="0.56" style="stop-color:#82468A"/>
					<stop  offset="0.7" style="stop-color:#75327C"/>
					<stop  offset="0.85" style="stop-color:#6E2674"/>
					<stop  offset="1" style="stop-color:#6B2271"/>
				</linearGradient>
				<path style="fill:url(#SVGID_00000036252548403215331550000011954437071048810938_);" d="M174.8,293.8L61.5,228.4
					c-5-2.9-4.4-8,1.4-11.3L279,92.3c5.8-3.4,14.6-3.7,19.7-0.8L412,156.9c5,2.9,4.4,8-1.4,11.3L194.4,293
					C188.6,296.3,179.8,296.7,174.8,293.8z"/>
				<path class="st4" d="M410.5,168.2L194.4,293c-5.8,3.4-14.6,3.7-19.7,0.8L61.5,228.4c-1.7-0.8-3-2.4-3.3-4.3
					c-0.3,2.1,0.8,4.1,3.3,5.6l113.3,65.4c5,2.9,13.8,2.5,19.7-0.8l216-124.8c3.5-2,5.1-4.6,4.8-7.1
					C415,164.5,413.4,166.6,410.5,168.2z"/>
				
					<linearGradient id="SVGID_00000044868753319965224600000013390704368788354445_" gradientUnits="userSpaceOnUse" x1="286.4463" y1="610.0425" x2="186.7394" y2="742.3696" gradientTransform="matrix(1 0 0 -1 0 866)">
					<stop  offset="0" style="stop-color:#42E8E0"/>
					<stop  offset="0.11" style="stop-color:#37B6BF"/>
					<stop  offset="0.22" style="stop-color:#2C87A1"/>
					<stop  offset="0.34" style="stop-color:#235F87"/>
					<stop  offset="0.46" style="stop-color:#1C3F72"/>
					<stop  offset="0.58" style="stop-color:#162561"/>
					<stop  offset="0.71" style="stop-color:#121355"/>
					<stop  offset="0.85" style="stop-color:#10084E"/>
					<stop  offset="1" style="stop-color:#0F054C"/>
				</linearGradient>
				
					<path style="opacity:0.8;fill:url(#SVGID_00000044868753319965224600000013390704368788354445_);enable-background:new    ;" d="
					M183.2,290.7c-2.9,0.1-5.8-0.6-8.4-1.9L65.6,225.6c-2-0.9-3.3-2.9-3.5-5.1c0-2.4,1.8-4.7,4.8-6.5L279,91.6
					c5.7-3.3,14.4-3.7,19.4-0.8l109.3,63.1c2,0.9,3.3,2.9,3.5,5.1c0,2.4-1.8,4.7-4.8,6.5L194.2,287.9
					C190.8,289.8,187.1,290.7,183.2,290.7z M175.2,288.1c4.8,2.8,13.1,2.4,18.7-0.8l212-122.4c2.8-1.6,4.5-3.8,4.5-5.9
					c-0.1-1.9-1.3-3.7-3.1-4.5L298,91.5c-4.8-2.8-13.1-2.5-18.7,0.8L67.3,214.7c-2.8,1.6-4.5,3.8-4.5,5.9c0.1,1.9,1.3,3.7,3.1,4.5
					L175.2,288.1z"/>
				<g class="st6">
					
						<radialGradient id="SVGID_00000152249283316663076710000002850832625951477174_" cx="184.343" cy="655.5933" r="279.6161" gradientTransform="matrix(1 0 0 -1 0 866)" gradientUnits="userSpaceOnUse">
						<stop  offset="0" style="stop-color:#42E8E0"/>
						<stop  offset="0.11" style="stop-color:#37B6BF"/>
						<stop  offset="0.22" style="stop-color:#2C87A1"/>
						<stop  offset="0.34" style="stop-color:#235F87"/>
						<stop  offset="0.46" style="stop-color:#1C3F72"/>
						<stop  offset="0.58" style="stop-color:#162561"/>
						<stop  offset="0.71" style="stop-color:#121355"/>
						<stop  offset="0.85" style="stop-color:#10084E"/>
						<stop  offset="1" style="stop-color:#0F054C"/>
					</radialGradient>
					
						<path style="opacity:0.5;fill:url(#SVGID_00000152249283316663076710000002850832625951477174_);enable-background:new    ;" d="
						M175,288.4L65.7,225.3c-4.9-2.8-4.3-7.7,1.4-11L279.2,91.9c5.6-3.2,14.1-3.6,19-0.8l109.3,63.1c4.9,2.8,4.3,7.7-1.4,11
						L194,287.6C188.4,290.9,179.9,291.2,175,288.4z"/>
					<g>
						<defs>
							<path id="SVGID_00000036932751926048018310000010446152036595670920_" d="M175,288.4L65.7,225.3c-4.9-2.8-4.3-7.7,1.4-11
								L279.2,91.9c5.6-3.2,14.1-3.6,19-0.8l109.3,63.1c4.9,2.8,4.3,7.7-1.4,11L194,287.6C188.4,290.9,179.9,291.2,175,288.4z"/>
						</defs>
						<clipPath id="SVGID_00000170980389183835389250000015579021332931202944_">
							<use xlink:href="#SVGID_00000036932751926048018310000010446152036595670920_"  style="overflow:visible;"/>
						</clipPath>
						<g style="clip-path:url(#SVGID_00000170980389183835389250000015579021332931202944_);">
							<path class="st1" d="M108.2,220.4v79.9l0,0c0.1,2,1.4,3.8,3.2,4.6l66.4,38.3c4.8,2.8,13.1,2.5,18.6-0.8l0,0
								c3.1-1.8,4.6-4.1,4.6-6.3l0,0v-79.9L108.2,220.4z"/>
							<path class="st9" d="M177.8,263.3L111.4,225c-4.8-2.8-4.2-7.6,1.3-10.8l0,0c5.5-3.2,13.9-3.5,18.6-0.8l66.4,38.3
								c4.8,2.8,4.2,7.6-1.3,10.8l0,0C190.9,265.7,182.6,266,177.8,263.3z"/>
						</g>
					</g>
				</g>
				<path class="st10" d="M177.8,263.3L111.4,225c-4.8-2.8-4.2-7.6,1.3-10.8l0,0c5.5-3.2,13.9-3.5,18.6-0.8l66.4,38.3
					c4.8,2.8,4.2,7.6-1.3,10.8l0,0C190.9,265.7,182.6,266,177.8,263.3z"/>
				
					<linearGradient id="SVGID_00000147180872723577602620000004619252125506803591_" gradientUnits="userSpaceOnUse" x1="108.1904" y1="677.7538" x2="200.9725" y2="677.7538" gradientTransform="matrix(1 0 0 -1 0 866)">
					<stop  offset="0" style="stop-color:#00F0FF"/>
					<stop  offset="1" style="stop-color:#333399"/>
				</linearGradient>
				<path style="fill:url(#SVGID_00000147180872723577602620000004619252125506803591_);" d="M108.2,125.9v79.9l0,0
					c0.1,2,1.4,3.8,3.2,4.7l66.4,38.3c4.8,2.8,13.1,2.5,18.6-0.8l0,0c3.1-1.8,4.6-4.1,4.6-6.2l0,0v-79.9L108.2,125.9z"/>
				
					<linearGradient id="SVGID_00000086657475614027068230000001038144328834812293_" gradientUnits="userSpaceOnUse" x1="108.1887" y1="722.1039" x2="200.9789" y2="722.1039" gradientTransform="matrix(1 0 0 -1 0 866)">
					<stop  offset="0" style="stop-color:#333399"/>
					<stop  offset="1" style="stop-color:#00F0FF"/>
				</linearGradient>
				<path style="fill:url(#SVGID_00000086657475614027068230000001038144328834812293_);" d="M177.8,168.8l-66.4-38.3
					c-4.8-2.8-4.2-7.6,1.3-10.8l0,0c5.5-3.2,13.9-3.5,18.6-0.8l66.4,38.3c4.8,2.8,4.2,7.6-1.3,10.8l0,0
					C190.9,171.2,182.6,171.6,177.8,168.8z"/>
				
					<linearGradient id="SVGID_00000080898653666308670180000018152348432445193609_" gradientUnits="userSpaceOnUse" x1="119.0324" y1="750.97" x2="190.1394" y2="750.97" gradientTransform="matrix(1 0 0 -1 0 866)">
					<stop  offset="0" style="stop-color:#00F0FF"/>
					<stop  offset="1" style="stop-color:#333399"/>
				</linearGradient>
				<path style="fill:url(#SVGID_00000080898653666308670180000018152348432445193609_);" d="M184.4,163.6c-3.2,0-5.7-2.5-5.7-5.7
					c0,0,0,0,0,0v-35.4c0-12.1-8.9-27.4-19.3-33.5l-15.2-8.8c-4-2.3-7.7-2.9-10-1.6c-2.3,1.3-3.6,4.8-3.6,9.4v35.5
					c0,3.2-2.6,5.7-5.7,5.7c-3.2,0-5.7-2.6-5.7-5.7c0,0,0,0,0,0V88c0-9,3.3-15.9,9.4-19.3c6-3.5,13.7-2.9,21.4,1.6l15.2,8.8
					c14.1,8.1,25.1,27.2,25.1,43.4v35.5C190.1,161.1,187.6,163.6,184.4,163.6z"/>
				<path class="st10" d="M285.3,208.9l-75.6-43.7c-5.1-3-4.5-8.2,1.5-11.6l0,0c5.9-3.4,14.9-3.8,20.1-0.8l75.7,43.7
					c5.2,3,4.5,8.2-1.4,11.6l0,0C299.5,211.5,290.5,211.9,285.3,208.9z"/>
				<path class="st14" d="M285.3,203.5l-75.6-43.7c-5.1-3-4.5-8.2,1.5-11.6l0,0c5.9-3.4,14.9-3.8,20.1-0.8l75.7,43.7
					c5.2,3,4.5,8.2-1.4,11.6l0,0C299.5,206.1,290.5,206.5,285.3,203.5z"/>
				<path class="st1" d="M294,205.8c-3.1,0.1-6.1-0.6-8.8-2L209.5,160c-2.3-1.3-3.6-3.2-3.6-5.3c0-2.5,1.8-4.9,5-6.8
					c6-3.5,15.1-3.9,20.3-0.8l75.7,43.7c2.3,1.3,3.6,3.2,3.6,5.2c0,2.5-1.8,4.9-5,6.8C302,204.8,298.1,205.8,294,205.8z
					 M285.4,203.3c5.1,2.9,14,2.5,19.9-0.8c3.1-1.8,4.8-4.1,4.8-6.4c0-1.9-1.2-3.6-3.4-4.8l-75.7-43.6c-5.1-2.9-14-2.5-19.9,0.8
					c-3,1.8-4.8,4.1-4.8,6.4c0,1.9,1.2,3.6,3.4,4.8L285.4,203.3z"/>
				<path class="st14" d="M299.1,199.4c-2,1-4.4,1-6.4,0c-1.8-1-1.8-2.7,0-3.7c2-1,4.4-1,6.4,0C300.8,196.7,300.8,198.4,299.1,199.4
					z"/>
				<path class="st1" d="M295.9,200.3c-1.1,0-2.3-0.2-3.3-0.8c-0.8-0.4-1.3-1.1-1.4-2c0.1-0.9,0.6-1.6,1.4-2c2.1-1,4.5-1,6.6,0
					c0.8,0.4,1.3,1.1,1.4,2c-0.1,0.9-0.6,1.6-1.4,2C298.2,200.1,297,200.4,295.9,200.3z M295.9,195.1c-1.1,0-2.2,0.2-3.1,0.7
					c-0.7,0.3-1.2,1-1.2,1.7c0.1,0.7,0.5,1.4,1.2,1.7c2,1,4.3,1,6.2,0c0.7-0.3,1.2-1,1.2-1.7c-0.1-0.7-0.5-1.4-1.2-1.7
					C298,195.4,297,195.1,295.9,195.1z"/>
				<path class="st14" d="M288.4,193.2c-2,1-4.4,1-6.4,0c-1.8-1-1.8-2.7,0-3.7c2-1,4.4-1,6.4,0C290.2,190.5,290.2,192.2,288.4,193.2
					z"/>
				<path class="st1" d="M285.2,192.1c-1.1,0-2.3-0.2-3.3-0.8c-0.8-0.4-1.3-1.1-1.4-2c0.1-0.9,0.6-1.6,1.4-2c2.1-1,4.5-1,6.6,0
					c0.8,0.4,1.3,1.1,1.4,2c-0.1,0.9-0.6,1.6-1.4,2l0,0C287.5,191.9,286.4,192.1,285.2,192.1z M285.2,186.9c-1.1,0-2.2,0.2-3.1,0.7
					c-0.7,0.3-1.2,1-1.2,1.7c0.1,0.7,0.5,1.4,1.2,1.7c2,1,4.3,1,6.2,0l0,0c0.7-0.3,1.2-1,1.2-1.7c-0.1-0.7-0.5-1.4-1.2-1.7
					C287.4,187.1,286.3,186.9,285.2,186.9z"/>
				<path class="st1" d="M257.7,169.8c-1.1,0-2.3-0.2-3.3-0.8c-1.1-0.4-1.7-1.6-1.3-2.7c0.2-0.6,0.7-1.1,1.3-1.3c2.1-1,4.5-1,6.6,0
					c1.1,0.4,1.7,1.6,1.3,2.7c-0.2,0.6-0.7,1.1-1.3,1.3l0,0C259.9,169.5,258.8,169.8,257.7,169.8z M257.7,164.6
					c-1.1,0-2.2,0.2-3.1,0.7c-0.7,0.3-1.2,1-1.2,1.7c0.1,0.7,0.5,1.4,1.2,1.7c2,1,4.3,1,6.2,0l0,0c0.7-0.3,1.2-1,1.2-1.7
					c-0.1-0.7-0.5-1.4-1.2-1.7C259.8,164.8,258.7,164.5,257.7,164.6L257.7,164.6z"/>
				<path class="st14" d="M260.8,177.8c-2,1-4.4,1-6.4,0c-1.8-1-1.8-2.7,0-3.7c2-1,4.4-1,6.4,0C262.6,175.1,262.6,176.7,260.8,177.8
					z"/>
				<path class="st1" d="M247,158.3c-1.1,0-2.3-0.2-3.3-0.8c-1.1-0.4-1.7-1.6-1.3-2.7c0.2-0.6,0.7-1.1,1.3-1.3c2.1-1,4.5-1,6.6,0
					c1.1,0.4,1.7,1.6,1.3,2.7c-0.2,0.6-0.7,1-1.3,1.3C249.3,158,248.1,158.3,247,158.3z M247,153.1c-1.1,0-2.2,0.2-3.1,0.7
					c-0.7,0.3-1.2,1-1.2,1.7c0.1,0.7,0.5,1.4,1.2,1.7c2,1,4.3,1,6.2,0l0,0c0.7-0.3,1.2-1,1.2-1.7c-0.1-0.7-0.5-1.4-1.2-1.7
					C249.1,153.3,248,153,247,153.1z"/>
				<path class="st14" d="M250.2,172.1c-2,1-4.4,1-6.4,0c-1.8-1-1.8-2.7,0-3.7c2-1,4.4-1,6.4,0C251.9,169.4,251.9,171,250.2,172.1z"
					/>
				<path class="st1" d="M236.3,144.4c-1.1,0-2.3-0.2-3.3-0.8c-1.1-0.4-1.7-1.6-1.3-2.7c0.2-0.6,0.7-1.1,1.3-1.3c2.1-1,4.5-1,6.6,0
					c1.1,0.4,1.7,1.6,1.3,2.7c-0.2,0.6-0.7,1.1-1.3,1.3l0,0C238.6,144.1,237.5,144.4,236.3,144.4z M236.3,139.2
					c-1.1,0-2.2,0.2-3.1,0.7c-0.9,0.3-1.5,1.3-1.2,2.2c0.2,0.5,0.6,1,1.2,1.2c2,1,4.3,1,6.2,0l0,0c0.9-0.3,1.5-1.3,1.2-2.2
					c-0.2-0.5-0.6-1-1.2-1.2C238.5,139.4,237.4,139.1,236.3,139.2z"/>
				<path class="st14" d="M239.3,166.2c-2,1-4.4,1-6.4,0c-1.8-1-1.8-2.7,0-3.7c2-1,4.4-1,6.4,0C241.1,163.5,241.1,165.2,239.3,166.2
					z"/>
				<path class="st14" d="M269.8,179.1l9.3,5.3c1.5,0.9,1.3,2.5-0.4,3.4l0,0c-1.8,1-4,1.1-6,0.3l-9.3-5.4c-1.5-0.9-1.3-2.5,0.4-3.4
					l0,0C265.7,178.4,267.9,178.3,269.8,179.1z"/>
				<path class="st1" d="M275.3,184.6c-0.9,0-1.9-0.2-2.7-0.6l-9.3-5.3c-0.6-0.3-1.1-0.9-1.1-1.6c0.1-0.9,0.7-1.7,1.6-2.1
					c1.9-1.1,4.2-1.1,6.2-0.2l9.3,5.3c0.6,0.3,1.1,0.9,1.1,1.6c-0.1,0.9-0.7,1.7-1.6,2.1C277.7,184.3,276.5,184.6,275.3,184.6z
					 M267.2,174.3c-1.2,0-2.3,0.3-3.3,0.8c-0.8,0.3-1.3,1-1.4,1.9c0,0.6,0.4,1.1,0.9,1.3l9.3,5.3c1.9,0.8,4,0.8,5.8-0.2
					c0.7-0.3,1.3-1,1.4-1.8c0-0.6-0.4-1.1-0.9-1.4l-9.3-5.3C269,174.6,268.1,174.4,267.2,174.3L267.2,174.3z"/>
				<path class="st10" d="M384.1,164.7c-1.9,1-4.1,1-6,0c-1.7-1-1.7-2.5,0-3.5c1.9-1,4.1-1,6,0C385.8,162.2,385.8,163.8,384.1,164.7
					z"/>
				<path class="st10" d="M361,147.9l11.8,6.8c1.4,0.8,1.2,2.3-0.4,3.2l0,0c-1.7,1-3.8,1.1-5.6,0.2l-11.8-6.8
					c-1.4-0.8-1.2-2.3,0.4-3.3l0,0C357.1,147.2,359.2,147.1,361,147.9z"/>
				<path class="st10" d="M294.6,108.8l11.9,6.9c1.4,0.8,1.2,2.3-0.4,3.2l0,0c-1.7,1-3.8,1.1-5.6,0.2l-11.8-6.8
					c-1.4-0.8-1.2-2.3,0.4-3.2l0,0C290.7,108.1,292.8,108,294.6,108.8z"/>
				<path class="st1" d="M384.1,160.5c-1.9,1-4.1,1-6,0c-1.7-1-1.7-2.5,0-3.5c1.9-1,4.1-1,6,0C385.8,158,385.8,159.5,384.1,160.5z"
					/>
				<path class="st1" d="M361,143.7l11.8,6.8c1.4,0.8,1.2,2.3-0.4,3.2l0,0c-1.7,1-3.8,1.1-5.6,0.2l-11.8-6.8
					c-1.4-0.8-1.2-2.3,0.4-3.2l0,0C357.1,143,359.2,142.9,361,143.7z"/>
				<path class="st1" d="M294.6,104.6l11.8,6.8c1.4,0.8,1.2,2.3-0.4,3.3l0,0c-1.7,1-3.8,1-5.6,0.2l-11.8-6.8
					c-1.4-0.8-1.2-2.3,0.4-3.2l0,0C290.7,103.8,292.8,103.7,294.6,104.6z"/>
				<g class="st6">
					
						<linearGradient id="SVGID_00000116925838799270266170000017337451643849545631_" gradientUnits="userSpaceOnUse" x1="396.7683" y1="588.6139" x2="450.4564" y2="557.6273" gradientTransform="matrix(1 0 0 -1 0 866)">
						<stop  offset="0" style="stop-color:#BCBEFF"/>
						<stop  offset="0.23" style="stop-color:#AAADF8"/>
						<stop  offset="0.68" style="stop-color:#7C83E5"/>
						<stop  offset="1" style="stop-color:#5761D7"/>
					</linearGradient>
					<path style="fill:url(#SVGID_00000116925838799270266170000017337451643849545631_);" d="M457.7,295v-5.9l-1.6-0.9
						c-0.5,2.8-3.7,4.6-6.5,5L431,304.1l-8.1,2.9l-26-13.4l0.6-0.3c-2.2-1-3.4-3.4-4.6-5.6l-1.7,1l-1,0.3v6l0,0
						c0.1,1.4,1,2.6,2.3,3.2l26,15c3.5,1.8,7.6,1.8,11.1,0l26-15c1.3-0.6,2.1-1.8,2.3-3.1L457.7,295L457.7,295z"/>
					<path class="st16" d="M449.6,293.2L431,304.1l-7.1,2.6v8c1.9,0,3.8-0.4,5.5-1.3l26-15c1.3-0.6,2.1-1.8,2.3-3.1V295l0,0v-5.9
						l-1.5-0.8h-0.1C455.5,291,452.3,292.9,449.6,293.2z"/>
					
						<linearGradient id="SVGID_00000130623576053789659370000002589930176972128169_" gradientUnits="userSpaceOnUse" x1="390.0462" y1="576.9117" x2="457.7105" y2="576.9117" gradientTransform="matrix(1 0 0 -1 0 866)">
						<stop  offset="0" style="stop-color:#E9E9FD"/>
						<stop  offset="0.36" style="stop-color:#D3D2F9"/>
						<stop  offset="0.71" style="stop-color:#C5C4F7"/>
						<stop  offset="1" style="stop-color:#C0BFF6"/>
					</linearGradient>
					<path style="fill:url(#SVGID_00000130623576053789659370000002589930176972128169_);" d="M418.4,307.3l-26-15
						c-3.1-1.8-3.1-4.6,0-6.4l26-15c3.5-1.8,7.6-1.8,11.1,0l26,15c3,1.8,3,4.6,0,6.4l-26,15C425.9,309.1,421.8,309.1,418.4,307.3z"
						/>
					<g class="st6">
						<path class="st18" d="M418.4,307.3l-26-15c-3.1-1.8-3.1-4.6,0-6.4l26-15c3.5-1.8,7.6-1.8,11.1,0l26,15c3,1.8,3,4.6,0,6.4
							l-26,15C425.9,309.1,421.8,309.1,418.4,307.3z"/>
					</g>
				</g>
				<path class="st19" d="M423.9,288.3c-1.7,0-3.4-0.4-4.9-1.2l-26-15c-1.6-0.6-2.5-2.4-1.9-4c0.3-0.9,1-1.6,1.9-1.9l26-15
					c3.1-1.6,6.7-1.6,9.8,0l26,15c1.6,0.6,2.5,2.4,1.9,4c-0.3,0.9-1,1.6-1.9,1.9l-26,15C427.3,287.9,425.6,288.3,423.9,288.3z
					 M423.9,250.5c-1.6,0-3.2,0.4-4.7,1.1l-26,15c-1,0.5-1.8,1.4-1.9,2.6c0.1,1.1,0.8,2.1,1.9,2.6l26,15c2.9,1.5,6.4,1.5,9.3,0
					l26-15c1.4-0.5,2.2-2,1.7-3.4c-0.3-0.8-0.9-1.5-1.7-1.7l-26-15C427.1,250.8,425.5,250.4,423.9,250.5z"/>
				<path class="st20" d="M457.7,263.4v-8.9l-1.6-0.9c-0.5,2.8-3.7,4.6-6.5,4.9l-18.6,11l-8.1,2.9l-26-13.4l0.6-0.3
					c-2.2-1-3.4-3.4-4.6-5.6l-1.7,1l-1,0.3v9.1l0,0c0.1,1.4,1,2.6,2.3,3.2l26,15c3.5,1.8,7.6,1.8,11.1,0l26-15
					c1.3-0.6,2.1-1.8,2.3-3.1L457.7,263.4L457.7,263.4z"/>
				
					<linearGradient id="SVGID_00000076574110009860932450000003665411835708863922_" gradientUnits="userSpaceOnUse" x1="396.7651" y1="628.1322" x2="450.4438" y2="597.1387" gradientTransform="matrix(1 0 0 -1 0 866)">
					<stop  offset="0" style="stop-color:#BCBEFF"/>
					<stop  offset="0.23" style="stop-color:#AAADF8"/>
					<stop  offset="0.68" style="stop-color:#7C83E5"/>
					<stop  offset="1" style="stop-color:#5761D7"/>
				</linearGradient>
				<path style="fill:url(#SVGID_00000076574110009860932450000003665411835708863922_);" d="M457.7,255.5v-5.9l-1.6-0.9
					c-0.5,2.8-3.7,4.6-6.5,5L431,264.6l-8.1,2.9l-26-13.4l0.6-0.4c-2.2-1-3.4-3.4-4.6-5.6l-1.7,1l-1,0.3v6l0,0
					c0.1,1.4,1,2.6,2.3,3.2l26,15c3.5,1.8,7.6,1.8,11.1,0l26-15c1.3-0.6,2.1-1.8,2.3-3.1L457.7,255.5L457.7,255.5z"/>
				<path class="st16" d="M449.6,253.7L431,264.6l-7.1,2.5v8c1.9,0,3.8-0.4,5.5-1.3l26-15c1.3-0.6,2.1-1.8,2.3-3.1v-0.1l0,0v-5.9
					l-1.5-0.8H456C455.5,251.5,452.3,253.3,449.6,253.7z"/>
				
					<linearGradient id="SVGID_00000141434722509725591850000004446888795246893195_" gradientUnits="userSpaceOnUse" x1="382.6883" y1="617.7797" x2="441.0949" y2="615.8967" gradientTransform="matrix(1 0 0 -1 0 866)">
					<stop  offset="0" style="stop-color:#00F0FF"/>
					<stop  offset="1" style="stop-color:#333399"/>
				</linearGradient>
				<path style="fill:url(#SVGID_00000141434722509725591850000004446888795246893195_);" d="M418.4,267.8l-26-15
					c-3.1-1.8-3.1-4.6,0-6.4l26-15.1c3.5-1.8,7.6-1.8,11.1,0l26,15c3,1.8,3,4.6,0,6.4l-26,15C425.9,269.5,421.8,269.5,418.4,267.8z"
					/>
				<path class="st4" d="M455.4,252.8l-26,15c-3.5,1.8-7.6,1.8-11.1,0l-26-15c-1.1-0.5-2-1.6-2.3-2.8c-0.2,1.2,0.6,2.6,2.3,3.6
					l26,15c3.5,1.8,7.6,1.8,11.1,0l26-15.1c1.7-1,2.5-2.3,2.3-3.6C457.4,251.2,456.6,252.2,455.4,252.8z"/>
				<g class="st6">
					
						<linearGradient id="SVGID_00000156580245920240559140000004853947850750268594_" gradientUnits="userSpaceOnUse" x1="296.3139" y1="537.6595" x2="349.9703" y2="506.684" gradientTransform="matrix(1 0 0 -1 0 866)">
						<stop  offset="0" style="stop-color:#BCBEFF"/>
						<stop  offset="0.23" style="stop-color:#AAADF8"/>
						<stop  offset="0.68" style="stop-color:#7C83E5"/>
						<stop  offset="1" style="stop-color:#5761D7"/>
					</linearGradient>
					<path style="fill:url(#SVGID_00000156580245920240559140000004853947850750268594_);" d="M357.2,346v-5.9l-1.6-0.9
						c-0.5,2.8-3.7,4.6-6.5,5l-18.6,10.9l-8.1,2.9l-26-13.5l0.6-0.3c-2.2-1-3.4-3.4-4.6-5.6l-1.7,1l-1,0.3v6l0,0
						c0.1,1.4,1,2.6,2.3,3.2l26.1,15c3.5,1.8,7.6,1.8,11.1,0l26-15c1.3-0.6,2.1-1.8,2.3-3.1L357.2,346L357.2,346z"/>
					<path class="st16" d="M349.1,344.2l-18.6,10.9l-7.1,2.6v8c1.9,0,3.8-0.4,5.5-1.3l26-15c1.3-0.6,2.1-1.8,2.3-3.1V346l0,0v-5.9
						l-1.5-0.8h-0.2C355.1,342,351.8,343.8,349.1,344.2z"/>
					
						<linearGradient id="SVGID_00000049212243096341056970000008842880058309791120_" gradientUnits="userSpaceOnUse" x1="289.5975" y1="525.931" x2="357.234" y2="525.931" gradientTransform="matrix(1 0 0 -1 0 866)">
						<stop  offset="0" style="stop-color:#E9E9FD"/>
						<stop  offset="0.36" style="stop-color:#D3D2F9"/>
						<stop  offset="0.71" style="stop-color:#C5C4F7"/>
						<stop  offset="1" style="stop-color:#C0BFF6"/>
					</linearGradient>
					<path style="fill:url(#SVGID_00000049212243096341056970000008842880058309791120_);" d="M318,358.3l-26.1-15
						c-3-1.8-3-4.6,0-6.4l26.1-15.1c3.5-1.8,7.6-1.8,11.1,0l26,15c3.1,1.8,3.1,4.6,0,6.4l-26,15C325.5,360,321.4,360,318,358.3z"/>
					<g class="st6">
						<path class="st18" d="M318,358.3l-26.1-15c-3-1.8-3-4.6,0-6.4l26.1-15.1c3.5-1.8,7.6-1.8,11.1,0l26,15c3.1,1.8,3.1,4.6,0,6.4
							l-26,15C325.5,360,321.4,360,318,358.3z"/>
					</g>
				</g>
				<path class="st19" d="M323.4,339.3c-1.7,0-3.4-0.4-4.9-1.2l-26-15c-1.6-0.6-2.5-2.4-1.9-4c0.3-0.9,1-1.6,1.9-1.9l26-15
					c3.1-1.6,6.8-1.6,9.8,0l26,15c1.6,0.6,2.5,2.4,1.9,4c-0.3,0.9-1,1.6-1.9,1.9l-26,15C326.8,338.9,325.1,339.3,323.4,339.3z
					 M323.4,301.4c-1.6,0-3.2,0.4-4.7,1.1l-26,15c-1.4,0.5-2.2,2-1.7,3.4c0.3,0.8,0.9,1.5,1.7,1.7l26,15c2.9,1.5,6.4,1.5,9.4,0
					l26-15c1-0.5,1.8-1.4,1.9-2.6c-0.1-1.1-0.8-2.1-1.9-2.6l-26-15C326.7,301.8,325,301.4,323.4,301.4L323.4,301.4z"/>
				<path class="st20" d="M357.2,314.4v-8.9l-1.6-0.9c-0.5,2.8-3.7,4.6-6.5,5l-18.6,10.9l-8.1,2.9l-26-13.4l0.6-0.3
					c-2.2-1-3.4-3.4-4.6-5.6l-1.7,1l-1,0.3v9.1l0,0c0.1,1.4,1,2.6,2.3,3.2l26.1,15c3.5,1.8,7.6,1.8,11.1,0l26-15
					c1.3-0.6,2.1-1.8,2.3-3.1L357.2,314.4L357.2,314.4z"/>
				
					<linearGradient id="SVGID_00000088122373138963030540000010039247036563871413_" gradientUnits="userSpaceOnUse" x1="296.3245" y1="577.1323" x2="349.9808" y2="546.1569" gradientTransform="matrix(1 0 0 -1 0 866)">
					<stop  offset="0" style="stop-color:#BCBEFF"/>
					<stop  offset="0.23" style="stop-color:#AAADF8"/>
					<stop  offset="0.68" style="stop-color:#7C83E5"/>
					<stop  offset="1" style="stop-color:#5761D7"/>
				</linearGradient>
				<path style="fill:url(#SVGID_00000088122373138963030540000010039247036563871413_);" d="M357.2,306.5v-5.9l-1.6-0.9
					c-0.5,2.8-3.7,4.6-6.5,5l-18.6,10.9l-8.1,2.9l-26-13.4l0.6-0.3c-2.2-1-3.4-3.4-4.6-5.6l-1.7,1l-1,0.3v6l0,0
					c0.1,1.4,1,2.6,2.3,3.2l26.1,15c3.5,1.8,7.6,1.8,11.1,0l26-15c1.3-0.6,2.1-1.8,2.3-3.1L357.2,306.5L357.2,306.5z"/>
				<path class="st16" d="M349.1,304.7l-18.6,10.9l-7.1,2.6v8c1.9,0,3.8-0.4,5.5-1.3l26-15c1.3-0.6,2.1-1.8,2.3-3.1v-0.2l0,0v-5.9
					l-1.5-0.8h-0.2C355.1,302.5,351.8,304.3,349.1,304.7z"/>
				
					<linearGradient id="SVGID_00000140007488492908298900000016280020898971292078_" gradientUnits="userSpaceOnUse" x1="282.2415" y1="566.7596" x2="340.6482" y2="564.8767" gradientTransform="matrix(1 0 0 -1 0 866)">
					<stop  offset="0" style="stop-color:#00F0FF"/>
					<stop  offset="1" style="stop-color:#333399"/>
				</linearGradient>
				<path style="fill:url(#SVGID_00000140007488492908298900000016280020898971292078_);" d="M318,318.8l-26-15c-3-1.8-3-4.6,0-6.4
					l26-15c3.5-1.8,7.6-1.8,11.1,0l26,15c3.1,1.8,3.1,4.6,0,6.4l-26,15C325.6,320.5,321.4,320.5,318,318.8z"/>
				<path class="st4" d="M354.9,303.8l-26,15c-3.5,1.8-7.6,1.8-11.1,0l-26-15c-1.1-0.5-2-1.6-2.3-2.8c-0.2,1.2,0.6,2.6,2.3,3.6
					l26.1,15c3.5,1.8,7.6,1.8,11.1,0l26-15c1.7-1,2.5-2.3,2.3-3.6C357,302.2,356.1,303.2,354.9,303.8z"/>
				<g class="st6">
					
						<linearGradient id="SVGID_00000063592351960060688790000015866393781290727847_" gradientUnits="userSpaceOnUse" x1="17.0252" y1="743.8477" x2="70.6994" y2="712.8496" gradientTransform="matrix(1 0 0 -1 0 866)">
						<stop  offset="0" style="stop-color:#BCBEFF"/>
						<stop  offset="0.23" style="stop-color:#AAADF8"/>
						<stop  offset="0.68" style="stop-color:#7C83E5"/>
						<stop  offset="1" style="stop-color:#5761D7"/>
					</linearGradient>
					<path style="fill:url(#SVGID_00000063592351960060688790000015866393781290727847_);" d="M78,139.8v-5.9l-1.6-0.9
						c-0.5,2.8-3.7,4.6-6.5,5l-18.7,10.9l-8.1,2.9l-26-13.4l0.6-0.3c-2.2-1-3.4-3.4-4.6-5.6l-1.7,1l-1,0.3v6l0,0
						c0.1,1.4,1,2.6,2.3,3.2l26,15c3.5,1.8,7.6,1.8,11.1,0l26-15c1.3-0.5,2.2-1.7,2.3-3.1V139.8z"/>
					<path class="st16" d="M69.8,138l-18.6,10.9l-7.1,2.6v8c1.9,0,3.9-0.4,5.6-1.3l26-15c1.3-0.5,2.2-1.7,2.3-3.1v-0.2l0,0v-5.9
						l-1.5-0.8h-0.2C75.8,135.8,72.5,137.6,69.8,138z"/>
					
						<linearGradient id="SVGID_00000048469786691700237680000006474321927471172517_" gradientUnits="userSpaceOnUse" x1="10.2921" y1="732.1398" x2="77.9286" y2="732.1398" gradientTransform="matrix(1 0 0 -1 0 866)">
						<stop  offset="0" style="stop-color:#E9E9FD"/>
						<stop  offset="0.36" style="stop-color:#D3D2F9"/>
						<stop  offset="0.71" style="stop-color:#C5C4F7"/>
						<stop  offset="1" style="stop-color:#C0BFF6"/>
					</linearGradient>
					<path style="fill:url(#SVGID_00000048469786691700237680000006474321927471172517_);" d="M38.6,152.1l-26-15
						c-3.1-1.8-3.1-4.6,0-6.4l26-15c3.5-1.8,7.6-1.8,11.1,0l26,15c3.1,1.8,3.1,4.6,0,6.4l-26,15C46.2,153.8,42.1,153.8,38.6,152.1z"
						/>
					<g class="st6">
						<path class="st18" d="M38.6,152.1l-26-15c-3.1-1.8-3.1-4.6,0-6.4l26-15c3.5-1.8,7.6-1.8,11.1,0l26,15c3.1,1.8,3.1,4.6,0,6.4
							l-26,15C46.2,153.8,42.1,153.8,38.6,152.1z"/>
					</g>
				</g>
				<path class="st19" d="M44.1,133.1c-1.7,0-3.4-0.4-4.9-1.2l-26-15c-1.2-0.5-2-1.7-2.1-3c0.1-1.3,0.9-2.4,2.1-3l26-15
					c3.1-1.6,6.8-1.6,9.8,0l26,15c1.2,0.5,2,1.7,2.1,3c-0.1,1.3-0.9,2.4-2.1,2.9l-26,15C47.5,132.7,45.8,133.1,44.1,133.1z
					 M44.1,95.2c-1.6,0-3.2,0.4-4.7,1.1l-26,15c-1.1,0.4-1.8,1.4-1.9,2.6c0.1,1.1,0.8,2.1,1.9,2.6l26,15c2.9,1.5,6.4,1.5,9.4,0
					l26-15c1-0.5,1.8-1.4,1.9-2.6c-0.1-1.1-0.8-2.1-1.9-2.6l-26-15C47.4,95.6,45.7,95.2,44.1,95.2z"/>
				<path class="st20" d="M78,108.2v-8.9l-1.7-0.8c-0.5,2.8-3.7,4.6-6.5,5l-18.6,10.8l-8.1,2.9l-26-13.4l0.6-0.3
					c-2.2-1-3.4-3.4-4.6-5.6l-1.7,1l-1,0.3v9l0,0c0.1,1.4,1,2.6,2.3,3.2l26,15c3.5,1.8,7.6,1.8,11.1,0l26-15
					c1.3-0.6,2.2-1.7,2.3-3.1V108.2z"/>
				
					<linearGradient id="SVGID_00000050662181258381957870000002795719061287093925_" gradientUnits="userSpaceOnUse" x1="17.0231" y1="783.348" x2="70.6971" y2="752.35" gradientTransform="matrix(1 0 0 -1 0 866)">
					<stop  offset="0" style="stop-color:#BCBEFF"/>
					<stop  offset="0.23" style="stop-color:#AAADF8"/>
					<stop  offset="0.68" style="stop-color:#7C83E5"/>
					<stop  offset="1" style="stop-color:#5761D7"/>
				</linearGradient>
				<path style="fill:url(#SVGID_00000050662181258381957870000002795719061287093925_);" d="M78,100.3v-5.9l-1.7-0.9
					c-0.5,2.8-3.7,4.6-6.5,5l-18.6,10.9l-8.1,2.9l-26-13.4l0.6-0.3c-2.2-1-3.4-3.4-4.6-5.6l-1.7,1l-1,0.3v6l0,0
					c0.1,1.4,1,2.6,2.3,3.2l26,15c3.5,1.8,7.6,1.8,11.1,0l26-15c1.3-0.6,2.2-1.8,2.3-3.1V100.3z"/>
				<path class="st16" d="M69.8,98.4l-18.6,10.9l-7.1,2.6v8c1.9,0,3.9-0.4,5.6-1.4l26-15c1.3-0.6,2.2-1.8,2.3-3.1v-0.1l0,0v-5.9
					l-1.5-0.9h-0.2C75.8,96.3,72.5,98.1,69.8,98.4z"/>
				
					<linearGradient id="SVGID_00000044887808889998471380000014869244209099471232_" gradientUnits="userSpaceOnUse" x1="2.9328" y1="772.9606" x2="61.3395" y2="771.0778" gradientTransform="matrix(1 0 0 -1 0 866)">
					<stop  offset="0" style="stop-color:#00F0FF"/>
					<stop  offset="1" style="stop-color:#333399"/>
				</linearGradient>
				<path style="fill:url(#SVGID_00000044887808889998471380000014869244209099471232_);" d="M38.6,112.6l-26-15
					c-3.1-1.8-3.1-4.6,0-6.4l26-15c3.5-1.8,7.6-1.8,11.1,0l26,15c3.1,1.8,3.1,4.6,0,6.4l-26,15C46.2,114.3,42.1,114.3,38.6,112.6z"
					/>
				<path class="st4" d="M75.6,97.6l-26,15c-3.5,1.8-7.6,1.8-11.1,0l-26-15c-1.2-0.5-2-1.6-2.3-2.8c-0.2,1.2,0.6,2.6,2.3,3.6l26,15
					c3.5,1.8,7.6,1.8,11.1,0l26-15c1.7-1,2.5-2.3,2.3-3.6C77.6,96,76.8,97,75.6,97.6z"/>
			</g>
		</g>
	</g>
</g>
</svg>
