<svg width="56" height="56" viewBox="0 0 56 56" fill="none" xmlns="http://www.w3.org/2000/svg">
<path fill-rule="evenodd" clip-rule="evenodd" d="M28 56C12.536 56 0 43.464 0 28C0 12.536 12.536 0 28 0C43.464 0 56 12.536 56 28C56 43.464 43.464 56 28 56ZM29.2107 21.0129C26.703 22.056 21.691 24.2148 14.1749 27.4895C12.9543 27.9749 12.315 28.4497 12.2568 28.914C12.1584 29.6986 13.141 30.0076 14.4791 30.4283C14.6611 30.4856 14.8496 30.5448 15.043 30.6077C16.3594 31.0356 18.1302 31.5362 19.0508 31.5561C19.8858 31.5742 20.8178 31.2299 21.8468 30.5233C28.8694 25.7829 32.4945 23.3868 32.7221 23.3352C32.8827 23.2987 33.1052 23.2529 33.2559 23.3869C33.4067 23.5209 33.3918 23.7746 33.3759 23.8427C33.2785 24.2577 29.4215 27.8435 27.4255 29.6992C26.8032 30.2777 26.3619 30.6881 26.2716 30.7818C26.0695 30.9917 25.8635 31.1903 25.6655 31.3812C24.4425 32.5601 23.5254 33.4442 25.7163 34.888C26.7691 35.5818 27.6116 36.1555 28.4521 36.7279C29.37 37.353 30.2856 37.9765 31.4701 38.753C31.7719 38.9508 32.0602 39.1563 32.3409 39.3565C33.4091 40.118 34.3688 40.8022 35.5545 40.6931C36.2434 40.6297 36.9551 39.9819 37.3165 38.0498C38.1706 33.4836 39.8495 23.5902 40.2376 19.5133C40.2715 19.1561 40.2288 18.699 40.1944 18.4983C40.1601 18.2977 40.0883 18.0118 39.8275 17.8001C39.5186 17.5494 39.0417 17.4966 38.8284 17.5002C37.8587 17.5174 36.3709 18.0348 29.2107 21.0129Z" fill="white"/>
</svg>
