<?xml version="1.0" encoding="utf-8"?>
<!-- Generator: Adobe Illustrator 26.0.1, SVG Export Plug-In . SVG Version: 6.00 Build 0)  -->
<svg version="1.1" id="Layer_1" xmlns="http://www.w3.org/2000/svg" xmlns:xlink="http://www.w3.org/1999/xlink" x="0px" y="0px"
	 viewBox="0 0 468 432" style="enable-background:new 0 0 468 432;" xml:space="preserve">
<style type="text/css">
	.st0{clip-path:url(#SVGID_00000021804372870503270300000005457596483200052358_);}
	.st1{fill:#42E8E0;}
	.st2{fill:url(#SVGID_00000072247889547481868950000002077904589077884044_);}
	.st3{fill:url(#SVGID_00000182510781357639507200000014624167400161594248_);}
	.st4{fill:#FFFFFF;}
	.st5{opacity:0.8;fill:url(#SVGID_00000048486568324014428280000017632141923725228691_);enable-background:new    ;}
	.st6{opacity:0.3;}
	.st7{opacity:0.5;fill:url(#SVGID_00000137833534459658783470000014977172854488040604_);enable-background:new    ;}
	.st8{clip-path:url(#SVGID_00000158006713749114940860000000047586990930555574_);}
	.st9{fill:#9FFFF8;}
	.st10{opacity:0.4;fill:#24126A;enable-background:new    ;}
	.st11{fill:url(#SVGID_00000021091737635373900970000015856910526840140723_);}
	.st12{fill:url(#SVGID_00000172408815151235783560000004460228493399105938_);}
	.st13{fill:url(#SVGID_00000109010801111178585280000005045598621112160177_);}
	.st14{opacity:0.4;fill:#42E8E0;enable-background:new    ;}
	.st15{fill:url(#SVGID_00000160879556919729976210000008833009052994692756_);}
	.st16{opacity:0.3;fill:#0F054C;enable-background:new    ;}
	.st17{fill:url(#SVGID_00000144337493130944211500000006810822850193236373_);}
	.st18{fill:#0F054C;}
	.st19{fill:#00F0FF;}
	.st20{opacity:0.4;fill:#333399;enable-background:new    ;}
	.st21{fill:url(#SVGID_00000129186819311910867080000013125028803530927748_);}
	.st22{fill:url(#SVGID_00000160186717040346522510000003164551105184035732_);}
	.st23{fill:url(#SVGID_00000165208723935801573200000012397890561601798062_);}
	.st24{fill:url(#SVGID_00000098193670657667663630000017426720686507518602_);}
	.st25{fill:url(#SVGID_00000138549315159994948090000016310683706461352841_);}
	.st26{fill:url(#SVGID_00000144333677253318207270000011863069958296315811_);}
	.st27{fill:url(#SVGID_00000142139764561372510910000009303350457502307998_);}
	.st28{fill:url(#SVGID_00000154389322097083830830000017750873258630413975_);}
	.st29{fill:url(#SVGID_00000181768527312707535250000008102948161191574454_);}
	.st30{fill:url(#SVGID_00000123420005162708649250000015861561716462896796_);}
	.st31{clip-path:url(#SVGID_00000054261611570705854730000003694964828340246923_);}
	.st32{opacity:0.2;fill:#333399;enable-background:new    ;}
	.st33{fill:#333399;}
	.st34{fill:url(#SVGID_00000139995871241019071480000012106507384260421034_);}
	.st35{fill:url(#SVGID_00000011030936689396002130000016740182695162268561_);}
	.st36{fill:url(#SVGID_00000109017621369521775120000014315665082668923820_);}
	.st37{fill:#FF00CC;fill-opacity:0.4;}
	.st38{fill:url(#SVGID_00000026127614600491118160000000058833216455549073_);}
	.st39{fill:url(#SVGID_00000178178447799830224080000004909995802973910182_);}
	.st40{fill:url(#SVGID_00000049930674416620786550000015610392823801653681_);}
	.st41{fill:url(#SVGID_00000034056780994251159310000012604141259099121298_);}
	.st42{fill:url(#SVGID_00000029039048958595022140000007919535102748066451_);}
	.st43{fill:url(#SVGID_00000050626401770846368440000011176296686640774023_);}
	.st44{fill:url(#SVGID_00000039816679812178148360000008957984701806163072_);}
	.st45{fill:url(#SVGID_00000062180603508123922010000000705112591213786533_);}
	.st46{fill:url(#SVGID_00000146472595572096651110000006180231584248687749_);}
	.st47{fill:url(#SVGID_00000079446953418218145260000017607461999761072028_);}
	.st48{opacity:0.5;fill:url(#SVGID_00000145038062372934915030000005106191802974832805_);enable-background:new    ;}
	.st49{opacity:0.2;}
	.st50{clip-path:url(#SVGID_00000126314557784628762300000014423419011201866914_);}
	.st51{opacity:0.3;fill:#24126A;enable-background:new    ;}
	.st52{fill:url(#SVGID_00000155838009110189496090000005058990970810762895_);}
	.st53{fill:url(#SVGID_00000156560378184657728590000003273068436621611166_);}
	.st54{fill:url(#SVGID_00000156590044065493699630000006999320240353377442_);}
	.st55{fill:url(#SVGID_00000150803199090006141770000008058301647607624629_);}
	.st56{clip-path:url(#SVGID_00000150093276257521389440000012792166449102551722_);}
	.st57{fill:url(#SVGID_00000059990683138856250380000006920971926905384087_);}
	.st58{fill:url(#SVGID_00000088132732582542087130000000662983851625748369_);}
	.st59{fill:url(#SVGID_00000136397136232272277850000008053023837957466753_);}
	.st60{fill:url(#SVGID_00000098901364756886051240000014555764533432565694_);}
	.st61{fill:url(#SVGID_00000008117994826570715190000000418616825350294704_);}
	.st62{fill:url(#SVGID_00000084501402866336445610000014099991858936894866_);}
	.st63{fill:url(#SVGID_00000020375574070812426030000010515349788933331606_);}
	.st64{fill:url(#SVGID_00000096044502420017419440000018284338202140371647_);}
	.st65{fill:url(#SVGID_00000160157452797499884900000009058055471983578037_);}
	.st66{fill:url(#SVGID_00000050647753677567591580000000468690307045087887_);}
	.st67{fill:url(#SVGID_00000014608981999937221990000014912933438702468773_);}
	.st68{fill:url(#SVGID_00000091712355563726627370000002679844570262596268_);}
	.st69{fill:url(#SVGID_00000088815130557331893140000007591014127443836565_);}
	.st70{fill:url(#SVGID_00000059294129673125681830000006762997805108334211_);}
	.st71{fill:url(#SVGID_00000022545601253018105200000014045155012901927347_);}
	.st72{fill:url(#SVGID_00000159471242016627294790000005587049017846811557_);}
	.st73{fill:url(#SVGID_00000026136290086006607470000006147615615955187889_);}
	.st74{fill:url(#SVGID_00000113317711192183603710000002307258305662796216_);}
	.st75{fill:url(#SVGID_00000005239207687708826520000017004494215728343941_);}
	.st76{fill:url(#SVGID_00000085952470676459912030000012000932363910253754_);}
	.st77{fill:url(#SVGID_00000013895090846987121850000009871519543318672787_);}
	.st78{fill:url(#SVGID_00000148622288262759248040000003529459273403191996_);}
	.st79{fill:url(#SVGID_00000039816620763120939220000003897884384372135860_);}
	.st80{fill:url(#SVGID_00000071549673473530474490000000557676198055421864_);}
	.st81{fill:url(#SVGID_00000109717875883846451660000011957609274269008003_);}
	.st82{fill:url(#SVGID_00000133524845576098531100000018266369983658338477_);}
	.st83{fill:url(#SVGID_00000055675188960461060600000014065400166544831931_);}
	.st84{fill:url(#SVGID_00000071546820466809150040000009908209767161594294_);}
	.st85{fill:url(#SVGID_00000054977684881629556910000011971857981790451118_);}
	.st86{fill:url(#SVGID_00000160172899797835918800000000715882405440641707_);}
	.st87{fill:url(#SVGID_00000026129922326849006570000003656510311082412169_);}
	.st88{fill:url(#SVGID_00000143578304691481835740000008354349080071331467_);}
	.st89{fill:url(#SVGID_00000001653334934387694600000004640764940700249521_);}
	.st90{fill:url(#SVGID_00000036936559362778871430000008373889363769664665_);}
	.st91{fill:url(#SVGID_00000088111790321463470280000008688674365105799323_);}
	.st92{fill:url(#SVGID_00000164494359632409329090000016878669856597688964_);}
	.st93{fill:url(#SVGID_00000088846910177407954830000015509078283944806333_);}
	.st94{fill:url(#SVGID_00000016046095632158812940000000676076363209918357_);}
	.st95{fill:url(#SVGID_00000149348310207775585800000015059187988512367773_);}
	.st96{fill:url(#SVGID_00000007413035150981725930000009381183522804371620_);}
	.st97{fill:url(#SVGID_00000162353050503686242270000014253689847179190928_);}
	.st98{fill:url(#SVGID_00000029762815353730519040000003708936975980522627_);}
	.st99{fill:url(#SVGID_00000043419970346661414320000013960190575439433912_);}
	.st100{fill:url(#SVGID_00000113337978381510069990000001758234773320695951_);}
	.st101{fill:url(#SVGID_00000147914452005058824970000001359699328354949281_);}
	.st102{fill:url(#SVGID_00000007422808426725724750000013042083885809713308_);}
	.st103{fill:url(#SVGID_00000157280352378370947620000002552844695729936034_);}
	.st104{fill:url(#SVGID_00000106147295967572456220000008347844435984234943_);}
	.st105{fill:url(#SVGID_00000037652436706410319620000002593766817608322236_);}
	.st106{fill:url(#SVGID_00000063611953363484382110000007136951094652848306_);}
	.st107{fill:url(#SVGID_00000066515030000237693810000000934189860613173943_);}
	.st108{fill:url(#SVGID_00000043440715171366295800000010500900211532375439_);}
	.st109{fill:url(#SVGID_00000182492899743278710150000005951061997614723204_);}
	.st110{fill:url(#SVGID_00000088126452798360009190000016093837163381322166_);}
	.st111{fill:url(#SVGID_00000152977027527102249140000005054183874213802421_);}
	.st112{fill:url(#SVGID_00000016053177782260215530000001028146103537030291_);}
	.st113{fill:url(#SVGID_00000134233202557475296220000017672820948296731574_);}
	.st114{fill:url(#SVGID_00000075854064391736534040000016862226972172756651_);}
	.st115{fill:url(#SVGID_00000100354751540275665220000010991313651713360268_);}
	.st116{fill:url(#SVGID_00000165926644556486942770000013642796209263594402_);}
	.st117{fill:url(#SVGID_00000140727958469557592630000008999759158433783965_);}
	.st118{fill:url(#SVGID_00000089576129882192211670000012376450499996918948_);}
	.st119{fill:url(#SVGID_00000143589281678798280330000004857660238127810973_);}
	.st120{fill:url(#SVGID_00000128478161471367985640000000132052083147256489_);}
	.st121{fill:url(#SVGID_00000086655086182220543450000013831306459737084544_);}
	.st122{fill:url(#SVGID_00000160899815010898937460000000368863795985789329_);}
	.st123{fill:url(#SVGID_00000002379736023408344950000014331987129078773129_);}
	.st124{fill:url(#SVGID_00000036947525355798796240000005109661674768100993_);}
	.st125{fill:url(#SVGID_00000088816313229894472170000000591330132193632190_);}
	.st126{fill:url(#SVGID_00000115478544252707822520000009322767653575216271_);}
	.st127{fill:url(#SVGID_00000130643636529879317400000009290735567798487733_);}
	.st128{fill:url(#SVGID_00000182530580598166737550000003434225056541227670_);}
	.st129{fill:url(#SVGID_00000128474843621434582110000006508347752201587591_);}
	.st130{fill:url(#SVGID_00000106130687496136505860000003698274665473459891_);}
	.st131{fill:url(#SVGID_00000018230357812413548870000003574023405062475927_);}
	.st132{fill:url(#SVGID_00000087387101811441793190000013610523109233666695_);}
	.st133{fill:url(#SVGID_00000040543685999454232880000018346497231292892598_);}
	.st134{fill:url(#SVGID_00000073690205367781594770000009595344718470849980_);}
	.st135{fill:url(#SVGID_00000116223679401156337350000013296386969979232162_);}
	.st136{fill:url(#SVGID_00000172428818574129666430000003873919691177348269_);}
	.st137{fill:url(#SVGID_00000034082565297648132960000006734056821098254486_);}
	.st138{fill:url(#SVGID_00000016763929812082349220000018170533426750415256_);}
	.st139{fill:url(#SVGID_00000108998192684675199500000008149144886542580611_);}
	.st140{fill:url(#SVGID_00000146481429295157178270000008223389511906323106_);}
	.st141{fill:url(#SVGID_00000092443849706390074810000007176319750781201043_);}
	.st142{fill:url(#SVGID_00000013879839512499595160000015752559034102491546_);}
	.st143{fill:url(#SVGID_00000152951004338428105330000006804667823593852092_);}
	.st144{fill:url(#SVGID_00000025427769499071299270000009914554252754011052_);}
	.st145{fill:url(#SVGID_00000005228150800928388230000002282875510863035541_);}
	.st146{fill:url(#SVGID_00000102531491641861814460000009871071988811255228_);}
	.st147{fill:url(#SVGID_00000041293911188453508740000016530652526338625714_);}
	.st148{fill:url(#SVGID_00000126318696773417150360000018044216746952201364_);}
	.st149{fill:url(#SVGID_00000143589101613136259210000001005336062281618848_);}
	.st150{fill:url(#SVGID_00000111163987026471774440000012887869618521836177_);}
	.st151{fill:url(#SVGID_00000101784346940944056790000007487147593101582472_);}
	.st152{fill:url(#SVGID_00000137836058461097034610000005951720449892750219_);}
	.st153{fill:url(#SVGID_00000179630518458382133360000009442135739963365012_);}
	.st154{opacity:0.2;fill:#03002D;enable-background:new    ;}
	.st155{fill:url(#SVGID_00000074422128996453769560000011052373752493593777_);}
	.st156{fill:url(#SVGID_00000082349828594475501230000015850518043327447688_);}
	.st157{fill:url(#SVGID_00000047058524822926156780000001813283567437575064_);}
	.st158{fill:url(#SVGID_00000152973973349318293910000008601573739385334159_);}
	.st159{fill:url(#SVGID_00000107565152575451000940000005055221046974809520_);}
	.st160{fill:url(#SVGID_00000047022750410225075380000012848241537164656517_);}
	.st161{fill:#160A5B;}
	.st162{fill:url(#SVGID_00000081650150813676060860000014530202586462946453_);}
	.st163{fill:url(#SVGID_00000106827653362385725220000005992594787751465908_);}
	.st164{fill:url(#SVGID_00000173161978358668794870000018111595590896975767_);}
	.st165{fill:#24126A;}
	.st166{fill:url(#SVGID_00000171705195434847011920000001940748005615000753_);}
	.st167{fill:url(#SVGID_00000070104707114280065290000012837402327254769811_);}
	.st168{fill:#453C9E;}
	.st169{opacity:0.3;fill:#160A5B;enable-background:new    ;}
	.st170{fill:#F0F6FF;}
	.st171{fill:url(#SVGID_00000071533167318584729760000003660632232501603772_);}
	.st172{fill:url(#SVGID_00000000935514677414356300000015900538676495479953_);}
	.st173{fill:url(#SVGID_00000036949336110961211220000004477332889051053475_);}
	.st174{fill:url(#SVGID_00000103231466248863519080000000017797601536058531_);}
	.st175{fill:#4846A5;}
	.st176{fill:url(#SVGID_00000062183429437349453750000013550437435381078158_);}
	.st177{fill:url(#SVGID_00000106847859876496042510000008433515797077638290_);}
	.st178{fill:url(#SVGID_00000049190061582104277570000005926846511939590048_);}
	.st179{fill:url(#SVGID_00000044145434712410207630000007907051533502682509_);}
	.st180{fill:url(#SVGID_00000039129265320654992590000016037433111744591013_);}
	.st181{fill:url(#SVGID_00000054223792787807367300000008365459097166439099_);}
	.st182{fill:url(#SVGID_00000013160640547187076010000018364424858794697856_);}
	.st183{fill:url(#SVGID_00000027570095239148585040000005961267329411948718_);}
	.st184{fill:url(#SVGID_00000044861231428733528130000012809037739663245696_);}
	.st185{fill:url(#SVGID_00000016783024312508268460000008369581592647091362_);}
	.st186{fill:url(#SVGID_00000017504530743082068720000007186108963925949360_);}
	.st187{fill:url(#SVGID_00000117659721494436500660000018152858381295069834_);}
	.st188{fill:url(#SVGID_00000164474667134831152270000007159162010930232237_);}
	.st189{fill:#001C27;}
</style>
<g>
	<defs>
		<rect id="SVGID_00000165928186641713991060000007807405744241659276_" width="468" height="432"/>
	</defs>
	<clipPath id="SVGID_00000065053873962089150430000005339425783657000115_">
		<use xlink:href="#SVGID_00000165928186641713991060000007807405744241659276_"  style="overflow:visible;"/>
	</clipPath>
	<g style="clip-path:url(#SVGID_00000065053873962089150430000005339425783657000115_);">
		<g id="Layer_2_00000109733151246284665520000016798937004454712196_">
			<g id="_ÎÓÈ_1">
				<path class="st20" d="M241.5,369.3c-27,0-53.9-5.9-74.5-17.9c-20-11.5-31-26.9-31-43.2c0-16.3,11-31.7,31-43.3
					c41.1-23.7,107.9-23.7,149,0c20,11.5,31,26.8,31,43.3c0,16.5-11,31.7-31,43.2C295.4,363.4,268.4,369.3,241.5,369.3z
					 M241.5,248.1c-26.8,0-53.6,5.9-74,17.7c-19.7,11.4-30.6,26.5-30.6,42.5c0,16,10.8,31.1,30.6,42.5c40.8,23.6,107.2,23.6,148.1,0
					c19.7-11.4,30.5-26.5,30.5-42.5c0-16-10.9-31.1-30.6-42.5C295.2,253.9,268.4,248.1,241.5,248.1L241.5,248.1z"/>
				<path class="st32" d="M241.5,385.7c-34.2,0-68.5-7.5-94.5-22.6c-25.3-14.6-39.3-34.1-39.3-54.8s13.9-40.2,39.3-54.8
					c52.1-30.1,136.9-30.1,189,0c25.3,14.6,39.3,34.1,39.3,54.8s-14,40.2-39.3,54.8C309.9,378.1,275.7,385.7,241.5,385.7z
					 M241.5,231.7c-34.1,0-68.1,7.5-94.1,22.5c-25,14.5-38.8,33.7-38.8,54.1s13.8,39.6,38.8,54.1c51.8,29.9,136.3,29.9,188.2,0
					c25-14.5,38.8-33.7,38.8-54.1s-13.8-39.6-38.8-54.1C309.6,239.2,275.5,231.7,241.5,231.7L241.5,231.7z"/>
				<path class="st33" d="M241.5,356.4c-21.2,0-42.5-4.7-58.7-14c-15.8-9.1-24.4-21.2-24.4-34.1s8.7-25,24.4-34.1
					c32.4-18.7,85-18.7,117.4,0c15.8,9.1,24.4,21.2,24.4,34.1s-8.7,25-24.4,34.1l0,0C284,351.8,262.7,356.4,241.5,356.4z M241.5,261
					c-21.1,0-42.2,4.6-58.3,13.9c-15.5,8.9-24,20.8-24,33.4s8.5,24.4,24,33.4c32.2,18.5,84.4,18.5,116.5,0l0,0
					c15.5-8.9,24-20.8,24-33.4s-8.5-24.5-24-33.4C283.7,265.6,262.6,261,241.5,261z"/>
				
					<rect x="334.9" y="197.8" transform="matrix(0.4998 -0.8661 0.8661 0.4998 -4.9858 390.1298)" class="st19" width="0.9" height="3.2"/>
				<path class="st19" d="M328.7,196.1l-5-2.9l0.4-0.8l5,2.9L328.7,196.1z M318.7,190.3l-5-2.9l0.4-0.8l5,2.9L318.7,190.3z
					 M308.6,184.5l-5-2.9l0.4-0.7l5,2.9L308.6,184.5z M298.6,178.7l-5-2.9l0.4-0.8l5,2.9L298.6,178.7z M288.5,172.9l-5-2.9l0.4-0.8
					l5,2.9L288.5,172.9z"/>
				
					<rect x="276.9" y="164.3" transform="matrix(0.5002 -0.8659 0.8659 0.5002 -5.0697 323.0866)" class="st19" width="0.9" height="3.2"/>
				<g class="st6">
					
						<linearGradient id="SVGID_00000049207461769170779440000005941706004115516816_" gradientUnits="userSpaceOnUse" x1="323.3081" y1="621.7202" x2="424.5252" y2="563.2796" gradientTransform="matrix(1 0 0 -1 0 866)">
						<stop  offset="0" style="stop-color:#BCBEFF"/>
						<stop  offset="0.23" style="stop-color:#AAADF8"/>
						<stop  offset="0.68" style="stop-color:#7C83E5"/>
						<stop  offset="1" style="stop-color:#5761D7"/>
					</linearGradient>
					<path style="fill:url(#SVGID_00000049207461769170779440000005941706004115516816_);" d="M438.2,277.5v-11.1l-3.1-1.8
						c-0.9,5.3-7.1,8.7-12.2,9.4l-35.2,20.6l-15.3,5.6l-49-25.3l1.1-0.7c-4.2-1.9-6.4-6.4-8.7-10.5l-3.3,2l-1.9,0.6v11.4l0,0
						c0,2.2,1.4,4.4,4.3,6L364,312c6.6,3.3,14.3,3.3,20.9,0l49.1-28.3c2.4-1.1,4-3.3,4.3-5.9C438.2,277.8,438.2,277.6,438.2,277.5
						L438.2,277.5z"/>
					<path class="st16" d="M422.9,274.1l-35.2,20.6l-13.3,4.8v15c3.6,0.1,7.2-0.8,10.4-2.5l49.1-28.3c2.4-1.1,4-3.3,4.3-5.9
						c0,0,0-0.2,0-0.3l0,0v-11.1l-2.8-1.6h-0.3C434.2,270,428.1,273.4,422.9,274.1z"/>
					
						<linearGradient id="SVGID_00000076589159193465827470000017529706128582248348_" gradientUnits="userSpaceOnUse" x1="310.6164" y1="599.6271" x2="438.2257" y2="599.6271" gradientTransform="matrix(1 0 0 -1 0 866)">
						<stop  offset="0" style="stop-color:#E9E9FD"/>
						<stop  offset="0.36" style="stop-color:#D3D2F9"/>
						<stop  offset="0.71" style="stop-color:#C5C4F7"/>
						<stop  offset="1" style="stop-color:#C0BFF6"/>
					</linearGradient>
					<path style="fill:url(#SVGID_00000076589159193465827470000017529706128582248348_);" d="M364,300.7l-49.1-28.3
						c-5.8-3.3-5.8-8.7,0-12L364,232c6.6-3.3,14.3-3.3,20.9,0l49.1,28.3c5.8,3.3,5.8,8.7,0,12l-49.1,28.3
						C378.3,304,370.5,304,364,300.7z"/>
					<g class="st6">
						<path class="st18" d="M364,300.7l-49.1-28.3c-5.8-3.3-5.8-8.7,0-12L364,232c6.6-3.3,14.3-3.3,20.9,0l49.1,28.3
							c5.8,3.3,5.8,8.7,0,12l-49.1,28.3C378.3,304,370.5,304,364,300.7z"/>
					</g>
				</g>
				<path class="st19" d="M374.4,264.9c-3.2,0.1-6.4-0.7-9.3-2.2l-49.1-28.3c-3.1-1.1-4.7-4.5-3.6-7.6c0.6-1.7,1.9-3,3.6-3.6
					l49.1-28.3c5.8-2.9,12.7-2.9,18.5,0l49.1,28.3c3.1,1.1,4.7,4.5,3.6,7.6c-0.6,1.7-1.9,3-3.6,3.6l-49.1,28.3
					C380.8,264.2,377.6,265,374.4,264.9z M374.4,193.4c-3.1-0.1-6.1,0.7-8.8,2.1l-49,28.4c-2.7,0.9-4.1,3.7-3.3,6.4
					c0.5,1.5,1.7,2.8,3.3,3.3l49.1,28.3c5.5,2.8,12.1,2.8,17.6,0l49.1-28.3c2.7-0.9,4.1-3.7,3.3-6.4c-0.5-1.5-1.7-2.8-3.3-3.3
					l-49.2-28.3C380.5,194.2,377.5,193.4,374.4,193.4L374.4,193.4z"/>
				<path class="st20" d="M438.2,217.9v-16.8l-3.1-1.8c-0.9,5.3-7.1,8.7-12.2,9.4l-35.2,20.6l-15.3,5.5l-49-25.3l1.1-0.7
					c-4.2-1.9-6.4-6.4-8.7-10.5l-3.3,2l-1.9,0.6V218l0,0c0,2.2,1.4,4.4,4.3,6l49.1,28.3c6.6,3.3,14.3,3.3,20.9,0l49.1-28.3
					c2.4-1.1,4-3.3,4.3-5.9C438.2,218,438.2,217.9,438.2,217.9L438.2,217.9z"/>
				
					<linearGradient id="SVGID_00000070839014407326176190000014285829835407860621_" gradientUnits="userSpaceOnUse" x1="323.3061" y1="696.2954" x2="424.5973" y2="637.8121" gradientTransform="matrix(1 0 0 -1 0 866)">
					<stop  offset="0" style="stop-color:#BCBEFF"/>
					<stop  offset="0.23" style="stop-color:#AAADF8"/>
					<stop  offset="0.68" style="stop-color:#7C83E5"/>
					<stop  offset="1" style="stop-color:#5761D7"/>
				</linearGradient>
				<path style="fill:url(#SVGID_00000070839014407326176190000014285829835407860621_);" d="M438.2,203v-11.1l-3.1-1.8
					c-0.9,5.3-7.1,8.7-12.2,9.4L387.8,220l-15.3,5.6l-49-25.3l1.1-0.7c-4.2-1.9-6.4-6.4-8.7-10.5l-3.3,2l-1.9,0.6v11.4l0,0
					c0,2.2,1.4,4.4,4.3,6l49.1,28.3c6.6,3.3,14.3,3.3,20.9,0l49.1-28.2c2.4-1.1,4-3.3,4.3-5.9C438.2,203.3,438.2,203.1,438.2,203
					L438.2,203z"/>
				<path class="st37" d="M422.9,199.6l-35.2,20.5l-13.3,4.8v15c3.6,0.1,7.2-0.8,10.4-2.5l49.1-28.2c2.4-1.1,4-3.3,4.3-5.9
					c0,0,0-0.2,0-0.3l0,0v-11.1l-2.8-1.6h-0.3C434.2,195.4,428.1,198.9,422.9,199.6z"/>
				
					<linearGradient id="SVGID_00000061439626140881941300000009755590337314519472_" gradientUnits="userSpaceOnUse" x1="294.7958" y1="677.9106" x2="420.9936" y2="671.9965" gradientTransform="matrix(1 0 0 -1 0 866)">
					<stop  offset="0" style="stop-color:#E4DDF6"/>
					<stop  offset="0.13" style="stop-color:#C7B0D6"/>
					<stop  offset="0.27" style="stop-color:#AB85B7"/>
					<stop  offset="0.41" style="stop-color:#94619E"/>
					<stop  offset="0.56" style="stop-color:#82468A"/>
					<stop  offset="0.7" style="stop-color:#75327C"/>
					<stop  offset="0.85" style="stop-color:#6E2674"/>
					<stop  offset="1" style="stop-color:#6B2271"/>
				</linearGradient>
				<path style="fill:url(#SVGID_00000061439626140881941300000009755590337314519472_);" d="M364,226.2l-49.1-28.3
					c-5.8-3.3-5.8-8.7,0-12l49.1-28.4c6.6-3.3,14.3-3.3,20.9,0l49.1,28.3c5.8,3.3,5.8,8.7,0,12l-49.1,28.4
					C378.3,229.5,370.5,229.5,364,226.2z"/>
				<path class="st4" d="M433.9,197.9l-49.1,28.3c-6.6,3.3-14.3,3.3-20.9,0l-49.1-28.3c-2.2-1-3.7-3-4.3-5.4
					c-0.3,2.4,1.1,4.9,4.3,6.7l49.1,28.3c6.6,3.3,14.3,3.3,20.9,0l49.1-28.3c3.2-1.8,4.6-4.3,4.3-6.7
					C437.7,194.9,436.1,196.8,433.9,197.9z"/>
				<polygon class="st19" points="148.5,201.7 148,201 208.8,165.9 209.2,166.6 				"/>
				<polygon class="st19" points="281.4,284.4 281,283.7 283.8,282.1 284.2,282.8 				"/>
				<path class="st19" d="M289.2,280l-0.4-0.8l5-2.9l0.4,0.7L289.2,280z M299.3,274.1l-0.4-0.8l5-2.9l0.4,0.8L299.3,274.1z
					 M309.3,268.3l-0.4-0.7l5-2.9l0.4,0.8L309.3,268.3z M319.4,262.5l-0.4-0.8l5-2.9l0.4,0.7L319.4,262.5z M329.4,256.7L329,256
					l5-2.9l0.4,0.8L329.4,256.7z"/>
				<polygon class="st19" points="339.4,251 339,250.2 341.8,248.6 342.2,249.4 				"/>
				<g class="st6">
					
						<linearGradient id="SVGID_00000128453229869068771080000013766898287475777727_" gradientUnits="userSpaceOnUse" x1="190.335" y1="534.7175" x2="291.585" y2="476.258" gradientTransform="matrix(1 0 0 -1 0 866)">
						<stop  offset="0" style="stop-color:#BCBEFF"/>
						<stop  offset="0.23" style="stop-color:#AAADF8"/>
						<stop  offset="0.68" style="stop-color:#7C83E5"/>
						<stop  offset="1" style="stop-color:#5761D7"/>
					</linearGradient>
					<path style="fill:url(#SVGID_00000128453229869068771080000013766898287475777727_);" d="M305.3,364.5v-11.1l-3.1-1.8
						c-0.9,5.3-7,8.7-12.2,9.4l-35.2,20.6l-15.3,5.5l-49-25.2l1.1-0.7c-4.2-1.9-6.5-6.4-8.7-10.5l-3.3,2l-2,0.6v11.5l0,0
						c0.3,2.6,1.9,4.9,4.3,6l49.1,28.3c6.6,3.3,14.3,3.3,20.9,0l49.1-28.3c2.4-1.1,4-3.3,4.3-5.9
						C305.3,364.7,305.3,364.6,305.3,364.5L305.3,364.5z"/>
					<path class="st16" d="M290,361.1l-35.2,20.6l-13.3,4.8v15c3.6,0.1,7.2-0.8,10.4-2.5l49.1-28.3c2.4-1.1,4-3.3,4.3-5.9
						c0-0.1,0-0.2,0-0.3l0,0v-11.1l-2.8-1.6h-0.3C301.2,357,295.2,360.4,290,361.1z"/>
					
						<linearGradient id="SVGID_00000134215794071744021420000009761246612090077336_" gradientUnits="userSpaceOnUse" x1="177.6646" y1="512.6751" x2="305.274" y2="512.6751" gradientTransform="matrix(1 0 0 -1 0 866)">
						<stop  offset="0" style="stop-color:#E9E9FD"/>
						<stop  offset="0.36" style="stop-color:#D3D2F9"/>
						<stop  offset="0.71" style="stop-color:#C5C4F7"/>
						<stop  offset="1" style="stop-color:#C0BFF6"/>
					</linearGradient>
					<path style="fill:url(#SVGID_00000134215794071744021420000009761246612090077336_);" d="M231,387.7L182,359.3
						c-5.8-3.3-5.8-8.7,0-12L231,319c6.6-3.3,14.3-3.3,20.9,0l49.1,28.3c5.8,3.3,5.8,8.7,0,12l-49.1,28.3
						C245.3,391,237.6,391,231,387.7z"/>
					<g class="st6">
						<path class="st18" d="M231,387.7L182,359.3c-5.8-3.3-5.8-8.7,0-12L231,319c6.6-3.3,14.3-3.3,20.9,0l49.1,28.3
							c5.8,3.3,5.8,8.7,0,12l-49.1,28.3C245.3,391,237.6,391,231,387.7z"/>
					</g>
				</g>
				<path class="st19" d="M241.5,346.5c-3.2,0.1-6.4-0.7-9.2-2.2l-49.2-28.3c-3.1-1.1-4.7-4.4-3.6-7.5c0.6-1.7,1.9-3,3.6-3.6
					l49.1-28.3c5.8-2.9,12.7-2.9,18.5,0l49.1,28.3c3.1,1.1,4.7,4.4,3.6,7.5c-0.6,1.7-1.9,3-3.6,3.6l-49.1,28.3
					C247.9,345.8,244.7,346.5,241.5,346.5z M241.5,275c-3.1-0.1-6.2,0.7-8.9,2.1l-49,28.4c-2.7,0.9-4.1,3.7-3.3,6.4
					c0.5,1.5,1.7,2.8,3.3,3.3l49,28.3c5.5,2.8,12.1,2.8,17.6,0l49.1-28.3c2.7-0.9,4.1-3.7,3.3-6.4c-0.5-1.5-1.7-2.8-3.3-3.3
					l-49-28.4C247.6,275.7,244.6,275,241.5,275L241.5,275z"/>
				<path class="st20" d="M305.3,299.5v-16.8l-3.1-1.8c-0.9,5.3-7,8.7-12.2,9.4l-35.2,20.6l-15.3,5.5l-49-25.2l1.1-0.7
					c-4.2-1.9-6.5-6.4-8.7-10.5l-3.3,2l-2,0.6v17.1l0,0c0,2.2,1.4,4.3,4.3,6L231,334c6.6,3.3,14.3,3.3,20.9,0l49.1-28.3
					c2.4-1.1,4-3.3,4.3-5.9C305.3,299.7,305.3,299.6,305.3,299.5L305.3,299.5z"/>
				
					<linearGradient id="SVGID_00000074413102553257121170000008248045441608619173_" gradientUnits="userSpaceOnUse" x1="190.3427" y1="614.6764" x2="291.5887" y2="556.2371" gradientTransform="matrix(1 0 0 -1 0 866)">
					<stop  offset="0" style="stop-color:#BCBEFF"/>
					<stop  offset="0.23" style="stop-color:#AAADF8"/>
					<stop  offset="0.68" style="stop-color:#7C83E5"/>
					<stop  offset="1" style="stop-color:#5761D7"/>
				</linearGradient>
				<path style="fill:url(#SVGID_00000074413102553257121170000008248045441608619173_);" d="M305.3,284.5v-11.1l-3.1-1.7
					c-0.9,5.2-7,8.7-12.2,9.4l-35.2,20.6l-15.3,5.5l-49-25.3l1.1-0.6c-4.2-2-6.5-6.4-8.7-10.5l-3.3,2l-2,0.5v11.4l0,0
					c0,2.2,1.4,4.3,4.3,6l49.1,28.3c6.6,3.3,14.3,3.3,20.9,0l49.1-28.3c2.4-1.1,4-3.3,4.3-5.9C305.3,284.7,305.3,284.6,305.3,284.5
					L305.3,284.5z"/>
				<path class="st16" d="M290,281.1l-35.2,20.6l-13.4,4.8v15c3.6,0.1,7.2-0.8,10.4-2.5l49.1-28.3c2.4-1.1,4-3.3,4.3-5.9
					c0-0.1,0-0.2,0-0.3l0,0v-11.1l-2.8-1.6h-0.3C301.2,277,295.2,280.4,290,281.1z"/>
				
					<linearGradient id="SVGID_00000034057803987028499990000001916932934035464119_" gradientUnits="userSpaceOnUse" x1="158.7527" y1="597.4083" x2="270.728" y2="590.8867" gradientTransform="matrix(1 0 0 -1 0 866)">
					<stop  offset="0" style="stop-color:#E4DDF6"/>
					<stop  offset="0.13" style="stop-color:#C7B0D6"/>
					<stop  offset="0.27" style="stop-color:#AB85B7"/>
					<stop  offset="0.41" style="stop-color:#94619E"/>
					<stop  offset="0.56" style="stop-color:#82468A"/>
					<stop  offset="0.7" style="stop-color:#75327C"/>
					<stop  offset="0.85" style="stop-color:#6E2674"/>
					<stop  offset="1" style="stop-color:#6B2271"/>
				</linearGradient>
				<path style="fill:url(#SVGID_00000034057803987028499990000001916932934035464119_);" d="M231,307.8L182,279.4
					c-5.8-3.3-5.8-8.7,0-12l49.1-28.3c6.6-3.3,14.3-3.3,20.9,0l49.1,28.3c5.8,3.3,5.8,8.7,0,12l-49.1,28.3
					C245.3,311.1,237.6,311.1,231,307.8z"/>
				<path class="st4" d="M241.5,302.6c-2.9,0.1-5.8-0.6-8.3-2l-38.3-22.1c-2.8-1-4.3-4-3.3-6.8c0.5-1.6,1.8-2.8,3.3-3.3l38.3-22.1
					c5.3-2.7,11.5-2.7,16.7,0l38.3,22.1c2,0.9,3.4,2.9,3.6,5.1c-0.2,2.2-1.5,4.2-3.6,5.1l-38.3,22.1
					C247.3,302,244.5,302.7,241.5,302.6z M233.6,299.9c5,2.5,10.9,2.5,15.8,0l38.3-22.1c2.4-0.8,3.7-3.3,2.9-5.7
					c-0.5-1.4-1.5-2.5-2.9-2.9l-38.4-22.1c-5-2.5-10.9-2.5-15.8,0l-38.3,22.1c-2.4,0.8-3.7,3.3-2.9,5.7c0.5,1.4,1.5,2.5,2.9,2.9
					L233.6,299.9z"/>
				<path class="st4" d="M301,279.4l-49.1,28.3c-6.6,3.3-14.3,3.3-20.9,0L182,279.4c-2.2-1-3.8-3-4.3-5.4c-0.3,2.4,1.1,4.9,4.3,6.7
					l49.1,28.3c6.6,3.3,14.3,3.3,20.9,0l49.1-28.3c3.2-1.8,4.6-4.3,4.3-6.7C304.7,276.4,303.1,278.4,301,279.4z"/>
				<g class="st6">
					
						<linearGradient id="SVGID_00000169515646185570543670000017276666209981979560_" gradientUnits="userSpaceOnUse" x1="190.335" y1="706.2451" x2="291.6049" y2="647.7741" gradientTransform="matrix(1 0 0 -1 0 866)">
						<stop  offset="0" style="stop-color:#BCBEFF"/>
						<stop  offset="0.23" style="stop-color:#AAADF8"/>
						<stop  offset="0.68" style="stop-color:#7C83E5"/>
						<stop  offset="1" style="stop-color:#5761D7"/>
					</linearGradient>
					<path style="fill:url(#SVGID_00000169515646185570543670000017276666209981979560_);" d="M305.3,192.9v-11.1l-3.1-1.8
						c-0.9,5.3-7,8.7-12.2,9.4L254.8,210l-15.3,5.5l-49-25.2l1.1-0.7c-4.2-1.9-6.5-6.4-8.7-10.5l-3.3,2l-2,0.6v11.5l0,0
						c0.3,2.6,1.9,4.9,4.3,6l49.1,28.3c6.6,3.3,14.3,3.3,20.9,0l49.1-28.3c2.8-1.6,4.3-3.8,4.3-5.9
						C305.3,193.2,305.3,193.1,305.3,192.9L305.3,192.9z"/>
					<path class="st16" d="M290,189.6l-35.2,20.6l-13.4,4.8v15c3.6,0.1,7.2-0.8,10.4-2.5l49.1-28.3c2.8-1.6,4.3-3.8,4.3-5.9
						c0-0.1,0-0.2,0-0.3l0,0v-11.1l-2.8-1.6h-0.3C301.2,185.4,295.2,188.8,290,189.6z"/>
					
						<linearGradient id="SVGID_00000162347807589516437980000009574571264222088075_" gradientUnits="userSpaceOnUse" x1="177.6646" y1="684.1893" x2="305.274" y2="684.1893" gradientTransform="matrix(1 0 0 -1 0 866)">
						<stop  offset="0" style="stop-color:#E9E9FD"/>
						<stop  offset="0.36" style="stop-color:#D3D2F9"/>
						<stop  offset="0.71" style="stop-color:#C5C4F7"/>
						<stop  offset="1" style="stop-color:#C0BFF6"/>
					</linearGradient>
					<path style="fill:url(#SVGID_00000162347807589516437980000009574571264222088075_);" d="M231,216.2L182,187.8
						c-5.8-3.3-5.8-8.7,0-12l49.1-28.3c6.6-3.3,14.3-3.3,20.9,0l49.1,28.3c5.8,3.3,5.8,8.7,0,12l-49.1,28.3
						C245.3,219.5,237.6,219.5,231,216.2z"/>
					<g class="st6">
						<path class="st18" d="M231,216.2L182,187.8c-5.8-3.3-5.8-8.7,0-12l49.1-28.3c6.6-3.3,14.3-3.3,20.9,0l49.1,28.3
							c5.8,3.3,5.8,8.7,0,12l-49.1,28.3C245.3,219.5,237.6,219.5,231,216.2z"/>
					</g>
				</g>
				<path class="st19" d="M241.5,182.2c-3.2,0.1-6.4-0.7-9.2-2.2l-49.2-28.3c-3.1-1.1-4.7-4.5-3.6-7.6c0.6-1.7,1.9-3,3.6-3.6
					l49.1-28.3c5.8-2.9,12.7-2.9,18.5,0l49.1,28.3c3.1,1.1,4.7,4.5,3.6,7.6c-0.6,1.7-1.9,3-3.6,3.6L250.7,180
					C247.9,181.5,244.7,182.3,241.5,182.2z M241.5,110.7c-3.1-0.1-6.1,0.7-8.8,2.1l-49.2,28.4c-2.7,0.9-4.1,3.7-3.3,6.4
					c0.5,1.5,1.7,2.8,3.3,3.3l49,28.3c5.5,2.8,12.1,2.8,17.6,0l49.1-28.3c2.7-0.9,4.1-3.7,3.3-6.4c-0.5-1.5-1.7-2.8-3.3-3.3
					l-49.1-28.3C247.6,111.5,244.6,110.8,241.5,110.7L241.5,110.7z"/>
				<path class="st20" d="M305.3,135.2v-16.8l-3.1-1.8c-0.9,5.3-7,8.7-12.2,9.4l-35.2,20.7l-15.3,5.6l-49-25.3l1.1-0.7
					c-4.2-1.9-6.5-6.4-8.7-10.5l-3.3,2l-2,0.6v17.1l0,0c0.3,2.6,1.9,4.9,4.3,6l49.1,28.3c6.6,3.3,14.3,3.3,20.9,0l49.1-28.3
					c2.4-1.1,4-3.3,4.3-5.9C305.3,135.3,305.3,135.2,305.3,135.2L305.3,135.2z"/>
				
					<linearGradient id="SVGID_00000110467987194135110560000013628866296575812280_" gradientUnits="userSpaceOnUse" x1="190.3389" y1="778.9186" x2="291.5656" y2="720.4726" gradientTransform="matrix(1 0 0 -1 0 866)">
					<stop  offset="0" style="stop-color:#BCBEFF"/>
					<stop  offset="0.23" style="stop-color:#AAADF8"/>
					<stop  offset="0.68" style="stop-color:#7C83E5"/>
					<stop  offset="1" style="stop-color:#5761D7"/>
				</linearGradient>
				<path style="fill:url(#SVGID_00000110467987194135110560000013628866296575812280_);" d="M305.3,120.3v-11.1l-3.1-1.8
					c-0.9,5.3-7,8.7-12.2,9.4l-35.2,20.6l-15.3,5.5l-49-25.2l1.1-0.7c-4.2-1.9-6.5-6.4-8.7-10.5l-3.3,2l-2,0.6v11.4l0,0
					c0.3,2.6,1.9,4.9,4.3,6l49.1,28.3c6.6,3.3,14.3,3.3,20.9,0l49.1-28.3c2.4-1.1,4-3.3,4.3-5.9
					C305.3,120.5,305.3,120.4,305.3,120.3z"/>
				<path class="st16" d="M290,116.9l-35.2,20.6l-13.4,4.8v15c3.6,0.1,7.2-0.8,10.4-2.5l49.1-28.3c2.4-1.1,4-3.3,4.3-5.9
					c0-0.1,0-0.2,0-0.3l0,0v-11.1l-2.8-1.6h-0.3C301.2,112.8,295.2,116.2,290,116.9z"/>
				
					<linearGradient id="SVGID_00000131345290299755911430000016954200949478481315_" gradientUnits="userSpaceOnUse" x1="196.4267" y1="782.8533" x2="286.6879" y2="730.7397" gradientTransform="matrix(1 0 0 -1 0 866)">
					<stop  offset="0.24" style="stop-color:#5761D7"/>
					<stop  offset="0.39" style="stop-color:#7A82E5"/>
					<stop  offset="0.55" style="stop-color:#979CF0"/>
					<stop  offset="0.7" style="stop-color:#ACAFF8"/>
					<stop  offset="0.85" style="stop-color:#B8BAFD"/>
					<stop  offset="1" style="stop-color:#BCBEFF"/>
				</linearGradient>
				<path style="fill:url(#SVGID_00000131345290299755911430000016954200949478481315_);" d="M191.6,117l46.5-26.8
					c2.1-1.1,4.6-1.1,6.7,0l45.7,26.4l-0.5,0.3c5.2-0.7,11.3-4.2,12.2-9.4l-51.3-28.6l-14.9-3.9l-12.1,7.1l-40.9,24.4
					C185.2,110.6,187.4,115.1,191.6,117z"/>
				<path class="st16" d="M241.5,76.4l-5.5-1.4l-12.1,7.1l-41,24.4c2.3,4.1,4.5,8.6,8.7,10.5l46.5-26.8c1-0.5,2.2-0.8,3.3-0.8
					L241.5,76.4z"/>
				
					<linearGradient id="SVGID_00000004511030493680743190000018082524013291083159_" gradientUnits="userSpaceOnUse" x1="177.6646" y1="756.8464" x2="305.274" y2="756.8464" gradientTransform="matrix(1 0 0 -1 0 866)">
					<stop  offset="0" style="stop-color:#E4DDF6"/>
					<stop  offset="0.13" style="stop-color:#C7B0D6"/>
					<stop  offset="0.27" style="stop-color:#AB85B7"/>
					<stop  offset="0.41" style="stop-color:#94619E"/>
					<stop  offset="0.56" style="stop-color:#82468A"/>
					<stop  offset="0.7" style="stop-color:#75327C"/>
					<stop  offset="0.85" style="stop-color:#6E2674"/>
					<stop  offset="1" style="stop-color:#6B2271"/>
				</linearGradient>
				<path style="fill:url(#SVGID_00000004511030493680743190000018082524013291083159_);" d="M231,143.5L182,115.2
					c-5.8-3.3-5.8-8.7,0-12L231,74.8c6.6-3.3,14.3-3.3,20.9,0l49.1,28.3c5.8,3.3,5.8,8.7,0,12l-49.1,28.3
					C245.3,146.8,237.6,146.8,231,143.5z M244.8,78.9c-2.1-1.1-4.6-1.1-6.7,0l-49.1,28.3c-1.1,0.4-1.6,1.5-1.3,2.6
					c0.2,0.6,0.7,1.1,1.3,1.3l49.1,28.3c2.1,1.1,4.6,1.1,6.7,0l49.1-28.3c1.1-0.4,1.6-1.5,1.3-2.6c-0.2-0.6-0.7-1.1-1.3-1.3
					L244.8,78.9z"/>
				<path class="st4" d="M293.9,107.2l-49.1-28.3c-2.1-1.1-4.6-1.1-6.7,0l-49.1,28.3c-1.2,0.7-1.6,1.8-1.2,2.6
					c0.3-0.5,0.7-1,1.2-1.2l49.1-28.3c2.1-1.1,4.6-1.1,6.7,0l49.1,28.3c0.5,0.3,0.9,0.7,1.2,1.2
					C295.5,108.9,295.2,107.9,293.9,107.2z"/>
				<path class="st4" d="M301,115.2l-49.1,28.3c-6.6,3.3-14.3,3.3-20.9,0L182,115.2c-2.2-1-3.8-3-4.3-5.4c-0.3,2.4,1.1,4.9,4.3,6.7
					l49.1,28.4c6.6,3.3,14.3,3.3,20.9,0l49.1-28.3c3.2-1.8,4.6-4.3,4.3-6.7C304.7,112.2,303.1,114.2,301,115.2z"/>
				<path class="st20" d="M244.8,78.9c-2.1-1.1-4.6-1.1-6.7,0l-49.1,28.3c-1.1,0.4-1.6,1.5-1.3,2.6c0.2,0.6,0.7,1.1,1.3,1.3
					l49.1,28.3c2.1,1.1,4.6,1.1,6.7,0l49.1-28.3c1.1-0.4,1.6-1.5,1.3-2.6c-0.2-0.6-0.7-1.1-1.3-1.3L244.8,78.9z"/>
				
					<linearGradient id="SVGID_00000059293588558311068680000004545925940370523530_" gradientUnits="userSpaceOnUse" x1="241.4693" y1="725.7147" x2="241.4693" y2="931.9099" gradientTransform="matrix(1 0 0 -1 0 866)">
					<stop  offset="0" style="stop-color:#333399"/>
					<stop  offset="0.13" style="stop-color:#2A2F85;stop-opacity:0.89"/>
					<stop  offset="0.46" style="stop-color:#132552;stop-opacity:0.63"/>
					<stop  offset="0.71" style="stop-color:#051E33;stop-opacity:0.46"/>
					<stop  offset="0.84" style="stop-color:#001C27;stop-opacity:0.4"/>
				</linearGradient>
				
					<path style="opacity:0.5;fill:url(#SVGID_00000059293588558311068680000004545925940370523530_);enable-background:new    ;" d="
					M295.3,109.2V-65.9H187.7v175.1c0.1,0.9,0.6,1.6,1.4,2l49.1,28.3c2.1,1.1,4.6,1.1,6.7,0l49.1-28.3
					C294.7,110.8,295.2,110.1,295.3,109.2z"/>
				<g class="st49">
					<g>
						<defs>
							<path id="SVGID_00000015325524091452384080000010690045472942404525_" d="M99.6,226.2l-49.1-28.3c-5.8-3.3-5.8-8.7,0-12
								l49.1-28.4c6.6-3.3,14.3-3.3,20.9,0l49.1,28.3c5.8,3.3,5.8,8.7,0,12l-49.1,28.4C113.9,229.5,106.1,229.5,99.6,226.2z"/>
						</defs>
						<clipPath id="SVGID_00000045598197897513967890000014806016095756047234_">
							<use xlink:href="#SVGID_00000015325524091452384080000010690045472942404525_"  style="overflow:visible;"/>
						</clipPath>
						<g style="clip-path:url(#SVGID_00000045598197897513967890000014806016095756047234_);">
							<path class="st51" d="M128.8,284.8c3.5,0.5,7-0.1,10-1.8c1.9-0.8,3.2-2.6,3.3-4.6l0,0v-58.6l-13.2-5.1h-0.3L128.8,284.8z"/>
						</g>
					</g>
				</g>
				
					<rect x="10.1" y="265" transform="matrix(0.8662 -0.4997 0.4997 0.8662 -126.6002 58.1092)" class="st19" width="70.2" height="0.9"/>
				<g class="st6">
					
						<linearGradient id="SVGID_00000020369592920106324270000011232858663892827533_" gradientUnits="userSpaceOnUse" x1="58.8484" y1="621.6962" x2="160.095" y2="563.2387" gradientTransform="matrix(1 0 0 -1 0 866)">
						<stop  offset="0" style="stop-color:#BCBEFF"/>
						<stop  offset="0.23" style="stop-color:#AAADF8"/>
						<stop  offset="0.68" style="stop-color:#7C83E5"/>
						<stop  offset="1" style="stop-color:#5761D7"/>
					</linearGradient>
					<path style="fill:url(#SVGID_00000020369592920106324270000011232858663892827533_);" d="M173.8,277.5v-11.1l-3.1-1.8
						c-0.9,5.3-7,8.7-12.2,9.4l-35.2,20.6l-15.3,5.6l-49-25.3l1.1-0.7c-4.2-1.9-6.5-6.4-8.7-10.5l-3.3,2l-2,0.6v11.4l0,0
						c0.3,2.6,1.9,4.9,4.3,6L99.6,312c6.6,3.3,14.3,3.3,20.9,0l49.1-28.3c2.8-1.6,4.3-3.8,4.3-5.9
						C173.8,277.7,173.8,277.6,173.8,277.5z"/>
					<path class="st16" d="M158.5,274.1l-35.2,20.6l-13.4,4.8v15c3.6,0.1,7.2-0.8,10.4-2.5l49.1-28.3c2.8-1.6,4.3-3.8,4.3-5.9
						c0-0.1,0-0.2,0-0.3l0,0v-11.1l-2.8-1.6h-0.3C169.7,270,163.6,273.4,158.5,274.1z"/>
					
						<linearGradient id="SVGID_00000129188312761726982460000003571357400983959944_" gradientUnits="userSpaceOnUse" x1="46.178" y1="599.6271" x2="173.7874" y2="599.6271" gradientTransform="matrix(1 0 0 -1 0 866)">
						<stop  offset="0" style="stop-color:#E9E9FD"/>
						<stop  offset="0.36" style="stop-color:#D3D2F9"/>
						<stop  offset="0.71" style="stop-color:#C5C4F7"/>
						<stop  offset="1" style="stop-color:#C0BFF6"/>
					</linearGradient>
					<path style="fill:url(#SVGID_00000129188312761726982460000003571357400983959944_);" d="M99.6,300.7l-49.1-28.3
						c-5.8-3.3-5.8-8.7,0-12L99.6,232c6.6-3.3,14.3-3.3,20.9,0l49.1,28.3c5.8,3.3,5.8,8.7,0,12l-49.1,28.3
						C113.9,304,106.1,304,99.6,300.7z"/>
					<g class="st6">
						<path class="st18" d="M99.6,300.7l-49.1-28.3c-5.8-3.3-5.8-8.7,0-12L99.6,232c6.6-3.3,14.3-3.3,20.9,0l49.1,28.3
							c5.8,3.3,5.8,8.7,0,12l-49.1,28.3C113.9,304,106.1,304,99.6,300.7z"/>
					</g>
				</g>
				<path class="st19" d="M110,264.9c-3.2,0.1-6.4-0.7-9.3-2.2l-49.1-28.3c-3.1-1.1-4.7-4.5-3.6-7.6c0.6-1.7,1.9-3,3.6-3.6
					l49.1-28.3c5.8-2.9,12.7-2.9,18.5,0l49.1,28.3c3.1,1.1,4.7,4.5,3.6,7.6c-0.6,1.7-1.9,3-3.6,3.6l-49.1,28.3
					C116.4,264.2,113.2,265,110,264.9z M110,193.4c-3.1-0.1-6.1,0.7-8.8,2.1l-49,28.4c-2.7,0.9-4.1,3.7-3.3,6.4
					c0.5,1.5,1.7,2.8,3.3,3.3l49,28.3c5.5,2.8,12.1,2.8,17.6,0l49.1-28.3c2.7-0.9,4.1-3.7,3.3-6.4c-0.5-1.5-1.7-2.8-3.3-3.3
					l-49.1-28.3C116.1,194.2,113,193.4,110,193.4L110,193.4z"/>
				<path class="st20" d="M173.8,217.9v-16.8l-3.1-1.8c-0.9,5.3-7,8.7-12.2,9.4l-35.2,20.6l-15.3,5.5l-49-25.3l1.1-0.7
					c-4.2-1.9-6.5-6.4-8.7-10.5l-3.3,2l-2,0.6v17.1l0,0c0.3,2.6,1.9,4.9,4.3,6l49.1,28.3c6.6,3.3,14.3,3.3,20.9,0l49.1-28.3
					c2.4-1.1,4-3.3,4.3-5.9C173.8,218.1,173.8,218,173.8,217.9z"/>
				
					<linearGradient id="SVGID_00000016763420099799860190000009926830034547534208_" gradientUnits="userSpaceOnUse" x1="58.8101" y1="696.2266" x2="160.1065" y2="637.7402" gradientTransform="matrix(1 0 0 -1 0 866)">
					<stop  offset="0" style="stop-color:#BCBEFF"/>
					<stop  offset="0.23" style="stop-color:#AAADF8"/>
					<stop  offset="0.68" style="stop-color:#7C83E5"/>
					<stop  offset="1" style="stop-color:#5761D7"/>
				</linearGradient>
				<path style="fill:url(#SVGID_00000016763420099799860190000009926830034547534208_);" d="M173.8,203v-11.1l-3.1-1.8
					c-0.9,5.3-7,8.7-12.2,9.4L123.3,220l-15.3,5.6l-49-25.3l1.1-0.7c-4.2-1.9-6.5-6.4-8.7-10.5l-3.3,2l-2,0.6v11.4l0,0
					c0.2,2.7,1.9,5.1,4.3,6.2l49.1,28.3c6.6,3.3,14.3,3.3,20.9,0l49.1-28.3c2.4-1.1,4-3.3,4.3-5.9
					C173.8,203.2,173.8,203.1,173.8,203L173.8,203z"/>
				<path class="st16" d="M158.5,199.6l-35.2,20.5l-13.4,4.8v15c3.6,0.1,7.2-0.8,10.4-2.5l49.1-28.2c2.4-1.1,4-3.3,4.3-5.9
					c0-0.1,0-0.2,0-0.3l0,0v-11.1l-2.8-1.6h-0.3C169.7,195.4,163.6,198.9,158.5,199.6z"/>
				
					<linearGradient id="SVGID_00000094600396812308319560000006670228366755252625_" gradientUnits="userSpaceOnUse" x1="32.2871" y1="676.6858" x2="142.4935" y2="673.1301" gradientTransform="matrix(1 0 0 -1 0 866)">
					<stop  offset="0" style="stop-color:#E4DDF6"/>
					<stop  offset="0.13" style="stop-color:#C7B0D6"/>
					<stop  offset="0.27" style="stop-color:#AB85B7"/>
					<stop  offset="0.41" style="stop-color:#94619E"/>
					<stop  offset="0.56" style="stop-color:#82468A"/>
					<stop  offset="0.7" style="stop-color:#75327C"/>
					<stop  offset="0.85" style="stop-color:#6E2674"/>
					<stop  offset="1" style="stop-color:#6B2271"/>
				</linearGradient>
				<path style="fill:url(#SVGID_00000094600396812308319560000006670228366755252625_);" d="M99.6,226.2l-49.1-28.3
					c-5.8-3.3-5.8-8.7,0-12l49.1-28.4c6.6-3.3,14.3-3.3,20.9,0l49.1,28.3c5.8,3.3,5.8,8.7,0,12l-49.1,28.4
					C113.9,229.5,106.1,229.5,99.6,226.2z"/>
				<path class="st4" d="M169.5,197.9l-49.1,28.3c-6.6,3.3-14.3,3.3-20.9,0l-49.1-28.3c-2.2-1-3.7-3-4.3-5.4
					c-0.3,2.4,1.1,4.9,4.3,6.7l49.1,28.3c6.6,3.3,14.3,3.3,20.9,0l49.1-28.3c3.2-1.8,4.6-4.3,4.3-6.7
					C173.2,194.9,171.6,196.8,169.5,197.9z"/>
			</g>
		</g>
	</g>
</g>
</svg>
