<svg width="56" height="56" viewBox="0 0 56 56" fill="none" xmlns="http://www.w3.org/2000/svg">
<path fill-rule="evenodd" clip-rule="evenodd" d="M28 56C12.536 56 0 43.464 0 28C0 12.536 12.536 0 28 0C43.464 0 56 12.536 56 28C56 43.464 43.464 56 28 56ZM38.675 20.125C39.9 19.95 40.95 19.775 42 19.25C41.3 20.475 40.25 21.525 39.025 22.225C39.375 30.45 33.425 39.375 22.75 39.375C19.6 39.375 16.625 38.325 14 36.75C16.975 37.1 20.125 36.225 22.225 34.65C19.6 34.65 17.5 32.9 16.8 30.625C17.675 30.8 18.55 30.625 19.425 30.45C16.8 29.75 14.875 27.3 14.875 24.675C15.75 25.025 16.625 25.375 17.5 25.375C15.05 23.625 14.175 20.3 15.75 17.675C18.725 21.175 22.925 23.45 27.65 23.625C26.775 20.125 29.575 16.625 33.25 16.625C34.825 16.625 36.4 17.325 37.45 18.375C38.85 18.025 40.075 17.675 41.125 16.975C40.775 18.375 39.9 19.425 38.675 20.125Z" fill="white"/>
</svg>
